;Layer: Drill PTH
;EasyEDA v6.2.38, 2019-08-31T09:11:45+02:00
;e43a48f15e4b4d90815dc594cbdf787c,da1ed6c8b984424aa63d4157573fa6f0,10
;Gerber Generator version 0.2
M48
METRIC,LZ,000.000
;Holesize 1 = 0.305 METRIC
T01C0.305
;Holesize 2 = 0.701 METRIC
T02C0.701
;Holesize 3 = 0.889 METRIC
T03C0.889
;Holesize 4 = 0.901 METRIC
T04C0.901
;Holesize 5 = 1.000 METRIC
T05C1.000
;Holesize 6 = 1.101 METRIC
T06C1.101
%
G05
G90
T01
X+035052Y+003810
X+010668Y+009398
X+034798Y+004572
X+010668Y+010668
X+036576Y+007620
X+030855Y+013989
X+006350Y+004064
X+015748Y+003810
X+006096Y+002794
X+037592Y+015240
X+039370Y+006350
X+039878Y+013208
X+030480Y+005588
X+037846Y+006604
X+006098Y+001522
X+025908Y+006350
X+027940Y+012446
X+032766Y+016002
X+000508Y+015748
X+000508Y+006096
X+010414Y+000762
X+010922Y+001524
X+011430Y+000508
X+011430Y+002286
X+009906Y+004064
X+009652Y+005334
X+010160Y+006350
X+010922Y+007112
X+010414Y+007874
X+011938Y+007620
X+011938Y+003556
X+011684Y+004572
X+012192Y+005334
X+006350Y+000508
X+000508Y+000508
X+002794Y+003556
X+003810Y+002794
X+025654Y+005334
X+023114Y+003048
X+025146Y+003048
X+027246Y+003799
X+028108Y+002934
X+028514Y+002122
X+028448Y+007620
X+028702Y+008890
X+040132Y+003048
X+047498Y+001778
X+037846Y+013462
X+050257Y+019189
X+039878Y+021336
X+039878Y+018288
X+037084Y+018034
X+038354Y+018542
X+032004Y+018034
X+029210Y+018542
X+028956Y+021336
X+030734Y+021336
X+034544Y+018542
X+033528Y+019812
X+035560Y+019812
X+035306Y+021336
X+042672Y+021336
X+046736Y+021336
X+023368Y+019812
X+020320Y+021336
X+020320Y+020066
X+017526Y+021336
X+017526Y+019050
X+009144Y+017018
X+007874Y+019304
X+005842Y+018796
X+005334Y+019304
X+006604Y+019304
X+007112Y+018796
X+014224Y+021336
X+007112Y+016510
X+020576Y+017524
X+020604Y+016437
X+008890Y+017780
X+006096Y+016510
X+010922Y+021336
X+012446Y+021336
X+011684Y+020574
X+011176Y+019812
X+010922Y+019050
X+009144Y+021336
X+004318Y+021336
X+004318Y+020320
X+017780Y+017526
X+014230Y+017406
X+004064Y+000508
X+002286Y+000508
X+000508Y+002286
X+000508Y+004064
X+002540Y+005842
X+009028Y+002563
X+009946Y+003226
X+046771Y+019190
X+044679Y+019190
X+048501Y+019190
X+041402Y+018034
X+024638Y+021336
X+037846Y+004826
X+036830Y+004064
X+035037Y+001442
X+037592Y+001524
X+040291Y+001545
X+032004Y+012192
X+032004Y+011430
X+032004Y+010668
X+032004Y+009906
X+032004Y+007620
X+032004Y+008382
X+032004Y+009144
X+032766Y+007620
X+033528Y+007620
X+034290Y+007620
X+035052Y+007620
X+035814Y+007620
X+036576Y+008382
X+036576Y+009144
X+036576Y+009906
X+036576Y+010668
X+036576Y+011430
X+036576Y+012192
X+035814Y+012192
X+035052Y+012192
X+034290Y+012192
X+033528Y+012192
X+032766Y+012192
X+033020Y+011176
X+033020Y+008636
X+033020Y+009906
X+034290Y+011176
X+035560Y+011176
X+035560Y+008636
X+034290Y+008636
X+035560Y+009906
X+033782Y+010414
X+034798Y+010414
X+034798Y+009398
X+033782Y+009398
X+000508Y+017780
X+003048Y+021336
X+003048Y+019812
X+005082Y+016508
X+004826Y+018796
X+028194Y+008382
X+024130Y+003048
X+026162Y+003048
X+028956Y+003048
X+008382Y+000508
X+005842Y+014732
X+005334Y+007112
X+004064Y+007112
X+004064Y+014224
X+003556Y+012954
X+003810Y+011938
X+003556Y+009398
X+003810Y+010668
X+003302Y+008382
X+002032Y+010922
X+002540Y+012446
X+002540Y+009144
X+003048Y+011430
X+002794Y+010160
X+000762Y+010922
X+000508Y+013970
X+000508Y+007620
X+004826Y+014986
X+029464Y+002286
X+040894Y+010922
X+043180Y+003810
X+042164Y+003556
X+045974Y+001778
X+027178Y+003048
X+030958Y+016641
X+030480Y+014732
X+031112Y+015365
X+009652Y+007366
X+043434Y+002540
X+044196Y+003048
X+025908Y+004572
X+050341Y+015722
X+024130Y+014986
X+020828Y+015240
X+018288Y+018542
X+023114Y+005588
X+023114Y+004572
X+001524Y+016002
X+013970Y+016002
X+017526Y+016256
X+011938Y+008636
X+011176Y+008636
X+011684Y+010922
X+011176Y+011430
X+015748Y+011430
X+016510Y+010922
X+017272Y+011430
X+018288Y+011684
X+019558Y+011684
X+018796Y+011176
X+017780Y+010922
X+018034Y+008890
X+019558Y+008890
X+018796Y+008636
X+018288Y+008128
X+019304Y+008128
X+023368Y+011430
X+017526Y+013970
X+015748Y+013970
X+016510Y+014478
X+022595Y+011846
X+021065Y+008276
X+020555Y+007307
X+023114Y+007366
X+023156Y+008480
X+022136Y+008174
X+021590Y+007366
X+007112Y+014986
X+024384Y+013970
X+039116Y+013716
X+033020Y+021336
X+037846Y+021336
X+007141Y+013376
X+028715Y+013223
X+026420Y+009500
X+029531Y+006490
X+028664Y+006694
X+050546Y+007366
X+050546Y+013462
X+046482Y+010414
X+046482Y+013208
X+043180Y+010668
X+044450Y+010414
X+045466Y+010668
X+048514Y+006350
X+048514Y+008382
X+050800Y+006350
X+050292Y+005588
X+051308Y+004826
X+051308Y+014224
X+051816Y+018542
X+050800Y+018034
X+051308Y+017018
X+050292Y+021336
X+051816Y+021336
X+059436Y+021336
X+061468Y+021336
X+061468Y+000762
X+061468Y+003302
X+061468Y+005842
X+061468Y+008382
X+061468Y+010922
X+061468Y+013462
X+061468Y+016002
X+061468Y+018542
X+059436Y+003302
X+054102Y+021336
X+053848Y+016002
X+055880Y+021336
X+057658Y+021336
X+044196Y+002032
X+046482Y+003048
X+045466Y+003048
X+044679Y+016895
X+048505Y+016895
X+046771Y+016895
X+050239Y+016895
X+046228Y+004572
X+043149Y+005369
X+043149Y+006490
X+046209Y+006797
X+045546Y+007459
X+044424Y+007459
X+045189Y+006745
X+046107Y+014039
X+043506Y+012152
X+040089Y+012356
X+050546Y+011176
X+050392Y+014702
X+051816Y+016002
X+051308Y+015240
X+059436Y+016002
X+055118Y+020320
X+028154Y+001492
X+029174Y+001492
X+043434Y+001524
X+048199Y+001492
X+059436Y+010922
X+053848Y+005842
X+053848Y+003302
X+053848Y+018542
X+059436Y+018542
X+027236Y+010520
X+022707Y+010870
X+054610Y+014224
X+058674Y+014224
X+056896Y+020320
X+058674Y+020320
X+055118Y+017526
X+056896Y+017526
X+058420Y+017526
X+055880Y+014224
X+057404Y+014224
X+055372Y+015494
X+058166Y+015240
X+057658Y+016256
X+056642Y+015240
X+055880Y+016510
X+059436Y+013462
T02
X+001826Y+007114G85X+002626Y+007114
X+001826Y+014353G85X+002626Y+014353
T03
X+001524Y+020574
T04
X+004927Y+013144
X+004927Y+008303
X+036984Y+019367
X+032108Y+019367
T05
X+052832Y+019812
X+052832Y+017272
X+052832Y+014732
X+052832Y+012192
X+052832Y+009652
X+052832Y+007112
X+052832Y+004572
X+052832Y+002032
X+060452Y+019812
X+060452Y+017272
X+060452Y+014732
X+060452Y+012192
X+060452Y+009652
X+060452Y+007112
X+060452Y+004572
X+060452Y+002032
T06
X+031242Y+002286
X+033782Y+002286
X+036322Y+002286
X+038862Y+002286
M30
