G04 Layer: TopPasteMaskLayer*
G04 EasyEDA v6.2.38, 2019-08-31T09:11:45+02:00*
G04 e43a48f15e4b4d90815dc594cbdf787c,da1ed6c8b984424aa63d4157573fa6f0,10*
G04 Gerber Generator version 0.2*
G04 Scale: 100 percent, Rotated: No, Reflected: No *
G04 Dimensions in millimeters *
G04 leading zeros omitted , absolute positions ,3 integer and 3 decimal *
%FSLAX33Y33*%
%MOMM*%
G90*
G71D02*

%ADD12C,0.280010*%
%ADD13C,0.699999*%
%ADD18R,0.999998X1.099998*%
%ADD19R,3.199994X1.099998*%
%ADD20R,1.092200X0.990600*%
%ADD24R,1.270000X1.470660*%

%LPD*%
G54D12*
G01X37040Y14782D02*
G01X37040Y13262D01*
G01X36539Y14782D02*
G01X36539Y13262D01*
G01X36040Y14782D02*
G01X36040Y13262D01*
G01X35539Y14782D02*
G01X35539Y13262D01*
G01X35040Y14782D02*
G01X35040Y13262D01*
G01X34539Y14782D02*
G01X34539Y13262D01*
G01X34040Y14782D02*
G01X34040Y13262D01*
G01X33539Y14782D02*
G01X33539Y13262D01*
G01X33040Y14782D02*
G01X33040Y13262D01*
G01X32539Y14782D02*
G01X32539Y13262D01*
G01X32040Y14782D02*
G01X32040Y13262D01*
G01X31539Y14782D02*
G01X31539Y13262D01*
G01X30999Y12722D02*
G01X29479Y12722D01*
G01X30999Y12222D02*
G01X29479Y12222D01*
G01X30999Y11722D02*
G01X29479Y11722D01*
G01X30999Y11222D02*
G01X29479Y11222D01*
G01X30999Y10722D02*
G01X29479Y10722D01*
G01X30999Y10222D02*
G01X29479Y10222D01*
G01X30999Y9722D02*
G01X29479Y9722D01*
G01X30999Y9222D02*
G01X29479Y9222D01*
G01X30999Y8722D02*
G01X29479Y8722D01*
G01X30999Y8222D02*
G01X29479Y8222D01*
G01X30999Y7722D02*
G01X29479Y7722D01*
G01X30999Y7222D02*
G01X29479Y7222D01*
G01X31539Y6682D02*
G01X31539Y5162D01*
G01X32040Y6682D02*
G01X32040Y5162D01*
G01X32539Y6682D02*
G01X32539Y5162D01*
G01X33040Y6682D02*
G01X33040Y5162D01*
G01X33539Y6682D02*
G01X33539Y5162D01*
G01X34040Y6682D02*
G01X34040Y5162D01*
G01X34539Y6682D02*
G01X34539Y5162D01*
G01X35040Y6682D02*
G01X35040Y5162D01*
G01X35539Y6682D02*
G01X35539Y5162D01*
G01X36040Y6682D02*
G01X36040Y5162D01*
G01X36539Y6682D02*
G01X36539Y5162D01*
G01X37040Y6682D02*
G01X37040Y5162D01*
G01X39100Y7222D02*
G01X37580Y7222D01*
G01X39100Y7722D02*
G01X37580Y7722D01*
G01X39100Y8222D02*
G01X37580Y8222D01*
G01X39100Y8722D02*
G01X37580Y8722D01*
G01X39100Y9222D02*
G01X37580Y9222D01*
G01X39100Y9722D02*
G01X37580Y9722D01*
G01X39100Y10222D02*
G01X37580Y10222D01*
G01X39100Y10722D02*
G01X37580Y10722D01*
G01X39100Y11222D02*
G01X37580Y11222D01*
G01X39100Y11722D02*
G01X37580Y11722D01*
G01X39100Y12222D02*
G01X37580Y12222D01*
G01X39100Y12722D02*
G01X37580Y12722D01*
G54D13*
G01X14694Y3429D02*
G01X13194Y3429D01*
G01X14694Y4699D02*
G01X13194Y4699D01*
G01X14694Y5969D02*
G01X13194Y5969D01*
G01X14694Y7239D02*
G01X13194Y7239D01*
G01X8649Y3429D02*
G01X7149Y3429D01*
G01X8649Y4699D02*
G01X7149Y4699D01*
G01X8649Y5969D02*
G01X7149Y5969D01*
G01X8649Y7239D02*
G01X7149Y7239D01*
G36*
G01X20975Y21087D02*
G01X22037Y21087D01*
G01X22037Y20436D01*
G01X20975Y20436D01*
G01X20975Y21087D01*
G37*
G36*
G01X20975Y20137D02*
G01X22037Y20137D01*
G01X22037Y19486D01*
G01X20975Y19486D01*
G01X20975Y20137D01*
G37*
G36*
G01X20975Y19187D02*
G01X22037Y19187D01*
G01X22037Y18536D01*
G01X20975Y18536D01*
G01X20975Y19187D01*
G37*
G36*
G01X23174Y19187D02*
G01X24236Y19187D01*
G01X24236Y18536D01*
G01X23174Y18536D01*
G01X23174Y19187D01*
G37*
G36*
G01X23174Y21087D02*
G01X24236Y21087D01*
G01X24236Y20436D01*
G01X23174Y20436D01*
G01X23174Y21087D01*
G37*
G36*
G01X19855Y17962D02*
G01X19855Y16964D01*
G01X18752Y16964D01*
G01X18752Y17962D01*
G01X19855Y17962D01*
G37*
G36*
G01X19855Y16563D02*
G01X19855Y15565D01*
G01X18752Y15565D01*
G01X18752Y16563D01*
G01X19855Y16563D01*
G37*
G36*
G01X25102Y18613D02*
G01X25102Y19611D01*
G01X26205Y19611D01*
G01X26205Y18613D01*
G01X25102Y18613D01*
G37*
G36*
G01X25102Y20012D02*
G01X25102Y21010D01*
G01X26205Y21010D01*
G01X26205Y20012D01*
G01X25102Y20012D01*
G37*
G36*
G01X7691Y11727D02*
G01X8689Y11727D01*
G01X8689Y10624D01*
G01X7691Y10624D01*
G01X7691Y11727D01*
G37*
G36*
G01X9090Y11727D02*
G01X10088Y11727D01*
G01X10088Y10624D01*
G01X9090Y10624D01*
G01X9090Y11727D01*
G37*
G36*
G01X7691Y9695D02*
G01X8689Y9695D01*
G01X8689Y8592D01*
G01X7691Y8592D01*
G01X7691Y9695D01*
G37*
G36*
G01X9090Y9695D02*
G01X10088Y9695D01*
G01X10088Y8592D01*
G01X9090Y8592D01*
G01X9090Y9695D01*
G37*
G36*
G01X3007Y16578D02*
G01X3007Y17576D01*
G01X4109Y17576D01*
G01X4109Y16578D01*
G01X3007Y16578D01*
G37*
G36*
G01X3007Y17978D02*
G01X3007Y18976D01*
G01X4109Y18976D01*
G01X4109Y17978D01*
G01X3007Y17978D01*
G37*
G54D19*
G01X6604Y17550D03*
G01X6604Y20549D03*
G54D20*
G01X45554Y15748D03*
G01X43853Y15748D03*
G36*
G01X6713Y9220D02*
G01X4711Y9220D01*
G01X4711Y9669D01*
G01X6713Y9669D01*
G01X6713Y9220D01*
G37*
G36*
G01X6713Y9870D02*
G01X4711Y9870D01*
G01X4711Y10320D01*
G01X6713Y10320D01*
G01X6713Y9870D01*
G37*
G36*
G01X6713Y10518D02*
G01X4711Y10518D01*
G01X4711Y10970D01*
G01X6713Y10970D01*
G01X6713Y10518D01*
G37*
G36*
G01X6713Y11168D02*
G01X4711Y11168D01*
G01X4711Y11620D01*
G01X6713Y11620D01*
G01X6713Y11168D01*
G37*
G36*
G01X6713Y11818D02*
G01X4711Y11818D01*
G01X4711Y12268D01*
G01X6713Y12268D01*
G01X6713Y11818D01*
G37*
G36*
G01X1998Y9939D02*
G01X1998Y8338D01*
G01X800Y8338D01*
G01X800Y9939D01*
G01X1998Y9939D01*
G37*
G36*
G01X2016Y13218D02*
G01X2016Y11617D01*
G01X815Y11617D01*
G01X815Y13218D01*
G01X2016Y13218D01*
G37*
G36*
G01X17203Y17226D02*
G01X16205Y17226D01*
G01X16205Y18328D01*
G01X17203Y18328D01*
G01X17203Y17226D01*
G37*
G36*
G01X15803Y17226D02*
G01X14805Y17226D01*
G01X14805Y18328D01*
G01X15803Y18328D01*
G01X15803Y17226D01*
G37*
G36*
G01X2077Y18976D02*
G01X2077Y17978D01*
G01X975Y17978D01*
G01X975Y18976D01*
G01X2077Y18976D01*
G37*
G36*
G01X2077Y17576D02*
G01X2077Y16578D01*
G01X975Y16578D01*
G01X975Y17576D01*
G01X2077Y17576D01*
G37*
G36*
G01X21407Y17569D02*
G01X22405Y17569D01*
G01X22405Y16466D01*
G01X21407Y16466D01*
G01X21407Y17569D01*
G37*
G36*
G01X22806Y17569D02*
G01X23804Y17569D01*
G01X23804Y16466D01*
G01X22806Y16466D01*
G01X22806Y17569D01*
G37*
G36*
G01X27757Y5885D02*
G01X28755Y5885D01*
G01X28755Y4782D01*
G01X27757Y4782D01*
G01X27757Y5885D01*
G37*
G36*
G01X29156Y5885D02*
G01X30154Y5885D01*
G01X30154Y4782D01*
G01X29156Y4782D01*
G01X29156Y5885D01*
G37*
G36*
G01X26995Y15029D02*
G01X27993Y15029D01*
G01X27993Y13926D01*
G01X26995Y13926D01*
G01X26995Y15029D01*
G37*
G36*
G01X28394Y15029D02*
G01X29392Y15029D01*
G01X29392Y13926D01*
G01X28394Y13926D01*
G01X28394Y15029D01*
G37*
G36*
G01X38171Y15537D02*
G01X39169Y15537D01*
G01X39169Y14434D01*
G01X38171Y14434D01*
G01X38171Y15537D01*
G37*
G36*
G01X39570Y15537D02*
G01X40568Y15537D01*
G01X40568Y14434D01*
G01X39570Y14434D01*
G01X39570Y15537D01*
G37*
G36*
G01X40822Y4782D02*
G01X39824Y4782D01*
G01X39824Y5885D01*
G01X40822Y5885D01*
G01X40822Y4782D01*
G37*
G36*
G01X39423Y4782D02*
G01X38425Y4782D01*
G01X38425Y5885D01*
G01X39423Y5885D01*
G01X39423Y4782D01*
G37*
G36*
G01X23804Y12402D02*
G01X22806Y12402D01*
G01X22806Y13505D01*
G01X23804Y13505D01*
G01X23804Y12402D01*
G37*
G36*
G01X22405Y12402D02*
G01X21407Y12402D01*
G01X21407Y13505D01*
G01X22405Y13505D01*
G01X22405Y12402D01*
G37*
G36*
G01X23804Y14434D02*
G01X22806Y14434D01*
G01X22806Y15537D01*
G01X23804Y15537D01*
G01X23804Y14434D01*
G37*
G36*
G01X22405Y14434D02*
G01X21407Y14434D01*
G01X21407Y15537D01*
G01X22405Y15537D01*
G01X22405Y14434D01*
G37*
G01X45554Y18034D03*
G01X43853Y18034D03*
G01X45554Y20320D03*
G01X43853Y20320D03*
G36*
G01X47315Y16299D02*
G01X48313Y16299D01*
G01X48313Y15196D01*
G01X47315Y15196D01*
G01X47315Y16299D01*
G37*
G36*
G01X48714Y16299D02*
G01X49712Y16299D01*
G01X49712Y15196D01*
G01X48714Y15196D01*
G01X48714Y16299D01*
G37*
G36*
G01X47315Y18585D02*
G01X48313Y18585D01*
G01X48313Y17482D01*
G01X47315Y17482D01*
G01X47315Y18585D01*
G37*
G36*
G01X48714Y18585D02*
G01X49712Y18585D01*
G01X49712Y17482D01*
G01X48714Y17482D01*
G01X48714Y18585D01*
G37*
G36*
G01X47315Y20871D02*
G01X48313Y20871D01*
G01X48313Y19768D01*
G01X47315Y19768D01*
G01X47315Y20871D01*
G37*
G36*
G01X48714Y20871D02*
G01X49712Y20871D01*
G01X49712Y19768D01*
G01X48714Y19768D01*
G01X48714Y20871D01*
G37*
G36*
G01X7830Y13787D02*
G01X7830Y14785D01*
G01X8933Y14785D01*
G01X8933Y13787D01*
G01X7830Y13787D01*
G37*
G36*
G01X7830Y15186D02*
G01X7830Y16184D01*
G01X8933Y16184D01*
G01X8933Y15186D01*
G01X7830Y15186D01*
G37*
G36*
G01X20502Y4782D02*
G01X19504Y4782D01*
G01X19504Y5885D01*
G01X20502Y5885D01*
G01X20502Y4782D01*
G37*
G36*
G01X19103Y4782D02*
G01X18105Y4782D01*
G01X18105Y5885D01*
G01X19103Y5885D01*
G01X19103Y4782D01*
G37*
G36*
G01X22395Y5770D02*
G01X22395Y4772D01*
G01X21292Y4772D01*
G01X21292Y5770D01*
G01X22395Y5770D01*
G37*
G36*
G01X22395Y4371D02*
G01X22395Y3373D01*
G01X21292Y3373D01*
G01X21292Y4371D01*
G01X22395Y4371D01*
G37*
G36*
G01X1087Y2075D02*
G01X2085Y2075D01*
G01X2085Y972D01*
G01X1087Y972D01*
G01X1087Y2075D01*
G37*
G36*
G01X2486Y2075D02*
G01X3484Y2075D01*
G01X3484Y972D01*
G01X2486Y972D01*
G01X2486Y2075D01*
G37*
G36*
G01X40596Y11247D02*
G01X40596Y12245D01*
G01X41699Y12245D01*
G01X41699Y11247D01*
G01X40596Y11247D01*
G37*
G36*
G01X40596Y12646D02*
G01X40596Y13644D01*
G01X41699Y13644D01*
G01X41699Y12646D01*
G01X40596Y12646D01*
G37*
G36*
G01X3119Y5377D02*
G01X4117Y5377D01*
G01X4117Y4274D01*
G01X3119Y4274D01*
G01X3119Y5377D01*
G37*
G36*
G01X4518Y5377D02*
G01X5516Y5377D01*
G01X5516Y4274D01*
G01X4518Y4274D01*
G01X4518Y5377D01*
G37*
G36*
G01X17315Y5770D02*
G01X17315Y4772D01*
G01X16212Y4772D01*
G01X16212Y5770D01*
G01X17315Y5770D01*
G37*
G36*
G01X17315Y4371D02*
G01X17315Y3373D01*
G01X16212Y3373D01*
G01X16212Y4371D01*
G01X17315Y4371D01*
G37*
G36*
G01X9977Y14775D02*
G01X10975Y14775D01*
G01X10975Y13672D01*
G01X9977Y13672D01*
G01X9977Y14775D01*
G37*
G36*
G01X11376Y14775D02*
G01X12374Y14775D01*
G01X12374Y13672D01*
G01X11376Y13672D01*
G01X11376Y14775D01*
G37*
G36*
G01X5631Y3484D02*
G01X5631Y2486D01*
G01X4528Y2486D01*
G01X4528Y3484D01*
G01X5631Y3484D01*
G37*
G36*
G01X5631Y2085D02*
G01X5631Y1087D01*
G01X4528Y1087D01*
G01X4528Y2085D01*
G01X5631Y2085D01*
G37*
G36*
G01X47315Y14267D02*
G01X48313Y14267D01*
G01X48313Y13164D01*
G01X47315Y13164D01*
G01X47315Y14267D01*
G37*
G36*
G01X48714Y14267D02*
G01X49712Y14267D01*
G01X49712Y13164D01*
G01X48714Y13164D01*
G01X48714Y14267D01*
G37*
G36*
G01X47315Y5885D02*
G01X48313Y5885D01*
G01X48313Y4782D01*
G01X47315Y4782D01*
G01X47315Y5885D01*
G37*
G36*
G01X48714Y5885D02*
G01X49712Y5885D01*
G01X49712Y4782D01*
G01X48714Y4782D01*
G01X48714Y5885D01*
G37*
G36*
G01X47315Y9949D02*
G01X48313Y9949D01*
G01X48313Y8846D01*
G01X47315Y8846D01*
G01X47315Y9949D01*
G37*
G36*
G01X48714Y9949D02*
G01X49712Y9949D01*
G01X49712Y8846D01*
G01X48714Y8846D01*
G01X48714Y9949D01*
G37*
G36*
G01X47315Y7917D02*
G01X48313Y7917D01*
G01X48313Y6814D01*
G01X47315Y6814D01*
G01X47315Y7917D01*
G37*
G36*
G01X48714Y7917D02*
G01X49712Y7917D01*
G01X49712Y6814D01*
G01X48714Y6814D01*
G01X48714Y7917D01*
G37*
G36*
G01X47315Y11980D02*
G01X48313Y11980D01*
G01X48313Y10877D01*
G01X47315Y10877D01*
G01X47315Y11980D01*
G37*
G36*
G01X48715Y11980D02*
G01X49713Y11980D01*
G01X49713Y10877D01*
G01X48715Y10877D01*
G01X48715Y11980D01*
G37*
G36*
G01X972Y2865D02*
G01X972Y3863D01*
G01X2075Y3863D01*
G01X2075Y2865D01*
G01X972Y2865D01*
G37*
G36*
G01X972Y4264D02*
G01X972Y5262D01*
G01X2075Y5262D01*
G01X2075Y4264D01*
G01X972Y4264D01*
G37*
G36*
G01X40850Y18613D02*
G01X40850Y19611D01*
G01X41953Y19611D01*
G01X41953Y18613D01*
G01X40850Y18613D01*
G37*
G36*
G01X40850Y20012D02*
G01X40850Y21010D01*
G01X41953Y21010D01*
G01X41953Y20012D01*
G01X40850Y20012D01*
G37*
G36*
G01X28237Y21010D02*
G01X28237Y20012D01*
G01X27134Y20012D01*
G01X27134Y21010D01*
G01X28237Y21010D01*
G37*
G36*
G01X28237Y19611D02*
G01X28237Y18613D01*
G01X27134Y18613D01*
G01X27134Y19611D01*
G01X28237Y19611D01*
G37*
G36*
G01X51023Y3286D02*
G01X51023Y1285D01*
G01X49324Y1285D01*
G01X49324Y3286D01*
G01X51023Y3286D01*
G37*
G36*
G01X42623Y3286D02*
G01X42623Y1285D01*
G01X40924Y1285D01*
G01X40924Y3286D01*
G01X42623Y3286D01*
G37*
G54D24*
G01X9687Y20064D03*
G01X13682Y20064D03*
G36*
G01X9832Y17988D02*
G01X10833Y17988D01*
G01X10833Y17439D01*
G01X9832Y17439D01*
G01X9832Y17988D01*
G37*
G36*
G01X9832Y17038D02*
G01X10833Y17038D01*
G01X10833Y16489D01*
G01X9832Y16489D01*
G01X9832Y17038D01*
G37*
G36*
G01X9832Y16088D02*
G01X10833Y16088D01*
G01X10833Y15539D01*
G01X9832Y15539D01*
G01X9832Y16088D01*
G37*
G36*
G01X12532Y16088D02*
G01X13533Y16088D01*
G01X13533Y15539D01*
G01X12532Y15539D01*
G01X12532Y16088D01*
G37*
G36*
G01X12532Y17988D02*
G01X13533Y17988D01*
G01X13533Y17439D01*
G01X12532Y17439D01*
G01X12532Y17988D01*
G37*
G36*
G01X12532Y17038D02*
G01X13533Y17038D01*
G01X13533Y16489D01*
G01X12532Y16489D01*
G01X12532Y17038D01*
G37*
G36*
G01X15328Y21066D02*
G01X16929Y21066D01*
G01X16929Y19065D01*
G01X15328Y19065D01*
G01X15328Y21066D01*
G37*
G36*
G01X18529Y21066D02*
G01X20129Y21066D01*
G01X20129Y19065D01*
G01X18529Y19065D01*
G01X18529Y21066D01*
G37*
G36*
G01X23835Y4643D02*
G01X23835Y5641D01*
G01X24935Y5641D01*
G01X24935Y4643D01*
G01X23835Y4643D01*
G37*
G36*
G01X23835Y6042D02*
G01X23835Y7043D01*
G01X24935Y7043D01*
G01X24935Y6042D01*
G01X23835Y6042D01*
G37*
G36*
G01X26205Y14914D02*
G01X26205Y13916D01*
G01X25102Y13916D01*
G01X25102Y14914D01*
G01X26205Y14914D01*
G37*
G36*
G01X26205Y13515D02*
G01X26205Y12517D01*
G01X25102Y12517D01*
G01X25102Y13515D01*
G01X26205Y13515D01*
G37*
G36*
G01X25217Y17566D02*
G01X26217Y17566D01*
G01X26217Y16466D01*
G01X25217Y16466D01*
G01X25217Y17566D01*
G37*
G36*
G01X26616Y17566D02*
G01X27617Y17566D01*
G01X27617Y16466D01*
G01X26616Y16466D01*
G01X26616Y17566D01*
G37*
G36*
G01X18105Y4107D02*
G01X19103Y4107D01*
G01X19103Y3004D01*
G01X18105Y3004D01*
G01X18105Y4107D01*
G37*
G36*
G01X19504Y4107D02*
G01X20502Y4107D01*
G01X20502Y3004D01*
G01X19504Y3004D01*
G01X19504Y4107D01*
G37*
G36*
G01X7183Y2075D02*
G01X8181Y2075D01*
G01X8181Y972D01*
G01X7183Y972D01*
G01X7183Y2075D01*
G37*
G36*
G01X8582Y2075D02*
G01X9580Y2075D01*
G01X9580Y972D01*
G01X8582Y972D01*
G01X8582Y2075D01*
G37*
G36*
G01X17315Y9326D02*
G01X17315Y8328D01*
G01X16212Y8328D01*
G01X16212Y9326D01*
G01X17315Y9326D01*
G37*
G36*
G01X17315Y7927D02*
G01X17315Y6929D01*
G01X16212Y6929D01*
G01X16212Y7927D01*
G01X17315Y7927D01*
G37*
G36*
G01X17201Y15198D02*
G01X16203Y15198D01*
G01X16203Y16298D01*
G01X17201Y16298D01*
G01X17201Y15198D01*
G37*
G36*
G01X15801Y15198D02*
G01X14801Y15198D01*
G01X14801Y16298D01*
G01X15801Y16298D01*
G01X15801Y15198D01*
G37*
G36*
G01X20071Y12212D02*
G01X20071Y13012D01*
G01X20568Y13012D01*
G01X20568Y12212D01*
G01X20071Y12212D01*
G37*
G36*
G01X20568Y14711D02*
G01X20568Y13911D01*
G01X20071Y13911D01*
G01X20071Y14711D01*
G01X20568Y14711D01*
G37*
G36*
G01X19298Y14711D02*
G01X19298Y13911D01*
G01X18801Y13911D01*
G01X18801Y14711D01*
G01X19298Y14711D01*
G37*
G36*
G01X18801Y12212D02*
G01X18801Y13012D01*
G01X19298Y13012D01*
G01X19298Y12212D01*
G01X18801Y12212D01*
G37*
G36*
G01X14066Y12816D02*
G01X13365Y12816D01*
G01X13365Y14066D01*
G01X14066Y14066D01*
G01X14066Y12816D01*
G37*
G36*
G01X15016Y10317D02*
G01X14315Y10317D01*
G01X14315Y11567D01*
G01X15016Y11567D01*
G01X15016Y10317D01*
G37*
G36*
G01X13116Y10317D02*
G01X12415Y10317D01*
G01X12415Y11567D01*
G01X13116Y11567D01*
G01X13116Y10317D01*
G37*
G36*
G01X19695Y10510D02*
G01X19695Y9809D01*
G01X18445Y9809D01*
G01X18445Y10510D01*
G01X19695Y10510D01*
G37*
G36*
G01X22194Y11460D02*
G01X22194Y10759D01*
G01X20944Y10759D01*
G01X20944Y11460D01*
G01X22194Y11460D01*
G37*
G36*
G01X22194Y9560D02*
G01X22194Y8859D01*
G01X20944Y8859D01*
G01X20944Y9560D01*
G01X22194Y9560D01*
G37*
G36*
G01X12517Y9695D02*
G01X13515Y9695D01*
G01X13515Y8592D01*
G01X12517Y8592D01*
G01X12517Y9695D01*
G37*
G36*
G01X13916Y9695D02*
G01X14914Y9695D01*
G01X14914Y8592D01*
G01X13916Y8592D01*
G01X13916Y9695D01*
G37*
G36*
G01X23832Y7945D02*
G01X23832Y8943D01*
G01X24935Y8943D01*
G01X24935Y7945D01*
G01X23832Y7945D01*
G37*
G36*
G01X23832Y9344D02*
G01X23832Y10342D01*
G01X24935Y10342D01*
G01X24935Y9344D01*
G01X23832Y9344D01*
G37*
G54D18*
G01X45658Y5334D03*
G01X44258Y5334D03*
G01X43495Y13208D03*
G01X44896Y13208D03*
M00*
M02*
