G04 Layer: BottomLayer*
G04 EasyEDA v6.2.38, 2019-08-31T09:11:45+02:00*
G04 e43a48f15e4b4d90815dc594cbdf787c,da1ed6c8b984424aa63d4157573fa6f0,10*
G04 Gerber Generator version 0.2*
G04 Scale: 100 percent, Rotated: No, Reflected: No *
G04 Dimensions in millimeters *
G04 leading zeros omitted , absolute positions ,3 integer and 3 decimal *
%FSLAX33Y33*%
%MOMM*%
G90*
G71D02*

%ADD10C,0.254000*%
%ADD15C,0.619760*%
%ADD30C,1.524000*%
%ADD32C,1.699997*%
%ADD33C,1.199998*%
%ADD34R,1.574800X1.574800*%
%ADD35C,1.499997*%
%ADD36C,1.299997*%

%LPD*%
G36*
G01X425Y21640D02*
G01X370Y21640D01*
G01X356Y21639D01*
G01X342Y21636D01*
G01X328Y21631D01*
G01X315Y21624D01*
G01X304Y21615D01*
G01X294Y21605D01*
G01X285Y21594D01*
G01X278Y21581D01*
G01X273Y21567D01*
G01X270Y21553D01*
G01X269Y21539D01*
G01X269Y370D01*
G01X270Y356D01*
G01X273Y342D01*
G01X278Y328D01*
G01X285Y315D01*
G01X294Y304D01*
G01X304Y294D01*
G01X315Y285D01*
G01X328Y278D01*
G01X342Y273D01*
G01X356Y270D01*
G01X370Y269D01*
G01X18509Y269D01*
G01X18523Y270D01*
G01X18537Y273D01*
G01X18551Y278D01*
G01X18563Y285D01*
G01X18575Y294D01*
G01X18585Y304D01*
G01X18594Y315D01*
G01X18601Y328D01*
G01X18606Y342D01*
G01X18609Y356D01*
G01X18610Y370D01*
G01X18609Y386D01*
G01X18605Y402D01*
G01X18599Y416D01*
G01X18591Y430D01*
G01X18581Y442D01*
G01X18569Y452D01*
G01X18546Y470D01*
G01X18524Y490D01*
G01X15833Y3182D01*
G01X15821Y3192D01*
G01X15808Y3200D01*
G01X15794Y3206D01*
G01X15681Y3245D01*
G01X15663Y3249D01*
G01X15629Y3256D01*
G01X15595Y3264D01*
G01X15561Y3274D01*
G01X15529Y3287D01*
G01X15497Y3302D01*
G01X15466Y3318D01*
G01X15436Y3336D01*
G01X15408Y3356D01*
G01X15380Y3378D01*
G01X15354Y3402D01*
G01X15330Y3427D01*
G01X15307Y3453D01*
G01X15286Y3481D01*
G01X15266Y3510D01*
G01X15249Y3541D01*
G01X15233Y3572D01*
G01X15220Y3604D01*
G01X15208Y3637D01*
G01X15198Y3671D01*
G01X15191Y3705D01*
G01X15185Y3740D01*
G01X15182Y3775D01*
G01X15181Y3810D01*
G01X15182Y3844D01*
G01X15185Y3878D01*
G01X15190Y3912D01*
G01X15198Y3945D01*
G01X15207Y3978D01*
G01X15218Y4010D01*
G01X15231Y4042D01*
G01X15246Y4073D01*
G01X15263Y4103D01*
G01X15281Y4131D01*
G01X15302Y4159D01*
G01X15324Y4185D01*
G01X15347Y4210D01*
G01X15372Y4233D01*
G01X15398Y4255D01*
G01X15426Y4276D01*
G01X15454Y4294D01*
G01X15484Y4311D01*
G01X15515Y4326D01*
G01X15547Y4339D01*
G01X15579Y4350D01*
G01X15612Y4359D01*
G01X15645Y4367D01*
G01X15679Y4372D01*
G01X15713Y4375D01*
G01X15748Y4376D01*
G01X15782Y4375D01*
G01X15817Y4372D01*
G01X15852Y4366D01*
G01X15886Y4359D01*
G01X15920Y4349D01*
G01X15953Y4337D01*
G01X15985Y4324D01*
G01X16016Y4308D01*
G01X16047Y4291D01*
G01X16076Y4271D01*
G01X16104Y4250D01*
G01X16130Y4227D01*
G01X16155Y4203D01*
G01X16179Y4177D01*
G01X16201Y4149D01*
G01X16221Y4121D01*
G01X16239Y4091D01*
G01X16255Y4060D01*
G01X16270Y4028D01*
G01X16283Y3996D01*
G01X16293Y3962D01*
G01X16301Y3928D01*
G01X16308Y3894D01*
G01X16312Y3876D01*
G01X16351Y3763D01*
G01X16357Y3749D01*
G01X16365Y3736D01*
G01X16375Y3724D01*
G01X18925Y1175D01*
G01X18937Y1164D01*
G01X18950Y1156D01*
G01X18965Y1150D01*
G01X18981Y1146D01*
G01X18996Y1145D01*
G01X30086Y1145D01*
G01X30100Y1146D01*
G01X30114Y1149D01*
G01X30128Y1154D01*
G01X30141Y1161D01*
G01X30152Y1170D01*
G01X30163Y1180D01*
G01X30171Y1192D01*
G01X30178Y1204D01*
G01X30183Y1218D01*
G01X30186Y1232D01*
G01X30187Y1247D01*
G01X30186Y1265D01*
G01X30181Y1283D01*
G01X30172Y1300D01*
G01X30161Y1321D01*
G01X30151Y1342D01*
G01X30144Y1365D01*
G01X30138Y1388D01*
G01X30135Y1411D01*
G01X30134Y1435D01*
G01X30134Y3136D01*
G01X30135Y3160D01*
G01X30138Y3183D01*
G01X30144Y3206D01*
G01X30151Y3229D01*
G01X30161Y3250D01*
G01X30172Y3271D01*
G01X30181Y3288D01*
G01X30186Y3306D01*
G01X30187Y3324D01*
G01X30186Y3339D01*
G01X30183Y3353D01*
G01X30178Y3367D01*
G01X30171Y3379D01*
G01X30163Y3391D01*
G01X30152Y3401D01*
G01X30141Y3410D01*
G01X30128Y3417D01*
G01X30114Y3422D01*
G01X30100Y3425D01*
G01X30086Y3426D01*
G01X28448Y3426D01*
G01X28417Y3427D01*
G01X28388Y3431D01*
G01X28358Y3437D01*
G01X28329Y3445D01*
G01X28301Y3455D01*
G01X28273Y3468D01*
G01X28247Y3482D01*
G01X28222Y3499D01*
G01X28198Y3518D01*
G01X28176Y3538D01*
G01X26906Y4808D01*
G01X26886Y4830D01*
G01X26867Y4854D01*
G01X26850Y4879D01*
G01X26836Y4905D01*
G01X26823Y4933D01*
G01X26813Y4961D01*
G01X26805Y4990D01*
G01X26799Y5020D01*
G01X26795Y5049D01*
G01X26794Y5080D01*
G01X26794Y6657D01*
G01X26793Y6672D01*
G01X26789Y6688D01*
G01X26783Y6703D01*
G01X26775Y6716D01*
G01X26764Y6728D01*
G01X24254Y9238D01*
G01X24242Y9249D01*
G01X24229Y9257D01*
G01X24214Y9263D01*
G01X24198Y9267D01*
G01X24183Y9268D01*
G01X11294Y9268D01*
G01X11279Y9267D01*
G01X11264Y9263D01*
G01X11249Y9258D01*
G01X11236Y9250D01*
G01X11224Y9240D01*
G01X11214Y9228D01*
G01X11205Y9216D01*
G01X11199Y9202D01*
G01X11186Y9170D01*
G01X11171Y9138D01*
G01X11155Y9108D01*
G01X11136Y9079D01*
G01X11116Y9051D01*
G01X11094Y9025D01*
G01X11070Y8999D01*
G01X11045Y8976D01*
G01X11019Y8953D01*
G01X10991Y8933D01*
G01X10963Y8914D01*
G01X10933Y8897D01*
G01X10902Y8882D01*
G01X10870Y8868D01*
G01X10837Y8857D01*
G01X10804Y8848D01*
G01X10770Y8840D01*
G01X10736Y8835D01*
G01X10702Y8832D01*
G01X10668Y8831D01*
G01X10633Y8832D01*
G01X10599Y8835D01*
G01X10565Y8840D01*
G01X10532Y8848D01*
G01X10499Y8857D01*
G01X10467Y8868D01*
G01X10435Y8881D01*
G01X10404Y8896D01*
G01X10374Y8913D01*
G01X10346Y8931D01*
G01X10318Y8952D01*
G01X10292Y8974D01*
G01X10267Y8997D01*
G01X10244Y9022D01*
G01X10222Y9048D01*
G01X10201Y9076D01*
G01X10183Y9104D01*
G01X10166Y9134D01*
G01X10151Y9165D01*
G01X10138Y9197D01*
G01X10127Y9229D01*
G01X10118Y9262D01*
G01X10110Y9295D01*
G01X10105Y9329D01*
G01X10102Y9363D01*
G01X10101Y9398D01*
G01X10102Y9433D01*
G01X10106Y9468D01*
G01X10111Y9504D01*
G01X10119Y9538D01*
G01X10129Y9572D01*
G01X10141Y9606D01*
G01X10155Y9638D01*
G01X10171Y9670D01*
G01X10189Y9701D01*
G01X10209Y9730D01*
G01X10231Y9758D01*
G01X10254Y9785D01*
G01X10279Y9810D01*
G01X10306Y9834D01*
G01X10334Y9855D01*
G01X10363Y9875D01*
G01X10394Y9893D01*
G01X10426Y9910D01*
G01X10458Y9924D01*
G01X10492Y9936D01*
G01X10506Y9942D01*
G01X10520Y9950D01*
G01X10532Y9961D01*
G01X10542Y9973D01*
G01X10551Y9986D01*
G01X10557Y10001D01*
G01X10560Y10017D01*
G01X10562Y10032D01*
G01X10560Y10048D01*
G01X10557Y10064D01*
G01X10551Y10079D01*
G01X10542Y10092D01*
G01X10532Y10104D01*
G01X10520Y10115D01*
G01X10506Y10123D01*
G01X10492Y10129D01*
G01X10458Y10141D01*
G01X10426Y10155D01*
G01X10394Y10172D01*
G01X10363Y10190D01*
G01X10334Y10210D01*
G01X10306Y10231D01*
G01X10279Y10255D01*
G01X10254Y10280D01*
G01X10231Y10307D01*
G01X10209Y10335D01*
G01X10189Y10364D01*
G01X10171Y10395D01*
G01X10155Y10427D01*
G01X10141Y10459D01*
G01X10129Y10493D01*
G01X10119Y10527D01*
G01X10111Y10561D01*
G01X10106Y10597D01*
G01X10102Y10632D01*
G01X10101Y10668D01*
G01X10102Y10702D01*
G01X10105Y10736D01*
G01X10110Y10770D01*
G01X10118Y10803D01*
G01X10127Y10836D01*
G01X10138Y10868D01*
G01X10151Y10900D01*
G01X10166Y10931D01*
G01X10183Y10961D01*
G01X10201Y10989D01*
G01X10222Y11017D01*
G01X10244Y11043D01*
G01X10267Y11068D01*
G01X10292Y11091D01*
G01X10318Y11113D01*
G01X10346Y11134D01*
G01X10374Y11152D01*
G01X10404Y11169D01*
G01X10435Y11184D01*
G01X10467Y11197D01*
G01X10499Y11208D01*
G01X10532Y11217D01*
G01X10565Y11225D01*
G01X10599Y11230D01*
G01X10633Y11233D01*
G01X10668Y11234D01*
G01X10702Y11233D01*
G01X10737Y11230D01*
G01X10772Y11224D01*
G01X10806Y11217D01*
G01X10840Y11207D01*
G01X10873Y11195D01*
G01X10905Y11182D01*
G01X10936Y11166D01*
G01X10967Y11149D01*
G01X10996Y11129D01*
G01X11024Y11108D01*
G01X11050Y11085D01*
G01X11075Y11061D01*
G01X11099Y11035D01*
G01X11121Y11007D01*
G01X11141Y10979D01*
G01X11159Y10949D01*
G01X11175Y10918D01*
G01X11190Y10886D01*
G01X11203Y10854D01*
G01X11213Y10820D01*
G01X11221Y10786D01*
G01X11228Y10752D01*
G01X11232Y10734D01*
G01X11271Y10621D01*
G01X11277Y10607D01*
G01X11285Y10594D01*
G01X11295Y10582D01*
G01X11305Y10573D01*
G01X11317Y10562D01*
G01X11330Y10554D01*
G01X11345Y10548D01*
G01X11361Y10544D01*
G01X11376Y10543D01*
G01X24638Y10543D01*
G01X24668Y10542D01*
G01X24697Y10538D01*
G01X24727Y10532D01*
G01X24756Y10524D01*
G01X24784Y10514D01*
G01X24812Y10501D01*
G01X24838Y10487D01*
G01X24863Y10470D01*
G01X24887Y10451D01*
G01X24909Y10431D01*
G01X27957Y7383D01*
G01X27977Y7361D01*
G01X27996Y7337D01*
G01X28013Y7312D01*
G01X28027Y7286D01*
G01X28040Y7258D01*
G01X28050Y7230D01*
G01X28058Y7201D01*
G01X28064Y7171D01*
G01X28068Y7142D01*
G01X28069Y7111D01*
G01X28069Y5534D01*
G01X28070Y5519D01*
G01X28074Y5503D01*
G01X28080Y5488D01*
G01X28088Y5475D01*
G01X28099Y5463D01*
G01X28931Y4630D01*
G01X28943Y4620D01*
G01X28957Y4612D01*
G01X28971Y4606D01*
G01X28987Y4602D01*
G01X29003Y4601D01*
G01X34142Y4601D01*
G01X34158Y4602D01*
G01X34173Y4605D01*
G01X34187Y4611D01*
G01X34201Y4619D01*
G01X34213Y4629D01*
G01X34223Y4640D01*
G01X34231Y4653D01*
G01X34238Y4667D01*
G01X34242Y4682D01*
G01X34250Y4717D01*
G01X34260Y4751D01*
G01X34272Y4784D01*
G01X34287Y4816D01*
G01X34303Y4848D01*
G01X34321Y4878D01*
G01X34341Y4907D01*
G01X34363Y4935D01*
G01X34387Y4961D01*
G01X34412Y4986D01*
G01X34438Y5009D01*
G01X34466Y5031D01*
G01X34496Y5051D01*
G01X34526Y5069D01*
G01X34558Y5085D01*
G01X34590Y5099D01*
G01X34624Y5111D01*
G01X34657Y5120D01*
G01X34692Y5128D01*
G01X34727Y5134D01*
G01X34762Y5137D01*
G01X34798Y5138D01*
G01X34832Y5137D01*
G01X34866Y5134D01*
G01X34900Y5129D01*
G01X34933Y5121D01*
G01X34966Y5112D01*
G01X34998Y5101D01*
G01X35030Y5088D01*
G01X35061Y5073D01*
G01X35091Y5056D01*
G01X35119Y5038D01*
G01X35147Y5017D01*
G01X35173Y4995D01*
G01X35198Y4972D01*
G01X35221Y4947D01*
G01X35243Y4921D01*
G01X35264Y4893D01*
G01X35282Y4865D01*
G01X35299Y4835D01*
G01X35314Y4804D01*
G01X35327Y4772D01*
G01X35338Y4740D01*
G01X35347Y4707D01*
G01X35355Y4674D01*
G01X35360Y4640D01*
G01X35363Y4606D01*
G01X35364Y4572D01*
G01X35363Y4535D01*
G01X35359Y4498D01*
G01X35353Y4462D01*
G01X35345Y4427D01*
G01X35335Y4392D01*
G01X35331Y4376D01*
G01X35329Y4359D01*
G01X35331Y4343D01*
G01X35335Y4327D01*
G01X35341Y4312D01*
G01X35350Y4298D01*
G01X35361Y4286D01*
G01X35373Y4276D01*
G01X35401Y4255D01*
G01X35427Y4234D01*
G01X35452Y4210D01*
G01X35475Y4185D01*
G01X35497Y4159D01*
G01X35518Y4131D01*
G01X35536Y4103D01*
G01X35553Y4073D01*
G01X35568Y4042D01*
G01X35581Y4010D01*
G01X35592Y3978D01*
G01X35601Y3945D01*
G01X35609Y3912D01*
G01X35614Y3878D01*
G01X35617Y3844D01*
G01X35618Y3810D01*
G01X35617Y3775D01*
G01X35614Y3741D01*
G01X35609Y3707D01*
G01X35601Y3674D01*
G01X35592Y3641D01*
G01X35581Y3609D01*
G01X35568Y3577D01*
G01X35553Y3546D01*
G01X35536Y3516D01*
G01X35518Y3488D01*
G01X35497Y3460D01*
G01X35475Y3434D01*
G01X35452Y3409D01*
G01X35427Y3386D01*
G01X35401Y3364D01*
G01X35373Y3343D01*
G01X35345Y3325D01*
G01X35315Y3308D01*
G01X35284Y3293D01*
G01X35252Y3280D01*
G01X35220Y3269D01*
G01X35187Y3260D01*
G01X35154Y3252D01*
G01X35120Y3247D01*
G01X35086Y3244D01*
G01X35052Y3243D01*
G01X35015Y3244D01*
G01X34980Y3248D01*
G01X34944Y3253D01*
G01X34909Y3261D01*
G01X34874Y3271D01*
G01X34840Y3284D01*
G01X34808Y3298D01*
G01X34775Y3315D01*
G01X34745Y3333D01*
G01X34715Y3354D01*
G01X34699Y3364D01*
G01X34592Y3416D01*
G01X34577Y3421D01*
G01X34562Y3425D01*
G01X34547Y3426D01*
G01X34398Y3426D01*
G01X34384Y3425D01*
G01X34370Y3422D01*
G01X34356Y3417D01*
G01X34343Y3410D01*
G01X34332Y3401D01*
G01X34321Y3391D01*
G01X34313Y3379D01*
G01X34306Y3367D01*
G01X34301Y3353D01*
G01X34298Y3339D01*
G01X34297Y3324D01*
G01X34298Y3309D01*
G01X34301Y3295D01*
G01X34306Y3281D01*
G01X34314Y3268D01*
G01X34323Y3256D01*
G01X34334Y3246D01*
G01X34346Y3237D01*
G01X34387Y3212D01*
G01X34426Y3185D01*
G01X34464Y3156D01*
G01X34501Y3126D01*
G01X34537Y3094D01*
G01X34571Y3061D01*
G01X34604Y3026D01*
G01X34635Y2990D01*
G01X34664Y2952D01*
G01X34692Y2914D01*
G01X34719Y2874D01*
G01X34743Y2833D01*
G01X34766Y2791D01*
G01X34787Y2748D01*
G01X34806Y2704D01*
G01X34823Y2660D01*
G01X34838Y2615D01*
G01X34851Y2569D01*
G01X34862Y2522D01*
G01X34872Y2475D01*
G01X34879Y2428D01*
G01X34884Y2381D01*
G01X34887Y2333D01*
G01X34888Y2285D01*
G01X34887Y2238D01*
G01X34884Y2190D01*
G01X34879Y2143D01*
G01X34872Y2096D01*
G01X34862Y2049D01*
G01X34851Y2002D01*
G01X34838Y1956D01*
G01X34823Y1911D01*
G01X34806Y1867D01*
G01X34787Y1823D01*
G01X34766Y1780D01*
G01X34743Y1738D01*
G01X34719Y1697D01*
G01X34692Y1657D01*
G01X34664Y1619D01*
G01X34635Y1581D01*
G01X34604Y1545D01*
G01X34571Y1510D01*
G01X34537Y1477D01*
G01X34501Y1445D01*
G01X34464Y1415D01*
G01X34426Y1386D01*
G01X34387Y1359D01*
G01X34346Y1334D01*
G01X34334Y1325D01*
G01X34323Y1315D01*
G01X34314Y1303D01*
G01X34306Y1290D01*
G01X34301Y1276D01*
G01X34298Y1262D01*
G01X34297Y1247D01*
G01X34298Y1232D01*
G01X34301Y1218D01*
G01X34306Y1204D01*
G01X34313Y1192D01*
G01X34321Y1180D01*
G01X34332Y1170D01*
G01X34343Y1161D01*
G01X34356Y1154D01*
G01X34370Y1149D01*
G01X34384Y1146D01*
G01X34398Y1145D01*
G01X35705Y1145D01*
G01X35719Y1146D01*
G01X35733Y1149D01*
G01X35747Y1154D01*
G01X35760Y1161D01*
G01X35771Y1170D01*
G01X35782Y1180D01*
G01X35790Y1192D01*
G01X35797Y1204D01*
G01X35802Y1218D01*
G01X35805Y1232D01*
G01X35806Y1247D01*
G01X35805Y1262D01*
G01X35802Y1276D01*
G01X35797Y1290D01*
G01X35789Y1303D01*
G01X35780Y1315D01*
G01X35769Y1325D01*
G01X35757Y1334D01*
G01X35716Y1359D01*
G01X35677Y1386D01*
G01X35639Y1415D01*
G01X35602Y1445D01*
G01X35566Y1477D01*
G01X35532Y1510D01*
G01X35499Y1545D01*
G01X35468Y1581D01*
G01X35439Y1619D01*
G01X35411Y1657D01*
G01X35384Y1697D01*
G01X35360Y1738D01*
G01X35337Y1780D01*
G01X35316Y1823D01*
G01X35297Y1867D01*
G01X35280Y1911D01*
G01X35265Y1956D01*
G01X35252Y2002D01*
G01X35241Y2049D01*
G01X35231Y2096D01*
G01X35224Y2143D01*
G01X35219Y2190D01*
G01X35216Y2238D01*
G01X35215Y2286D01*
G01X35216Y2334D01*
G01X35219Y2382D01*
G01X35224Y2430D01*
G01X35232Y2478D01*
G01X35241Y2525D01*
G01X35253Y2572D01*
G01X35266Y2618D01*
G01X35282Y2664D01*
G01X35299Y2709D01*
G01X35319Y2753D01*
G01X35340Y2796D01*
G01X35363Y2839D01*
G01X35388Y2880D01*
G01X35415Y2920D01*
G01X35444Y2959D01*
G01X35474Y2997D01*
G01X35506Y3033D01*
G01X35539Y3068D01*
G01X35574Y3101D01*
G01X35610Y3133D01*
G01X35648Y3163D01*
G01X35687Y3192D01*
G01X35727Y3219D01*
G01X35768Y3244D01*
G01X35811Y3267D01*
G01X35854Y3288D01*
G01X35898Y3308D01*
G01X35943Y3325D01*
G01X35989Y3341D01*
G01X36035Y3354D01*
G01X36082Y3366D01*
G01X36129Y3375D01*
G01X36177Y3383D01*
G01X36225Y3388D01*
G01X36273Y3391D01*
G01X36322Y3392D01*
G01X36370Y3391D01*
G01X36418Y3388D01*
G01X36466Y3383D01*
G01X36514Y3375D01*
G01X36561Y3366D01*
G01X36608Y3354D01*
G01X36654Y3341D01*
G01X36700Y3325D01*
G01X36745Y3308D01*
G01X36789Y3288D01*
G01X36832Y3267D01*
G01X36875Y3244D01*
G01X36916Y3219D01*
G01X36956Y3192D01*
G01X36995Y3163D01*
G01X37033Y3133D01*
G01X37069Y3101D01*
G01X37104Y3068D01*
G01X37137Y3033D01*
G01X37169Y2997D01*
G01X37199Y2959D01*
G01X37228Y2920D01*
G01X37255Y2880D01*
G01X37280Y2839D01*
G01X37303Y2796D01*
G01X37324Y2753D01*
G01X37344Y2709D01*
G01X37361Y2664D01*
G01X37377Y2618D01*
G01X37390Y2572D01*
G01X37402Y2525D01*
G01X37411Y2478D01*
G01X37419Y2430D01*
G01X37424Y2382D01*
G01X37427Y2334D01*
G01X37428Y2286D01*
G01X37427Y2238D01*
G01X37424Y2190D01*
G01X37419Y2143D01*
G01X37412Y2096D01*
G01X37402Y2049D01*
G01X37391Y2002D01*
G01X37378Y1956D01*
G01X37363Y1911D01*
G01X37346Y1867D01*
G01X37327Y1823D01*
G01X37306Y1780D01*
G01X37283Y1738D01*
G01X37259Y1697D01*
G01X37232Y1657D01*
G01X37204Y1619D01*
G01X37175Y1581D01*
G01X37144Y1545D01*
G01X37111Y1510D01*
G01X37077Y1477D01*
G01X37041Y1445D01*
G01X37004Y1415D01*
G01X36966Y1386D01*
G01X36927Y1359D01*
G01X36886Y1334D01*
G01X36874Y1325D01*
G01X36863Y1315D01*
G01X36854Y1303D01*
G01X36846Y1290D01*
G01X36841Y1276D01*
G01X36838Y1262D01*
G01X36837Y1247D01*
G01X36838Y1232D01*
G01X36841Y1218D01*
G01X36846Y1204D01*
G01X36853Y1192D01*
G01X36861Y1180D01*
G01X36872Y1170D01*
G01X36883Y1161D01*
G01X36896Y1154D01*
G01X36910Y1149D01*
G01X36924Y1146D01*
G01X36938Y1145D01*
G01X38245Y1145D01*
G01X38259Y1146D01*
G01X38273Y1149D01*
G01X38287Y1154D01*
G01X38300Y1161D01*
G01X38311Y1170D01*
G01X38322Y1180D01*
G01X38330Y1192D01*
G01X38337Y1204D01*
G01X38342Y1218D01*
G01X38345Y1232D01*
G01X38346Y1247D01*
G01X38345Y1262D01*
G01X38342Y1276D01*
G01X38337Y1290D01*
G01X38329Y1303D01*
G01X38320Y1315D01*
G01X38309Y1325D01*
G01X38297Y1334D01*
G01X38254Y1361D01*
G01X38212Y1390D01*
G01X38172Y1420D01*
G01X38133Y1453D01*
G01X38095Y1487D01*
G01X38060Y1523D01*
G01X38026Y1560D01*
G01X37993Y1599D01*
G01X37963Y1640D01*
G01X37934Y1682D01*
G01X37908Y1725D01*
G01X37883Y1769D01*
G01X37860Y1814D01*
G01X37840Y1860D01*
G01X38437Y1860D01*
G01X38437Y1247D01*
G01X38438Y1232D01*
G01X38441Y1218D01*
G01X38446Y1204D01*
G01X38453Y1192D01*
G01X38461Y1180D01*
G01X38472Y1170D01*
G01X38483Y1161D01*
G01X38496Y1154D01*
G01X38509Y1149D01*
G01X38524Y1146D01*
G01X38538Y1145D01*
G01X39185Y1145D01*
G01X39199Y1146D01*
G01X39214Y1149D01*
G01X39227Y1154D01*
G01X39240Y1161D01*
G01X39251Y1170D01*
G01X39262Y1180D01*
G01X39270Y1192D01*
G01X39277Y1204D01*
G01X39282Y1218D01*
G01X39285Y1232D01*
G01X39286Y1247D01*
G01X39286Y1860D01*
G01X39883Y1860D01*
G01X39863Y1814D01*
G01X39840Y1769D01*
G01X39815Y1725D01*
G01X39789Y1682D01*
G01X39760Y1640D01*
G01X39730Y1599D01*
G01X39697Y1560D01*
G01X39663Y1523D01*
G01X39628Y1487D01*
G01X39590Y1453D01*
G01X39551Y1420D01*
G01X39511Y1390D01*
G01X39469Y1361D01*
G01X39426Y1334D01*
G01X39414Y1325D01*
G01X39403Y1315D01*
G01X39394Y1303D01*
G01X39386Y1290D01*
G01X39381Y1276D01*
G01X39378Y1262D01*
G01X39377Y1247D01*
G01X39378Y1232D01*
G01X39381Y1218D01*
G01X39386Y1204D01*
G01X39393Y1192D01*
G01X39401Y1180D01*
G01X39412Y1170D01*
G01X39423Y1161D01*
G01X39436Y1154D01*
G01X39450Y1149D01*
G01X39464Y1146D01*
G01X39478Y1145D01*
G01X52024Y1145D01*
G01X52039Y1146D01*
G01X52053Y1149D01*
G01X52066Y1154D01*
G01X52079Y1161D01*
G01X52091Y1170D01*
G01X52101Y1180D01*
G01X52110Y1192D01*
G01X52117Y1204D01*
G01X52122Y1218D01*
G01X52125Y1232D01*
G01X52126Y1247D01*
G01X52125Y1261D01*
G01X52121Y1276D01*
G01X52116Y1290D01*
G01X52109Y1303D01*
G01X52100Y1314D01*
G01X52089Y1325D01*
G01X51729Y1624D01*
G01X51715Y1634D01*
G01X51699Y1642D01*
G01X51682Y1646D01*
G01X51664Y1648D01*
G01X48768Y1648D01*
G01X48737Y1649D01*
G01X48708Y1653D01*
G01X48678Y1659D01*
G01X48649Y1667D01*
G01X48621Y1677D01*
G01X48593Y1690D01*
G01X48567Y1704D01*
G01X48542Y1721D01*
G01X48518Y1740D01*
G01X48496Y1760D01*
G01X46313Y3944D01*
G01X46301Y3954D01*
G01X46288Y3962D01*
G01X46274Y3968D01*
G01X46161Y4007D01*
G01X46143Y4011D01*
G01X46110Y4018D01*
G01X46076Y4026D01*
G01X46043Y4036D01*
G01X46011Y4048D01*
G01X45980Y4062D01*
G01X45950Y4078D01*
G01X45920Y4096D01*
G01X45892Y4115D01*
G01X45865Y4136D01*
G01X45839Y4159D01*
G01X45815Y4183D01*
G01X45792Y4209D01*
G01X45771Y4236D01*
G01X45752Y4264D01*
G01X45734Y4294D01*
G01X45718Y4324D01*
G01X45704Y4355D01*
G01X45692Y4387D01*
G01X45682Y4420D01*
G01X45674Y4454D01*
G01X45667Y4487D01*
G01X45663Y4505D01*
G01X45624Y4618D01*
G01X45618Y4632D01*
G01X45610Y4645D01*
G01X45600Y4657D01*
G01X42146Y8110D01*
G01X42126Y8132D01*
G01X42107Y8156D01*
G01X42090Y8181D01*
G01X42076Y8207D01*
G01X42063Y8235D01*
G01X42053Y8263D01*
G01X42045Y8292D01*
G01X42039Y8322D01*
G01X42035Y8351D01*
G01X42034Y8382D01*
G01X42034Y14785D01*
G01X42033Y14800D01*
G01X42029Y14816D01*
G01X42023Y14831D01*
G01X42015Y14844D01*
G01X42004Y14856D01*
G01X40002Y16858D01*
G01X39990Y16869D01*
G01X39977Y16877D01*
G01X39962Y16883D01*
G01X39946Y16887D01*
G01X39931Y16888D01*
G01X24584Y16888D01*
G01X24569Y16887D01*
G01X24553Y16883D01*
G01X24538Y16877D01*
G01X24525Y16869D01*
G01X24513Y16858D01*
G01X20911Y13257D01*
G01X20901Y13244D01*
G01X20892Y13231D01*
G01X20886Y13216D01*
G01X20882Y13201D01*
G01X20881Y13185D01*
G01X20882Y13170D01*
G01X20885Y13156D01*
G01X20890Y13142D01*
G01X20897Y13130D01*
G01X20906Y13118D01*
G01X20916Y13108D01*
G01X20928Y13099D01*
G01X20941Y13092D01*
G01X20954Y13087D01*
G01X20968Y13084D01*
G01X20983Y13083D01*
G01X27685Y13083D01*
G01X27717Y13082D01*
G01X27748Y13078D01*
G01X27778Y13072D01*
G01X27808Y13063D01*
G01X27838Y13052D01*
G01X27866Y13038D01*
G01X27880Y13032D01*
G01X27895Y13028D01*
G01X27989Y13010D01*
G01X27997Y13009D01*
G01X28032Y13004D01*
G01X28066Y12998D01*
G01X28099Y12989D01*
G01X28132Y12978D01*
G01X28164Y12965D01*
G01X28196Y12951D01*
G01X28226Y12934D01*
G01X28255Y12916D01*
G01X28284Y12895D01*
G01X28310Y12874D01*
G01X28336Y12850D01*
G01X28360Y12825D01*
G01X28382Y12799D01*
G01X28403Y12771D01*
G01X28422Y12742D01*
G01X28439Y12712D01*
G01X28455Y12681D01*
G01X28468Y12649D01*
G01X28480Y12616D01*
G01X28489Y12583D01*
G01X28496Y12549D01*
G01X28502Y12515D01*
G01X28505Y12480D01*
G01X28506Y12446D01*
G01X28506Y12426D01*
G01X28507Y12412D01*
G01X28510Y12398D01*
G01X28515Y12384D01*
G01X28522Y12372D01*
G01X28530Y12360D01*
G01X28541Y12350D01*
G01X28552Y12341D01*
G01X28565Y12334D01*
G01X28579Y12329D01*
G01X28593Y12326D01*
G01X28607Y12325D01*
G01X28623Y12326D01*
G01X28639Y12330D01*
G01X28653Y12336D01*
G01X28667Y12344D01*
G01X28679Y12355D01*
G01X30228Y13903D01*
G01X30238Y13915D01*
G01X30246Y13928D01*
G01X30252Y13942D01*
G01X30291Y14055D01*
G01X30295Y14073D01*
G01X30301Y14104D01*
G01X30303Y14124D01*
G01X30302Y14139D01*
G01X30299Y14153D01*
G01X30294Y14166D01*
G01X30287Y14179D01*
G01X30278Y14191D01*
G01X30268Y14201D01*
G01X30256Y14210D01*
G01X30244Y14217D01*
G01X30213Y14232D01*
G01X30183Y14249D01*
G01X30154Y14268D01*
G01X30127Y14288D01*
G01X30101Y14310D01*
G01X30076Y14334D01*
G01X30053Y14359D01*
G01X30031Y14386D01*
G01X30011Y14414D01*
G01X29992Y14443D01*
G01X29976Y14473D01*
G01X29961Y14504D01*
G01X29948Y14536D01*
G01X29942Y14550D01*
G01X29933Y14562D01*
G01X29923Y14574D01*
G01X29911Y14584D01*
G01X29898Y14592D01*
G01X29883Y14597D01*
G01X29868Y14601D01*
G01X29853Y14602D01*
G01X24634Y14602D01*
G01X24619Y14601D01*
G01X24604Y14597D01*
G01X24589Y14592D01*
G01X24482Y14540D01*
G01X24466Y14530D01*
G01X24436Y14509D01*
G01X24406Y14491D01*
G01X24373Y14474D01*
G01X24341Y14460D01*
G01X24307Y14447D01*
G01X24272Y14437D01*
G01X24237Y14429D01*
G01X24201Y14424D01*
G01X24166Y14420D01*
G01X24130Y14419D01*
G01X24095Y14420D01*
G01X24061Y14423D01*
G01X24027Y14428D01*
G01X23994Y14436D01*
G01X23961Y14445D01*
G01X23929Y14456D01*
G01X23897Y14469D01*
G01X23866Y14484D01*
G01X23836Y14501D01*
G01X23808Y14519D01*
G01X23780Y14540D01*
G01X23754Y14562D01*
G01X23729Y14585D01*
G01X23706Y14610D01*
G01X23684Y14636D01*
G01X23663Y14664D01*
G01X23645Y14692D01*
G01X23628Y14722D01*
G01X23613Y14753D01*
G01X23600Y14785D01*
G01X23589Y14817D01*
G01X23580Y14850D01*
G01X23572Y14883D01*
G01X23567Y14917D01*
G01X23564Y14951D01*
G01X23563Y14986D01*
G01X23564Y15020D01*
G01X23567Y15054D01*
G01X23572Y15088D01*
G01X23580Y15121D01*
G01X23589Y15154D01*
G01X23600Y15186D01*
G01X23613Y15218D01*
G01X23628Y15249D01*
G01X23645Y15279D01*
G01X23663Y15307D01*
G01X23684Y15335D01*
G01X23706Y15361D01*
G01X23729Y15386D01*
G01X23754Y15409D01*
G01X23780Y15431D01*
G01X23808Y15452D01*
G01X23836Y15470D01*
G01X23866Y15487D01*
G01X23897Y15502D01*
G01X23929Y15515D01*
G01X23961Y15526D01*
G01X23994Y15535D01*
G01X24027Y15543D01*
G01X24061Y15548D01*
G01X24095Y15551D01*
G01X24130Y15552D01*
G01X24166Y15551D01*
G01X24201Y15547D01*
G01X24237Y15542D01*
G01X24272Y15534D01*
G01X24307Y15524D01*
G01X24341Y15511D01*
G01X24373Y15497D01*
G01X24406Y15480D01*
G01X24436Y15462D01*
G01X24466Y15441D01*
G01X24482Y15431D01*
G01X24589Y15379D01*
G01X24604Y15374D01*
G01X24619Y15370D01*
G01X24634Y15369D01*
G01X30226Y15369D01*
G01X30257Y15368D01*
G01X30288Y15364D01*
G01X30318Y15358D01*
G01X30348Y15349D01*
G01X30378Y15338D01*
G01X30406Y15324D01*
G01X30420Y15318D01*
G01X30435Y15314D01*
G01X30529Y15296D01*
G01X30537Y15295D01*
G01X30572Y15290D01*
G01X30606Y15284D01*
G01X30639Y15275D01*
G01X30672Y15264D01*
G01X30704Y15251D01*
G01X30736Y15237D01*
G01X30766Y15220D01*
G01X30795Y15202D01*
G01X30824Y15181D01*
G01X30850Y15160D01*
G01X30876Y15136D01*
G01X30900Y15111D01*
G01X30922Y15085D01*
G01X30943Y15057D01*
G01X30962Y15028D01*
G01X30979Y14998D01*
G01X30995Y14967D01*
G01X31008Y14935D01*
G01X31020Y14902D01*
G01X31029Y14869D01*
G01X31036Y14835D01*
G01X31042Y14801D01*
G01X31045Y14766D01*
G01X31046Y14732D01*
G01X31045Y14693D01*
G01X31041Y14655D01*
G01X31034Y14617D01*
G01X31032Y14596D01*
G01X31033Y14581D01*
G01X31036Y14567D01*
G01X31041Y14554D01*
G01X31048Y14541D01*
G01X31057Y14529D01*
G01X31067Y14519D01*
G01X31079Y14510D01*
G01X31091Y14504D01*
G01X31122Y14488D01*
G01X31151Y14472D01*
G01X31180Y14453D01*
G01X31207Y14433D01*
G01X31233Y14411D01*
G01X31258Y14387D01*
G01X31281Y14362D01*
G01X31303Y14336D01*
G01X31323Y14309D01*
G01X31341Y14280D01*
G01X31358Y14250D01*
G01X31373Y14220D01*
G01X31385Y14188D01*
G01X31396Y14156D01*
G01X31406Y14123D01*
G01X31413Y14090D01*
G01X31418Y14056D01*
G01X31421Y14023D01*
G01X31422Y13989D01*
G01X31421Y13954D01*
G01X31418Y13919D01*
G01X31412Y13884D01*
G01X31405Y13850D01*
G01X31395Y13816D01*
G01X31383Y13783D01*
G01X31370Y13751D01*
G01X31354Y13720D01*
G01X31336Y13689D01*
G01X31317Y13660D01*
G01X31296Y13632D01*
G01X31273Y13606D01*
G01X31249Y13581D01*
G01X31223Y13557D01*
G01X31195Y13535D01*
G01X31167Y13515D01*
G01X31137Y13497D01*
G01X31106Y13481D01*
G01X31074Y13466D01*
G01X31041Y13454D01*
G01X31008Y13443D01*
G01X30974Y13435D01*
G01X30940Y13428D01*
G01X30922Y13424D01*
G01X30809Y13385D01*
G01X30795Y13379D01*
G01X30782Y13371D01*
G01X30770Y13361D01*
G01X28568Y11158D01*
G01X28545Y11138D01*
G01X28522Y11119D01*
G01X28497Y11102D01*
G01X28470Y11088D01*
G01X28443Y11075D01*
G01X28415Y11065D01*
G01X28386Y11057D01*
G01X28356Y11051D01*
G01X28326Y11047D01*
G01X28296Y11046D01*
G01X23872Y11046D01*
G01X23857Y11045D01*
G01X23842Y11041D01*
G01X23827Y11036D01*
G01X23720Y10984D01*
G01X23704Y10974D01*
G01X23674Y10953D01*
G01X23644Y10935D01*
G01X23611Y10918D01*
G01X23579Y10904D01*
G01X23545Y10891D01*
G01X23510Y10881D01*
G01X23475Y10873D01*
G01X23439Y10868D01*
G01X23404Y10864D01*
G01X23368Y10863D01*
G01X23333Y10864D01*
G01X23299Y10867D01*
G01X23265Y10872D01*
G01X23232Y10880D01*
G01X23199Y10889D01*
G01X23167Y10900D01*
G01X23135Y10913D01*
G01X23104Y10928D01*
G01X23074Y10945D01*
G01X23046Y10963D01*
G01X23018Y10984D01*
G01X22992Y11006D01*
G01X22967Y11029D01*
G01X22944Y11054D01*
G01X22922Y11080D01*
G01X22901Y11108D01*
G01X22883Y11136D01*
G01X22866Y11166D01*
G01X22851Y11197D01*
G01X22838Y11229D01*
G01X22827Y11261D01*
G01X22818Y11294D01*
G01X22810Y11327D01*
G01X22805Y11361D01*
G01X22802Y11395D01*
G01X22801Y11430D01*
G01X22802Y11464D01*
G01X22805Y11498D01*
G01X22810Y11532D01*
G01X22818Y11565D01*
G01X22827Y11598D01*
G01X22838Y11630D01*
G01X22851Y11662D01*
G01X22866Y11693D01*
G01X22883Y11723D01*
G01X22901Y11751D01*
G01X22922Y11779D01*
G01X22944Y11805D01*
G01X22967Y11830D01*
G01X22992Y11853D01*
G01X23018Y11875D01*
G01X23046Y11896D01*
G01X23074Y11914D01*
G01X23104Y11931D01*
G01X23135Y11946D01*
G01X23167Y11959D01*
G01X23199Y11970D01*
G01X23232Y11979D01*
G01X23265Y11987D01*
G01X23299Y11992D01*
G01X23333Y11995D01*
G01X23368Y11996D01*
G01X23404Y11995D01*
G01X23439Y11991D01*
G01X23475Y11986D01*
G01X23510Y11978D01*
G01X23545Y11968D01*
G01X23579Y11955D01*
G01X23611Y11941D01*
G01X23644Y11924D01*
G01X23674Y11906D01*
G01X23704Y11885D01*
G01X23720Y11875D01*
G01X23827Y11823D01*
G01X23842Y11818D01*
G01X23857Y11814D01*
G01X23872Y11813D01*
G01X27534Y11813D01*
G01X27548Y11814D01*
G01X27563Y11817D01*
G01X27576Y11822D01*
G01X27589Y11829D01*
G01X27601Y11838D01*
G01X27611Y11848D01*
G01X27619Y11860D01*
G01X27626Y11872D01*
G01X27631Y11886D01*
G01X27635Y11900D01*
G01X27636Y11915D01*
G01X27634Y11930D01*
G01X27631Y11945D01*
G01X27625Y11960D01*
G01X27617Y11973D01*
G01X27607Y11985D01*
G01X27596Y11995D01*
G01X27568Y12018D01*
G01X27542Y12042D01*
G01X27517Y12068D01*
G01X27495Y12095D01*
G01X27473Y12124D01*
G01X27454Y12153D01*
G01X27437Y12185D01*
G01X27421Y12217D01*
G01X27408Y12250D01*
G01X27402Y12264D01*
G01X27393Y12276D01*
G01X27383Y12288D01*
G01X27371Y12298D01*
G01X27358Y12306D01*
G01X27343Y12311D01*
G01X27328Y12315D01*
G01X27313Y12316D01*
G01X8613Y12316D01*
G01X8598Y12315D01*
G01X8584Y12312D01*
G01X8570Y12307D01*
G01X8558Y12300D01*
G01X8546Y12291D01*
G01X8536Y12281D01*
G01X8527Y12269D01*
G01X8520Y12257D01*
G01X8515Y12243D01*
G01X8512Y12229D01*
G01X8511Y12214D01*
G01X8511Y9090D01*
G01X8512Y9075D01*
G01X8516Y9059D01*
G01X8522Y9044D01*
G01X8530Y9031D01*
G01X8541Y9019D01*
G01X9566Y7993D01*
G01X9578Y7983D01*
G01X9591Y7975D01*
G01X9605Y7969D01*
G01X9718Y7930D01*
G01X9736Y7926D01*
G01X9770Y7919D01*
G01X9804Y7911D01*
G01X9838Y7901D01*
G01X9870Y7888D01*
G01X9902Y7873D01*
G01X9933Y7857D01*
G01X9963Y7839D01*
G01X9991Y7819D01*
G01X10019Y7797D01*
G01X10045Y7773D01*
G01X10069Y7748D01*
G01X10092Y7722D01*
G01X10113Y7694D01*
G01X10133Y7665D01*
G01X10150Y7634D01*
G01X10166Y7603D01*
G01X10179Y7571D01*
G01X10191Y7538D01*
G01X10201Y7504D01*
G01X10208Y7470D01*
G01X10214Y7435D01*
G01X10217Y7400D01*
G01X10218Y7365D01*
G01X10217Y7331D01*
G01X10214Y7297D01*
G01X10209Y7263D01*
G01X10201Y7230D01*
G01X10192Y7197D01*
G01X10181Y7165D01*
G01X10168Y7133D01*
G01X10153Y7102D01*
G01X10136Y7072D01*
G01X10118Y7044D01*
G01X10097Y7016D01*
G01X10075Y6990D01*
G01X10052Y6965D01*
G01X10027Y6942D01*
G01X10001Y6920D01*
G01X9973Y6899D01*
G01X9945Y6881D01*
G01X9915Y6864D01*
G01X9884Y6849D01*
G01X9852Y6836D01*
G01X9820Y6825D01*
G01X9787Y6816D01*
G01X9754Y6808D01*
G01X9720Y6803D01*
G01X9686Y6800D01*
G01X9652Y6799D01*
G01X9617Y6800D01*
G01X9582Y6803D01*
G01X9547Y6809D01*
G01X9513Y6816D01*
G01X9479Y6826D01*
G01X9446Y6838D01*
G01X9414Y6851D01*
G01X9383Y6867D01*
G01X9352Y6884D01*
G01X9323Y6904D01*
G01X9295Y6925D01*
G01X9269Y6948D01*
G01X9244Y6972D01*
G01X9220Y6998D01*
G01X9198Y7026D01*
G01X9178Y7054D01*
G01X9160Y7084D01*
G01X9144Y7115D01*
G01X9129Y7147D01*
G01X9116Y7179D01*
G01X9106Y7213D01*
G01X9098Y7247D01*
G01X9091Y7281D01*
G01X9087Y7299D01*
G01X9048Y7412D01*
G01X9042Y7426D01*
G01X9034Y7439D01*
G01X9024Y7451D01*
G01X8176Y8298D01*
G01X8164Y8308D01*
G01X8151Y8317D01*
G01X8136Y8323D01*
G01X8121Y8327D01*
G01X8105Y8328D01*
G01X8090Y8327D01*
G01X8076Y8324D01*
G01X8062Y8319D01*
G01X8050Y8312D01*
G01X8038Y8303D01*
G01X8028Y8293D01*
G01X8019Y8281D01*
G01X8012Y8268D01*
G01X8007Y8255D01*
G01X8004Y8241D01*
G01X8003Y8226D01*
G01X8003Y3555D01*
G01X8002Y3525D01*
G01X7998Y3496D01*
G01X7992Y3466D01*
G01X7984Y3437D01*
G01X7974Y3409D01*
G01X7961Y3381D01*
G01X7947Y3355D01*
G01X7930Y3330D01*
G01X7911Y3306D01*
G01X7891Y3284D01*
G01X7129Y2522D01*
G01X7107Y2502D01*
G01X7083Y2483D01*
G01X7058Y2466D01*
G01X7032Y2452D01*
G01X7004Y2439D01*
G01X6976Y2429D01*
G01X6947Y2421D01*
G01X6917Y2415D01*
G01X6888Y2411D01*
G01X6858Y2410D01*
G01X6600Y2410D01*
G01X6585Y2409D01*
G01X6570Y2405D01*
G01X6555Y2400D01*
G01X6448Y2348D01*
G01X6432Y2338D01*
G01X6402Y2317D01*
G01X6371Y2298D01*
G01X6338Y2282D01*
G01X6305Y2267D01*
G01X6270Y2255D01*
G01X6256Y2249D01*
G01X6242Y2240D01*
G01X6230Y2230D01*
G01X6219Y2218D01*
G01X6211Y2204D01*
G01X6205Y2189D01*
G01X6201Y2174D01*
G01X6200Y2158D01*
G01X6201Y2142D01*
G01X6205Y2127D01*
G01X6211Y2112D01*
G01X6220Y2098D01*
G01X6230Y2086D01*
G01X6242Y2076D01*
G01X6256Y2067D01*
G01X6271Y2061D01*
G01X6306Y2049D01*
G01X6340Y2034D01*
G01X6373Y2017D01*
G01X6405Y1998D01*
G01X6435Y1977D01*
G01X6451Y1967D01*
G01X6558Y1915D01*
G01X6572Y1909D01*
G01X6587Y1906D01*
G01X6603Y1905D01*
G01X9194Y1905D01*
G01X9210Y1906D01*
G01X9225Y1909D01*
G01X9240Y1916D01*
G01X9254Y1924D01*
G01X9266Y1934D01*
G01X10396Y3065D01*
G01X10508Y3177D01*
G01X10519Y3189D01*
G01X10527Y3202D01*
G01X10533Y3217D01*
G01X10537Y3233D01*
G01X10538Y3248D01*
G01X10538Y5588D01*
G01X10539Y5618D01*
G01X10543Y5647D01*
G01X10549Y5677D01*
G01X10557Y5706D01*
G01X10567Y5734D01*
G01X10580Y5762D01*
G01X10594Y5788D01*
G01X10611Y5813D01*
G01X10630Y5837D01*
G01X10650Y5859D01*
G01X11412Y6621D01*
G01X11434Y6641D01*
G01X11458Y6660D01*
G01X11483Y6677D01*
G01X11509Y6691D01*
G01X11537Y6704D01*
G01X11565Y6714D01*
G01X11594Y6722D01*
G01X11624Y6728D01*
G01X11653Y6732D01*
G01X11683Y6733D01*
G01X25403Y6733D01*
G01X25418Y6734D01*
G01X25433Y6738D01*
G01X25448Y6743D01*
G01X25555Y6795D01*
G01X25571Y6805D01*
G01X25601Y6826D01*
G01X25631Y6844D01*
G01X25664Y6861D01*
G01X25696Y6875D01*
G01X25730Y6888D01*
G01X25765Y6898D01*
G01X25800Y6906D01*
G01X25836Y6911D01*
G01X25871Y6915D01*
G01X25908Y6916D01*
G01X25942Y6915D01*
G01X25976Y6912D01*
G01X26010Y6907D01*
G01X26043Y6899D01*
G01X26076Y6890D01*
G01X26108Y6879D01*
G01X26140Y6866D01*
G01X26171Y6851D01*
G01X26201Y6834D01*
G01X26229Y6816D01*
G01X26257Y6795D01*
G01X26283Y6773D01*
G01X26308Y6750D01*
G01X26331Y6725D01*
G01X26353Y6699D01*
G01X26374Y6671D01*
G01X26392Y6643D01*
G01X26409Y6613D01*
G01X26424Y6582D01*
G01X26437Y6550D01*
G01X26448Y6518D01*
G01X26457Y6485D01*
G01X26465Y6452D01*
G01X26470Y6418D01*
G01X26473Y6384D01*
G01X26474Y6350D01*
G01X26473Y6315D01*
G01X26470Y6281D01*
G01X26465Y6247D01*
G01X26457Y6214D01*
G01X26448Y6181D01*
G01X26437Y6149D01*
G01X26424Y6117D01*
G01X26409Y6086D01*
G01X26392Y6056D01*
G01X26374Y6028D01*
G01X26353Y6000D01*
G01X26331Y5974D01*
G01X26308Y5949D01*
G01X26283Y5926D01*
G01X26257Y5904D01*
G01X26229Y5883D01*
G01X26201Y5865D01*
G01X26171Y5848D01*
G01X26140Y5833D01*
G01X26108Y5820D01*
G01X26076Y5809D01*
G01X26043Y5800D01*
G01X26010Y5792D01*
G01X25976Y5787D01*
G01X25942Y5784D01*
G01X25908Y5783D01*
G01X25871Y5784D01*
G01X25836Y5788D01*
G01X25800Y5793D01*
G01X25765Y5801D01*
G01X25730Y5811D01*
G01X25696Y5824D01*
G01X25664Y5838D01*
G01X25631Y5855D01*
G01X25601Y5873D01*
G01X25571Y5894D01*
G01X25555Y5904D01*
G01X25448Y5956D01*
G01X25433Y5961D01*
G01X25418Y5965D01*
G01X25403Y5966D01*
G01X11884Y5966D01*
G01X11869Y5965D01*
G01X11853Y5961D01*
G01X11838Y5955D01*
G01X11825Y5947D01*
G01X11813Y5936D01*
G01X11335Y5458D01*
G01X11324Y5446D01*
G01X11316Y5433D01*
G01X11310Y5418D01*
G01X11306Y5402D01*
G01X11305Y5387D01*
G01X11305Y3047D01*
G01X11304Y3017D01*
G01X11300Y2988D01*
G01X11294Y2958D01*
G01X11286Y2929D01*
G01X11276Y2901D01*
G01X11263Y2873D01*
G01X11249Y2847D01*
G01X11232Y2822D01*
G01X11213Y2798D01*
G01X11193Y2776D01*
G01X10939Y2522D01*
G01X9666Y1250D01*
G01X9644Y1229D01*
G01X9620Y1211D01*
G01X9595Y1194D01*
G01X9569Y1179D01*
G01X9542Y1167D01*
G01X9513Y1156D01*
G01X9484Y1148D01*
G01X9455Y1142D01*
G01X9425Y1139D01*
G01X9395Y1137D01*
G01X6601Y1137D01*
G01X6586Y1136D01*
G01X6571Y1133D01*
G01X6557Y1127D01*
G01X6449Y1075D01*
G01X6433Y1065D01*
G01X6403Y1045D01*
G01X6373Y1027D01*
G01X6341Y1010D01*
G01X6308Y996D01*
G01X6274Y984D01*
G01X6240Y974D01*
G01X6205Y966D01*
G01X6169Y960D01*
G01X6133Y957D01*
G01X6098Y956D01*
G01X6063Y957D01*
G01X6029Y960D01*
G01X5995Y965D01*
G01X5962Y972D01*
G01X5929Y981D01*
G01X5897Y992D01*
G01X5865Y1005D01*
G01X5834Y1020D01*
G01X5805Y1037D01*
G01X5776Y1056D01*
G01X5748Y1076D01*
G01X5722Y1098D01*
G01X5697Y1121D01*
G01X5674Y1146D01*
G01X5652Y1173D01*
G01X5631Y1200D01*
G01X5613Y1229D01*
G01X5596Y1259D01*
G01X5581Y1290D01*
G01X5568Y1321D01*
G01X5557Y1353D01*
G01X5548Y1386D01*
G01X5540Y1420D01*
G01X5535Y1454D01*
G01X5532Y1488D01*
G01X5531Y1522D01*
G01X5532Y1558D01*
G01X5536Y1593D01*
G01X5541Y1628D01*
G01X5549Y1663D01*
G01X5559Y1697D01*
G01X5571Y1731D01*
G01X5585Y1763D01*
G01X5601Y1795D01*
G01X5619Y1826D01*
G01X5639Y1855D01*
G01X5661Y1883D01*
G01X5685Y1910D01*
G01X5710Y1935D01*
G01X5737Y1959D01*
G01X5765Y1980D01*
G01X5794Y2000D01*
G01X5825Y2018D01*
G01X5857Y2035D01*
G01X5889Y2049D01*
G01X5923Y2061D01*
G01X5938Y2067D01*
G01X5951Y2075D01*
G01X5963Y2086D01*
G01X5974Y2098D01*
G01X5982Y2111D01*
G01X5988Y2126D01*
G01X5992Y2142D01*
G01X5993Y2157D01*
G01X5992Y2173D01*
G01X5988Y2189D01*
G01X5982Y2204D01*
G01X5974Y2217D01*
G01X5963Y2229D01*
G01X5951Y2240D01*
G01X5937Y2248D01*
G01X5922Y2254D01*
G01X5890Y2266D01*
G01X5859Y2279D01*
G01X5829Y2294D01*
G01X5799Y2311D01*
G01X5771Y2329D01*
G01X5744Y2350D01*
G01X5718Y2372D01*
G01X5693Y2395D01*
G01X5670Y2420D01*
G01X5648Y2446D01*
G01X5628Y2474D01*
G01X5610Y2502D01*
G01X5593Y2532D01*
G01X5578Y2562D01*
G01X5565Y2594D01*
G01X5554Y2626D01*
G01X5545Y2659D01*
G01X5538Y2692D01*
G01X5533Y2726D01*
G01X5530Y2760D01*
G01X5529Y2793D01*
G01X5530Y2828D01*
G01X5533Y2862D01*
G01X5538Y2896D01*
G01X5546Y2930D01*
G01X5555Y2963D01*
G01X5566Y2996D01*
G01X5580Y3027D01*
G01X5595Y3058D01*
G01X5612Y3088D01*
G01X5631Y3117D01*
G01X5651Y3145D01*
G01X5673Y3171D01*
G01X5697Y3196D01*
G01X5722Y3220D01*
G01X5749Y3241D01*
G01X5777Y3262D01*
G01X5806Y3280D01*
G01X5836Y3297D01*
G01X5867Y3312D01*
G01X5899Y3325D01*
G01X5931Y3336D01*
G01X5965Y3345D01*
G01X5998Y3352D01*
G01X6033Y3356D01*
G01X6067Y3359D01*
G01X6082Y3361D01*
G01X6097Y3365D01*
G01X6111Y3372D01*
G01X6124Y3380D01*
G01X6135Y3391D01*
G01X6145Y3403D01*
G01X6153Y3416D01*
G01X6159Y3430D01*
G01X6162Y3445D01*
G01X6163Y3461D01*
G01X6162Y3477D01*
G01X6158Y3493D01*
G01X6152Y3508D01*
G01X6143Y3522D01*
G01X6132Y3534D01*
G01X6120Y3544D01*
G01X6105Y3552D01*
G01X6074Y3569D01*
G01X6044Y3587D01*
G01X6014Y3607D01*
G01X5987Y3629D01*
G01X5960Y3652D01*
G01X5935Y3677D01*
G01X5912Y3704D01*
G01X5890Y3732D01*
G01X5870Y3761D01*
G01X5852Y3792D01*
G01X5836Y3823D01*
G01X5822Y3856D01*
G01X5811Y3889D01*
G01X5801Y3923D01*
G01X5793Y3958D01*
G01X5788Y3993D01*
G01X5784Y4028D01*
G01X5783Y4064D01*
G01X5784Y4100D01*
G01X5788Y4135D01*
G01X5793Y4171D01*
G01X5801Y4206D01*
G01X5811Y4241D01*
G01X5824Y4275D01*
G01X5838Y4307D01*
G01X5855Y4340D01*
G01X5873Y4370D01*
G01X5894Y4400D01*
G01X5904Y4416D01*
G01X5956Y4523D01*
G01X5961Y4538D01*
G01X5965Y4553D01*
G01X5966Y4568D01*
G01X5966Y13716D01*
G01X5967Y13746D01*
G01X5971Y13776D01*
G01X5977Y13805D01*
G01X5985Y13834D01*
G01X5995Y13862D01*
G01X6008Y13890D01*
G01X6022Y13916D01*
G01X6039Y13941D01*
G01X6058Y13965D01*
G01X6078Y13987D01*
G01X6586Y14495D01*
G01X6608Y14515D01*
G01X6632Y14534D01*
G01X6657Y14551D01*
G01X6683Y14565D01*
G01X6711Y14578D01*
G01X6739Y14588D01*
G01X6768Y14596D01*
G01X6797Y14602D01*
G01X6827Y14606D01*
G01X6857Y14607D01*
G01X14531Y14607D01*
G01X14546Y14608D01*
G01X14562Y14612D01*
G01X14577Y14618D01*
G01X14590Y14626D01*
G01X14602Y14637D01*
G01X16492Y16527D01*
G01X16514Y16547D01*
G01X16538Y16566D01*
G01X16563Y16583D01*
G01X16589Y16597D01*
G01X16617Y16610D01*
G01X16645Y16620D01*
G01X16674Y16628D01*
G01X16703Y16634D01*
G01X16733Y16638D01*
G01X16763Y16639D01*
G01X17021Y16639D01*
G01X17036Y16640D01*
G01X17051Y16644D01*
G01X17066Y16649D01*
G01X17173Y16701D01*
G01X17189Y16711D01*
G01X17219Y16732D01*
G01X17249Y16750D01*
G01X17282Y16767D01*
G01X17314Y16781D01*
G01X17348Y16794D01*
G01X17383Y16804D01*
G01X17418Y16812D01*
G01X17454Y16817D01*
G01X17489Y16821D01*
G01X17526Y16822D01*
G01X17560Y16821D01*
G01X17594Y16818D01*
G01X17628Y16813D01*
G01X17661Y16805D01*
G01X17694Y16796D01*
G01X17726Y16785D01*
G01X17758Y16772D01*
G01X17789Y16757D01*
G01X17819Y16740D01*
G01X17847Y16722D01*
G01X17875Y16701D01*
G01X17901Y16679D01*
G01X17926Y16656D01*
G01X17949Y16631D01*
G01X17971Y16605D01*
G01X17992Y16577D01*
G01X18010Y16549D01*
G01X18027Y16519D01*
G01X18042Y16488D01*
G01X18055Y16456D01*
G01X18066Y16424D01*
G01X18075Y16391D01*
G01X18083Y16358D01*
G01X18088Y16324D01*
G01X18091Y16290D01*
G01X18092Y16256D01*
G01X18091Y16221D01*
G01X18088Y16187D01*
G01X18083Y16153D01*
G01X18075Y16120D01*
G01X18066Y16087D01*
G01X18055Y16055D01*
G01X18042Y16023D01*
G01X18027Y15992D01*
G01X18010Y15962D01*
G01X17992Y15934D01*
G01X17971Y15906D01*
G01X17949Y15880D01*
G01X17926Y15855D01*
G01X17901Y15832D01*
G01X17875Y15810D01*
G01X17847Y15789D01*
G01X17819Y15771D01*
G01X17789Y15754D01*
G01X17758Y15739D01*
G01X17726Y15726D01*
G01X17694Y15715D01*
G01X17661Y15706D01*
G01X17628Y15698D01*
G01X17594Y15693D01*
G01X17560Y15690D01*
G01X17526Y15689D01*
G01X17489Y15690D01*
G01X17454Y15694D01*
G01X17418Y15699D01*
G01X17383Y15707D01*
G01X17348Y15717D01*
G01X17314Y15730D01*
G01X17282Y15744D01*
G01X17249Y15761D01*
G01X17219Y15779D01*
G01X17189Y15800D01*
G01X17173Y15810D01*
G01X17066Y15862D01*
G01X17051Y15867D01*
G01X17036Y15871D01*
G01X17021Y15872D01*
G01X16964Y15872D01*
G01X16949Y15871D01*
G01X16933Y15867D01*
G01X16918Y15861D01*
G01X16905Y15853D01*
G01X16893Y15842D01*
G01X15003Y13952D01*
G01X14981Y13932D01*
G01X14957Y13913D01*
G01X14932Y13897D01*
G01X14906Y13882D01*
G01X14878Y13869D01*
G01X14850Y13859D01*
G01X14821Y13851D01*
G01X14791Y13845D01*
G01X14762Y13841D01*
G01X14731Y13840D01*
G01X7058Y13840D01*
G01X7043Y13839D01*
G01X7027Y13835D01*
G01X7012Y13829D01*
G01X6999Y13821D01*
G01X6987Y13810D01*
G01X6763Y13586D01*
G01X6752Y13574D01*
G01X6744Y13561D01*
G01X6738Y13546D01*
G01X6734Y13530D01*
G01X6733Y13515D01*
G01X6733Y4568D01*
G01X6734Y4553D01*
G01X6738Y4538D01*
G01X6743Y4523D01*
G01X6795Y4416D01*
G01X6805Y4400D01*
G01X6826Y4370D01*
G01X6844Y4340D01*
G01X6861Y4307D01*
G01X6875Y4275D01*
G01X6888Y4241D01*
G01X6898Y4206D01*
G01X6906Y4171D01*
G01X6911Y4135D01*
G01X6915Y4100D01*
G01X6916Y4063D01*
G01X6915Y4029D01*
G01X6912Y3995D01*
G01X6907Y3961D01*
G01X6899Y3927D01*
G01X6890Y3894D01*
G01X6879Y3861D01*
G01X6865Y3830D01*
G01X6850Y3799D01*
G01X6833Y3769D01*
G01X6814Y3740D01*
G01X6794Y3712D01*
G01X6772Y3686D01*
G01X6748Y3661D01*
G01X6723Y3637D01*
G01X6696Y3616D01*
G01X6668Y3595D01*
G01X6639Y3577D01*
G01X6609Y3560D01*
G01X6578Y3545D01*
G01X6546Y3532D01*
G01X6514Y3521D01*
G01X6480Y3512D01*
G01X6447Y3505D01*
G01X6412Y3501D01*
G01X6378Y3498D01*
G01X6363Y3496D01*
G01X6348Y3492D01*
G01X6334Y3485D01*
G01X6321Y3477D01*
G01X6310Y3466D01*
G01X6300Y3454D01*
G01X6292Y3441D01*
G01X6286Y3427D01*
G01X6283Y3412D01*
G01X6282Y3396D01*
G01X6283Y3380D01*
G01X6287Y3364D01*
G01X6293Y3349D01*
G01X6302Y3335D01*
G01X6313Y3323D01*
G01X6325Y3313D01*
G01X6340Y3305D01*
G01X6372Y3288D01*
G01X6402Y3270D01*
G01X6432Y3249D01*
G01X6448Y3239D01*
G01X6555Y3187D01*
G01X6570Y3182D01*
G01X6585Y3178D01*
G01X6600Y3177D01*
G01X6657Y3177D01*
G01X6672Y3178D01*
G01X6688Y3182D01*
G01X6703Y3188D01*
G01X6716Y3196D01*
G01X6728Y3207D01*
G01X7206Y3685D01*
G01X7217Y3697D01*
G01X7225Y3710D01*
G01X7231Y3725D01*
G01X7235Y3741D01*
G01X7236Y3756D01*
G01X7236Y12700D01*
G01X7237Y12730D01*
G01X7241Y12759D01*
G01X7247Y12789D01*
G01X7255Y12818D01*
G01X7265Y12846D01*
G01X7278Y12874D01*
G01X7292Y12900D01*
G01X7309Y12925D01*
G01X7328Y12949D01*
G01X7348Y12971D01*
G01X7856Y13479D01*
G01X7878Y13499D01*
G01X7902Y13518D01*
G01X7927Y13535D01*
G01X7953Y13549D01*
G01X7981Y13562D01*
G01X8009Y13572D01*
G01X8038Y13580D01*
G01X8068Y13586D01*
G01X8097Y13590D01*
G01X8127Y13591D01*
G01X20119Y13591D01*
G01X20134Y13592D01*
G01X20150Y13596D01*
G01X20165Y13602D01*
G01X20178Y13610D01*
G01X20190Y13621D01*
G01X24112Y17543D01*
G01X24134Y17563D01*
G01X24158Y17582D01*
G01X24183Y17599D01*
G01X24209Y17613D01*
G01X24237Y17626D01*
G01X24265Y17636D01*
G01X24294Y17644D01*
G01X24324Y17650D01*
G01X24353Y17654D01*
G01X24384Y17655D01*
G01X40132Y17655D01*
G01X40162Y17654D01*
G01X40191Y17650D01*
G01X40221Y17644D01*
G01X40250Y17636D01*
G01X40278Y17626D01*
G01X40306Y17613D01*
G01X40332Y17599D01*
G01X40357Y17582D01*
G01X40381Y17563D01*
G01X40403Y17543D01*
G01X42689Y15257D01*
G01X42709Y15235D01*
G01X42728Y15211D01*
G01X42745Y15186D01*
G01X42759Y15160D01*
G01X42772Y15132D01*
G01X42782Y15104D01*
G01X42790Y15075D01*
G01X42796Y15045D01*
G01X42800Y15016D01*
G01X42801Y14985D01*
G01X42801Y8582D01*
G01X42802Y8567D01*
G01X42806Y8551D01*
G01X42812Y8536D01*
G01X42820Y8523D01*
G01X42831Y8511D01*
G01X46142Y5199D01*
G01X46154Y5189D01*
G01X46167Y5181D01*
G01X46181Y5175D01*
G01X46294Y5136D01*
G01X46312Y5132D01*
G01X46345Y5125D01*
G01X46379Y5117D01*
G01X46412Y5107D01*
G01X46444Y5095D01*
G01X46475Y5081D01*
G01X46505Y5065D01*
G01X46535Y5047D01*
G01X46563Y5028D01*
G01X46590Y5007D01*
G01X46616Y4984D01*
G01X46640Y4960D01*
G01X46663Y4934D01*
G01X46684Y4907D01*
G01X46703Y4879D01*
G01X46721Y4849D01*
G01X46737Y4819D01*
G01X46751Y4788D01*
G01X46763Y4756D01*
G01X46773Y4723D01*
G01X46781Y4689D01*
G01X46788Y4656D01*
G01X46792Y4638D01*
G01X46831Y4525D01*
G01X46837Y4511D01*
G01X46845Y4498D01*
G01X46855Y4486D01*
G01X48897Y2445D01*
G01X48909Y2434D01*
G01X48922Y2426D01*
G01X48937Y2420D01*
G01X48953Y2416D01*
G01X48968Y2415D01*
G01X51664Y2415D01*
G01X51682Y2417D01*
G01X51699Y2421D01*
G01X51715Y2429D01*
G01X51729Y2439D01*
G01X52160Y2797D01*
G01X52162Y2799D01*
G01X52197Y2828D01*
G01X52233Y2856D01*
G01X52271Y2882D01*
G01X52309Y2906D01*
G01X52349Y2928D01*
G01X52390Y2949D01*
G01X52431Y2968D01*
G01X52474Y2985D01*
G01X52517Y3000D01*
G01X52561Y3013D01*
G01X52605Y3025D01*
G01X52650Y3034D01*
G01X52695Y3041D01*
G01X52740Y3046D01*
G01X52786Y3049D01*
G01X52832Y3050D01*
G01X52877Y3049D01*
G01X52923Y3046D01*
G01X52968Y3041D01*
G01X53013Y3034D01*
G01X53058Y3025D01*
G01X53102Y3013D01*
G01X53146Y3000D01*
G01X53189Y2985D01*
G01X53232Y2968D01*
G01X53273Y2949D01*
G01X53314Y2928D01*
G01X53354Y2906D01*
G01X53393Y2882D01*
G01X53430Y2856D01*
G01X53467Y2828D01*
G01X53502Y2799D01*
G01X53535Y2768D01*
G01X53568Y2735D01*
G01X53599Y2702D01*
G01X53628Y2667D01*
G01X53656Y2630D01*
G01X53682Y2593D01*
G01X53706Y2554D01*
G01X53728Y2514D01*
G01X53749Y2473D01*
G01X53768Y2432D01*
G01X53785Y2389D01*
G01X53800Y2346D01*
G01X53813Y2302D01*
G01X53825Y2258D01*
G01X53834Y2213D01*
G01X53841Y2168D01*
G01X53846Y2123D01*
G01X53849Y2077D01*
G01X53850Y2032D01*
G01X53849Y1985D01*
G01X53846Y1939D01*
G01X53840Y1892D01*
G01X53833Y1846D01*
G01X53824Y1801D01*
G01X53812Y1756D01*
G01X53798Y1711D01*
G01X53783Y1668D01*
G01X53765Y1625D01*
G01X53746Y1582D01*
G01X53724Y1541D01*
G01X53701Y1501D01*
G01X53676Y1462D01*
G01X53649Y1424D01*
G01X53620Y1387D01*
G01X53590Y1352D01*
G01X53558Y1318D01*
G01X53548Y1306D01*
G01X53540Y1292D01*
G01X53534Y1278D01*
G01X53530Y1262D01*
G01X53529Y1247D01*
G01X53530Y1232D01*
G01X53533Y1218D01*
G01X53538Y1204D01*
G01X53545Y1192D01*
G01X53554Y1180D01*
G01X53564Y1170D01*
G01X53576Y1161D01*
G01X53588Y1154D01*
G01X53602Y1149D01*
G01X53616Y1146D01*
G01X53631Y1145D01*
G01X55091Y1145D01*
G01X55106Y1146D01*
G01X55121Y1150D01*
G01X55135Y1155D01*
G01X55149Y1163D01*
G01X55161Y1172D01*
G01X56226Y2168D01*
G01X56237Y2180D01*
G01X56246Y2194D01*
G01X56253Y2209D01*
G01X56257Y2226D01*
G01X56258Y2242D01*
G01X56258Y5641D01*
G01X56257Y5656D01*
G01X56253Y5672D01*
G01X56247Y5687D01*
G01X56239Y5700D01*
G01X56228Y5712D01*
G01X53386Y8555D01*
G01X53372Y8566D01*
G01X53357Y8575D01*
G01X53340Y8581D01*
G01X53323Y8584D01*
G01X52765Y8635D01*
G01X52763Y8635D01*
G01X52717Y8639D01*
G01X52671Y8646D01*
G01X52625Y8654D01*
G01X52580Y8665D01*
G01X52535Y8677D01*
G01X52491Y8692D01*
G01X52448Y8708D01*
G01X52405Y8727D01*
G01X52363Y8747D01*
G01X52323Y8769D01*
G01X52283Y8793D01*
G01X52245Y8819D01*
G01X52207Y8847D01*
G01X52171Y8876D01*
G01X52137Y8907D01*
G01X52103Y8939D01*
G01X52072Y8973D01*
G01X52042Y9008D01*
G01X52013Y9045D01*
G01X51986Y9083D01*
G01X51961Y9122D01*
G01X51938Y9162D01*
G01X51917Y9203D01*
G01X51897Y9246D01*
G01X51880Y9288D01*
G01X51864Y9332D01*
G01X51851Y9377D01*
G01X51839Y9422D01*
G01X51830Y9467D01*
G01X51822Y9513D01*
G01X51817Y9559D01*
G01X51814Y9605D01*
G01X51813Y9652D01*
G01X51814Y9698D01*
G01X51817Y9744D01*
G01X51823Y9791D01*
G01X51830Y9837D01*
G01X51839Y9882D01*
G01X51851Y9927D01*
G01X51865Y9972D01*
G01X51880Y10015D01*
G01X51898Y10058D01*
G01X51917Y10101D01*
G01X51939Y10142D01*
G01X51962Y10182D01*
G01X51987Y10221D01*
G01X52014Y10259D01*
G01X52043Y10296D01*
G01X52073Y10331D01*
G01X52105Y10365D01*
G01X52115Y10377D01*
G01X52123Y10391D01*
G01X52129Y10405D01*
G01X52133Y10421D01*
G01X52134Y10436D01*
G01X52133Y10451D01*
G01X52130Y10465D01*
G01X52125Y10479D01*
G01X52118Y10491D01*
G01X52109Y10503D01*
G01X52099Y10513D01*
G01X52087Y10522D01*
G01X52075Y10529D01*
G01X52061Y10534D01*
G01X52047Y10537D01*
G01X52032Y10538D01*
G01X51762Y10538D01*
G01X51747Y10537D01*
G01X51731Y10533D01*
G01X51716Y10527D01*
G01X51703Y10519D01*
G01X51691Y10508D01*
G01X50959Y9776D01*
G01X50948Y9764D01*
G01X50940Y9751D01*
G01X50934Y9736D01*
G01X50930Y9720D01*
G01X50929Y9705D01*
G01X50929Y7870D01*
G01X50930Y7855D01*
G01X50934Y7840D01*
G01X50939Y7825D01*
G01X50991Y7718D01*
G01X51001Y7702D01*
G01X51022Y7672D01*
G01X51040Y7642D01*
G01X51057Y7609D01*
G01X51071Y7577D01*
G01X51084Y7543D01*
G01X51094Y7508D01*
G01X51102Y7473D01*
G01X51107Y7437D01*
G01X51111Y7402D01*
G01X51112Y7365D01*
G01X51111Y7331D01*
G01X51108Y7297D01*
G01X51103Y7263D01*
G01X51095Y7230D01*
G01X51086Y7197D01*
G01X51075Y7165D01*
G01X51062Y7133D01*
G01X51047Y7102D01*
G01X51030Y7072D01*
G01X51012Y7044D01*
G01X50991Y7016D01*
G01X50969Y6990D01*
G01X50946Y6965D01*
G01X50921Y6942D01*
G01X50895Y6920D01*
G01X50867Y6899D01*
G01X50839Y6881D01*
G01X50809Y6864D01*
G01X50778Y6849D01*
G01X50746Y6836D01*
G01X50714Y6825D01*
G01X50681Y6816D01*
G01X50648Y6808D01*
G01X50614Y6803D01*
G01X50580Y6800D01*
G01X50546Y6799D01*
G01X50511Y6800D01*
G01X50477Y6803D01*
G01X50443Y6808D01*
G01X50410Y6816D01*
G01X50377Y6825D01*
G01X50345Y6836D01*
G01X50313Y6849D01*
G01X50282Y6864D01*
G01X50252Y6881D01*
G01X50224Y6899D01*
G01X50196Y6920D01*
G01X50170Y6942D01*
G01X50145Y6965D01*
G01X50122Y6990D01*
G01X50100Y7016D01*
G01X50079Y7044D01*
G01X50061Y7072D01*
G01X50044Y7102D01*
G01X50029Y7133D01*
G01X50016Y7165D01*
G01X50005Y7197D01*
G01X49996Y7230D01*
G01X49988Y7263D01*
G01X49983Y7297D01*
G01X49980Y7331D01*
G01X49979Y7366D01*
G01X49980Y7402D01*
G01X49984Y7437D01*
G01X49989Y7473D01*
G01X49997Y7508D01*
G01X50007Y7543D01*
G01X50020Y7577D01*
G01X50034Y7609D01*
G01X50051Y7642D01*
G01X50069Y7672D01*
G01X50090Y7702D01*
G01X50100Y7718D01*
G01X50152Y7825D01*
G01X50157Y7840D01*
G01X50161Y7855D01*
G01X50162Y7870D01*
G01X50162Y9906D01*
G01X50163Y9936D01*
G01X50167Y9965D01*
G01X50173Y9995D01*
G01X50181Y10024D01*
G01X50191Y10052D01*
G01X50204Y10080D01*
G01X50218Y10106D01*
G01X50235Y10131D01*
G01X50254Y10155D01*
G01X50274Y10177D01*
G01X51290Y11193D01*
G01X51312Y11213D01*
G01X51336Y11232D01*
G01X51361Y11249D01*
G01X51387Y11263D01*
G01X51415Y11276D01*
G01X51443Y11286D01*
G01X51472Y11294D01*
G01X51502Y11300D01*
G01X51531Y11304D01*
G01X51562Y11305D01*
G01X52032Y11305D01*
G01X52047Y11306D01*
G01X52061Y11309D01*
G01X52075Y11314D01*
G01X52087Y11321D01*
G01X52099Y11330D01*
G01X52109Y11340D01*
G01X52118Y11352D01*
G01X52125Y11364D01*
G01X52130Y11378D01*
G01X52133Y11392D01*
G01X52134Y11407D01*
G01X52133Y11422D01*
G01X52129Y11438D01*
G01X52123Y11452D01*
G01X52115Y11466D01*
G01X52105Y11478D01*
G01X52073Y11512D01*
G01X52043Y11547D01*
G01X52014Y11584D01*
G01X51987Y11622D01*
G01X51962Y11661D01*
G01X51939Y11701D01*
G01X51917Y11742D01*
G01X51898Y11785D01*
G01X51880Y11828D01*
G01X51865Y11871D01*
G01X51851Y11916D01*
G01X51839Y11961D01*
G01X51830Y12006D01*
G01X51823Y12052D01*
G01X51817Y12099D01*
G01X51814Y12145D01*
G01X51813Y12191D01*
G01X51814Y12238D01*
G01X51817Y12284D01*
G01X51823Y12331D01*
G01X51830Y12377D01*
G01X51839Y12422D01*
G01X51851Y12467D01*
G01X51865Y12512D01*
G01X51880Y12555D01*
G01X51898Y12598D01*
G01X51917Y12641D01*
G01X51939Y12682D01*
G01X51962Y12722D01*
G01X51987Y12761D01*
G01X52014Y12799D01*
G01X52043Y12836D01*
G01X52073Y12871D01*
G01X52105Y12905D01*
G01X52115Y12917D01*
G01X52123Y12931D01*
G01X52129Y12945D01*
G01X52133Y12961D01*
G01X52134Y12976D01*
G01X52133Y12991D01*
G01X52130Y13005D01*
G01X52125Y13019D01*
G01X52118Y13031D01*
G01X52109Y13043D01*
G01X52099Y13053D01*
G01X52087Y13062D01*
G01X52075Y13069D01*
G01X52061Y13074D01*
G01X52047Y13077D01*
G01X52032Y13078D01*
G01X51050Y13078D01*
G01X51035Y13077D01*
G01X51020Y13073D01*
G01X51005Y13068D01*
G01X50898Y13016D01*
G01X50882Y13006D01*
G01X50852Y12985D01*
G01X50822Y12967D01*
G01X50789Y12950D01*
G01X50757Y12936D01*
G01X50723Y12923D01*
G01X50688Y12913D01*
G01X50653Y12905D01*
G01X50617Y12900D01*
G01X50582Y12896D01*
G01X50546Y12895D01*
G01X50511Y12896D01*
G01X50477Y12899D01*
G01X50443Y12904D01*
G01X50410Y12912D01*
G01X50377Y12921D01*
G01X50345Y12932D01*
G01X50313Y12945D01*
G01X50282Y12960D01*
G01X50252Y12977D01*
G01X50224Y12995D01*
G01X50196Y13016D01*
G01X50170Y13038D01*
G01X50145Y13061D01*
G01X50122Y13086D01*
G01X50100Y13112D01*
G01X50079Y13140D01*
G01X50061Y13168D01*
G01X50044Y13198D01*
G01X50029Y13229D01*
G01X50016Y13261D01*
G01X50005Y13293D01*
G01X49996Y13326D01*
G01X49988Y13359D01*
G01X49983Y13393D01*
G01X49980Y13427D01*
G01X49979Y13462D01*
G01X49980Y13496D01*
G01X49983Y13530D01*
G01X49988Y13564D01*
G01X49996Y13597D01*
G01X50005Y13630D01*
G01X50016Y13662D01*
G01X50029Y13694D01*
G01X50044Y13725D01*
G01X50061Y13755D01*
G01X50079Y13783D01*
G01X50100Y13811D01*
G01X50122Y13837D01*
G01X50145Y13862D01*
G01X50170Y13885D01*
G01X50196Y13907D01*
G01X50224Y13928D01*
G01X50252Y13946D01*
G01X50282Y13963D01*
G01X50313Y13978D01*
G01X50345Y13991D01*
G01X50377Y14002D01*
G01X50410Y14011D01*
G01X50443Y14019D01*
G01X50477Y14024D01*
G01X50511Y14027D01*
G01X50546Y14028D01*
G01X50582Y14027D01*
G01X50617Y14023D01*
G01X50653Y14018D01*
G01X50688Y14010D01*
G01X50723Y14000D01*
G01X50757Y13987D01*
G01X50789Y13973D01*
G01X50822Y13956D01*
G01X50852Y13938D01*
G01X50882Y13917D01*
G01X50898Y13907D01*
G01X51005Y13855D01*
G01X51020Y13850D01*
G01X51035Y13846D01*
G01X51050Y13845D01*
G01X52032Y13845D01*
G01X52047Y13846D01*
G01X52061Y13849D01*
G01X52075Y13854D01*
G01X52087Y13861D01*
G01X52099Y13870D01*
G01X52109Y13880D01*
G01X52118Y13892D01*
G01X52125Y13904D01*
G01X52130Y13918D01*
G01X52133Y13932D01*
G01X52134Y13947D01*
G01X52133Y13962D01*
G01X52129Y13978D01*
G01X52123Y13992D01*
G01X52115Y14006D01*
G01X52105Y14018D01*
G01X52073Y14052D01*
G01X52043Y14087D01*
G01X52014Y14124D01*
G01X51987Y14162D01*
G01X51962Y14201D01*
G01X51939Y14241D01*
G01X51917Y14282D01*
G01X51898Y14325D01*
G01X51880Y14368D01*
G01X51865Y14411D01*
G01X51851Y14456D01*
G01X51839Y14501D01*
G01X51830Y14546D01*
G01X51823Y14592D01*
G01X51817Y14639D01*
G01X51814Y14685D01*
G01X51813Y14731D01*
G01X51814Y14777D01*
G01X51817Y14823D01*
G01X51822Y14868D01*
G01X51829Y14913D01*
G01X51838Y14958D01*
G01X51850Y15002D01*
G01X51863Y15046D01*
G01X51878Y15089D01*
G01X51895Y15132D01*
G01X51914Y15173D01*
G01X51935Y15214D01*
G01X51957Y15254D01*
G01X51981Y15293D01*
G01X52007Y15330D01*
G01X52035Y15367D01*
G01X52064Y15402D01*
G01X52095Y15435D01*
G01X52128Y15468D01*
G01X52161Y15499D01*
G01X52196Y15528D01*
G01X52233Y15556D01*
G01X52270Y15582D01*
G01X52309Y15606D01*
G01X52349Y15628D01*
G01X52390Y15649D01*
G01X52431Y15668D01*
G01X52474Y15685D01*
G01X52517Y15700D01*
G01X52561Y15713D01*
G01X52605Y15725D01*
G01X52650Y15734D01*
G01X52695Y15741D01*
G01X52740Y15746D01*
G01X52786Y15749D01*
G01X52832Y15750D01*
G01X52877Y15749D01*
G01X52923Y15746D01*
G01X52968Y15741D01*
G01X53013Y15734D01*
G01X53058Y15725D01*
G01X53102Y15713D01*
G01X53146Y15700D01*
G01X53189Y15685D01*
G01X53232Y15668D01*
G01X53273Y15649D01*
G01X53314Y15628D01*
G01X53354Y15606D01*
G01X53393Y15582D01*
G01X53430Y15556D01*
G01X53467Y15528D01*
G01X53502Y15499D01*
G01X53535Y15468D01*
G01X53568Y15435D01*
G01X53599Y15402D01*
G01X53628Y15367D01*
G01X53656Y15330D01*
G01X53682Y15293D01*
G01X53706Y15254D01*
G01X53728Y15214D01*
G01X53749Y15173D01*
G01X53768Y15132D01*
G01X53785Y15089D01*
G01X53800Y15046D01*
G01X53813Y15002D01*
G01X53825Y14958D01*
G01X53834Y14913D01*
G01X53841Y14868D01*
G01X53846Y14823D01*
G01X53849Y14777D01*
G01X53850Y14732D01*
G01X53849Y14685D01*
G01X53846Y14639D01*
G01X53840Y14592D01*
G01X53833Y14546D01*
G01X53824Y14501D01*
G01X53812Y14456D01*
G01X53798Y14411D01*
G01X53783Y14368D01*
G01X53765Y14325D01*
G01X53746Y14282D01*
G01X53724Y14241D01*
G01X53701Y14201D01*
G01X53676Y14162D01*
G01X53649Y14124D01*
G01X53620Y14087D01*
G01X53590Y14052D01*
G01X53558Y14018D01*
G01X53548Y14006D01*
G01X53540Y13992D01*
G01X53534Y13978D01*
G01X53530Y13962D01*
G01X53529Y13947D01*
G01X53530Y13932D01*
G01X53533Y13918D01*
G01X53538Y13904D01*
G01X53545Y13892D01*
G01X53554Y13880D01*
G01X53564Y13870D01*
G01X53576Y13861D01*
G01X53588Y13854D01*
G01X53602Y13849D01*
G01X53616Y13846D01*
G01X53631Y13845D01*
G01X53848Y13845D01*
G01X53877Y13844D01*
G01X53906Y13841D01*
G01X53935Y13835D01*
G01X53963Y13827D01*
G01X53991Y13817D01*
G01X54018Y13805D01*
G01X54043Y13791D01*
G01X54068Y13775D01*
G01X54091Y13757D01*
G01X54113Y13738D01*
G01X59876Y8197D01*
G01X59890Y8186D01*
G01X59905Y8177D01*
G01X59922Y8172D01*
G01X59939Y8169D01*
G01X60498Y8129D01*
G01X60500Y8129D01*
G01X60546Y8126D01*
G01X60591Y8120D01*
G01X60636Y8113D01*
G01X60681Y8104D01*
G01X60725Y8093D01*
G01X60769Y8079D01*
G01X60812Y8064D01*
G01X60854Y8047D01*
G01X60896Y8028D01*
G01X60936Y8007D01*
G01X60976Y7985D01*
G01X61014Y7960D01*
G01X61052Y7934D01*
G01X61088Y7907D01*
G01X61123Y7877D01*
G01X61157Y7847D01*
G01X61189Y7814D01*
G01X61220Y7781D01*
G01X61249Y7745D01*
G01X61276Y7709D01*
G01X61302Y7672D01*
G01X61326Y7633D01*
G01X61349Y7593D01*
G01X61370Y7553D01*
G01X61388Y7511D01*
G01X61405Y7469D01*
G01X61420Y7426D01*
G01X61433Y7382D01*
G01X61445Y7338D01*
G01X61454Y7293D01*
G01X61461Y7248D01*
G01X61466Y7203D01*
G01X61469Y7157D01*
G01X61470Y7112D01*
G01X61469Y7066D01*
G01X61466Y7020D01*
G01X61461Y6975D01*
G01X61454Y6930D01*
G01X61445Y6885D01*
G01X61433Y6841D01*
G01X61420Y6797D01*
G01X61405Y6754D01*
G01X61388Y6711D01*
G01X61369Y6670D01*
G01X61348Y6629D01*
G01X61326Y6589D01*
G01X61302Y6550D01*
G01X61276Y6513D01*
G01X61248Y6476D01*
G01X61219Y6441D01*
G01X61188Y6408D01*
G01X61155Y6375D01*
G01X61122Y6344D01*
G01X61087Y6315D01*
G01X61050Y6287D01*
G01X61013Y6261D01*
G01X60974Y6237D01*
G01X60934Y6215D01*
G01X60893Y6194D01*
G01X60852Y6175D01*
G01X60809Y6158D01*
G01X60766Y6143D01*
G01X60722Y6130D01*
G01X60678Y6118D01*
G01X60633Y6109D01*
G01X60588Y6102D01*
G01X60543Y6097D01*
G01X60497Y6094D01*
G01X60452Y6093D01*
G01X60406Y6094D01*
G01X60360Y6097D01*
G01X60315Y6102D01*
G01X60269Y6109D01*
G01X60224Y6119D01*
G01X60180Y6130D01*
G01X60136Y6143D01*
G01X60093Y6158D01*
G01X60051Y6175D01*
G01X60009Y6194D01*
G01X59968Y6215D01*
G01X59928Y6238D01*
G01X59890Y6262D01*
G01X59852Y6288D01*
G01X59816Y6316D01*
G01X59780Y6345D01*
G01X59747Y6376D01*
G01X59714Y6409D01*
G01X59683Y6443D01*
G01X59654Y6478D01*
G01X59626Y6514D01*
G01X59600Y6552D01*
G01X59576Y6591D01*
G01X59554Y6631D01*
G01X59533Y6671D01*
G01X59514Y6713D01*
G01X59497Y6756D01*
G01X59482Y6799D01*
G01X59469Y6843D01*
G01X59458Y6887D01*
G01X59449Y6932D01*
G01X59442Y6977D01*
G01X59437Y7023D01*
G01X59436Y7027D01*
G01X59437Y7025D01*
G01X59375Y7582D01*
G01X59372Y7599D01*
G01X59365Y7616D01*
G01X59356Y7631D01*
G01X59344Y7644D01*
G01X53723Y13050D01*
G01X53711Y13059D01*
G01X53697Y13067D01*
G01X53683Y13073D01*
G01X53668Y13077D01*
G01X53652Y13078D01*
G01X53631Y13078D01*
G01X53616Y13077D01*
G01X53602Y13074D01*
G01X53588Y13069D01*
G01X53576Y13062D01*
G01X53564Y13053D01*
G01X53554Y13043D01*
G01X53545Y13031D01*
G01X53538Y13019D01*
G01X53533Y13005D01*
G01X53530Y12991D01*
G01X53529Y12976D01*
G01X53530Y12961D01*
G01X53534Y12945D01*
G01X53540Y12931D01*
G01X53548Y12917D01*
G01X53558Y12905D01*
G01X53590Y12871D01*
G01X53620Y12836D01*
G01X53649Y12799D01*
G01X53676Y12761D01*
G01X53701Y12722D01*
G01X53724Y12682D01*
G01X53746Y12641D01*
G01X53765Y12598D01*
G01X53783Y12555D01*
G01X53798Y12512D01*
G01X53812Y12467D01*
G01X53824Y12422D01*
G01X53833Y12377D01*
G01X53840Y12331D01*
G01X53846Y12284D01*
G01X53849Y12238D01*
G01X53850Y12192D01*
G01X53849Y12145D01*
G01X53846Y12099D01*
G01X53840Y12052D01*
G01X53833Y12006D01*
G01X53824Y11961D01*
G01X53812Y11916D01*
G01X53798Y11871D01*
G01X53783Y11828D01*
G01X53765Y11785D01*
G01X53746Y11742D01*
G01X53724Y11701D01*
G01X53701Y11661D01*
G01X53676Y11622D01*
G01X53649Y11584D01*
G01X53620Y11547D01*
G01X53590Y11512D01*
G01X53558Y11478D01*
G01X53548Y11466D01*
G01X53540Y11452D01*
G01X53534Y11438D01*
G01X53530Y11422D01*
G01X53529Y11407D01*
G01X53530Y11392D01*
G01X53533Y11378D01*
G01X53538Y11364D01*
G01X53545Y11352D01*
G01X53554Y11340D01*
G01X53564Y11330D01*
G01X53576Y11321D01*
G01X53588Y11314D01*
G01X53602Y11309D01*
G01X53616Y11306D01*
G01X53631Y11305D01*
G01X54102Y11305D01*
G01X54132Y11304D01*
G01X54161Y11300D01*
G01X54191Y11294D01*
G01X54220Y11286D01*
G01X54248Y11276D01*
G01X54276Y11263D01*
G01X54302Y11249D01*
G01X54327Y11232D01*
G01X54351Y11213D01*
G01X54373Y11193D01*
G01X59897Y5668D01*
G01X59911Y5657D01*
G01X59926Y5648D01*
G01X59943Y5642D01*
G01X59960Y5639D01*
G01X60518Y5588D01*
G01X60520Y5588D01*
G01X60566Y5584D01*
G01X60612Y5577D01*
G01X60658Y5569D01*
G01X60703Y5558D01*
G01X60748Y5546D01*
G01X60792Y5531D01*
G01X60835Y5515D01*
G01X60878Y5496D01*
G01X60920Y5476D01*
G01X60960Y5454D01*
G01X61000Y5430D01*
G01X61038Y5404D01*
G01X61076Y5376D01*
G01X61112Y5347D01*
G01X61146Y5316D01*
G01X61180Y5284D01*
G01X61211Y5250D01*
G01X61241Y5215D01*
G01X61270Y5178D01*
G01X61297Y5140D01*
G01X61322Y5101D01*
G01X61345Y5061D01*
G01X61366Y5020D01*
G01X61386Y4977D01*
G01X61403Y4935D01*
G01X61419Y4891D01*
G01X61432Y4846D01*
G01X61444Y4801D01*
G01X61453Y4756D01*
G01X61461Y4710D01*
G01X61466Y4664D01*
G01X61469Y4618D01*
G01X61470Y4571D01*
G01X61469Y4526D01*
G01X61466Y4480D01*
G01X61461Y4435D01*
G01X61454Y4390D01*
G01X61445Y4345D01*
G01X61433Y4301D01*
G01X61420Y4257D01*
G01X61405Y4214D01*
G01X61388Y4171D01*
G01X61369Y4130D01*
G01X61348Y4089D01*
G01X61326Y4049D01*
G01X61302Y4010D01*
G01X61276Y3973D01*
G01X61248Y3936D01*
G01X61219Y3901D01*
G01X61188Y3868D01*
G01X61155Y3835D01*
G01X61122Y3804D01*
G01X61087Y3775D01*
G01X61050Y3747D01*
G01X61013Y3721D01*
G01X60974Y3697D01*
G01X60934Y3675D01*
G01X60893Y3654D01*
G01X60852Y3635D01*
G01X60809Y3618D01*
G01X60766Y3603D01*
G01X60722Y3590D01*
G01X60678Y3578D01*
G01X60633Y3569D01*
G01X60588Y3562D01*
G01X60543Y3557D01*
G01X60497Y3554D01*
G01X60452Y3553D01*
G01X60405Y3554D01*
G01X60359Y3557D01*
G01X60313Y3562D01*
G01X60267Y3570D01*
G01X60222Y3579D01*
G01X60177Y3591D01*
G01X60132Y3604D01*
G01X60088Y3620D01*
G01X60046Y3637D01*
G01X60003Y3657D01*
G01X59962Y3678D01*
G01X59922Y3701D01*
G01X59883Y3726D01*
G01X59845Y3753D01*
G01X59808Y3782D01*
G01X59773Y3812D01*
G01X59739Y3843D01*
G01X59707Y3877D01*
G01X59676Y3911D01*
G01X59647Y3947D01*
G01X59619Y3985D01*
G01X59593Y4023D01*
G01X59569Y4063D01*
G01X59547Y4103D01*
G01X59527Y4145D01*
G01X59508Y4188D01*
G01X59492Y4231D01*
G01X59477Y4275D01*
G01X59465Y4320D01*
G01X59454Y4365D01*
G01X59446Y4411D01*
G01X59439Y4457D01*
G01X59435Y4503D01*
G01X59435Y4505D01*
G01X59384Y5063D01*
G01X59381Y5080D01*
G01X59375Y5097D01*
G01X59366Y5112D01*
G01X59355Y5126D01*
G01X53972Y10508D01*
G01X53960Y10519D01*
G01X53947Y10527D01*
G01X53932Y10533D01*
G01X53916Y10537D01*
G01X53901Y10538D01*
G01X53631Y10538D01*
G01X53616Y10537D01*
G01X53602Y10534D01*
G01X53588Y10529D01*
G01X53576Y10522D01*
G01X53564Y10513D01*
G01X53554Y10503D01*
G01X53545Y10491D01*
G01X53538Y10479D01*
G01X53533Y10465D01*
G01X53530Y10451D01*
G01X53529Y10436D01*
G01X53530Y10421D01*
G01X53534Y10405D01*
G01X53540Y10391D01*
G01X53548Y10377D01*
G01X53558Y10365D01*
G01X53591Y10330D01*
G01X53622Y10293D01*
G01X53652Y10255D01*
G01X53679Y10216D01*
G01X53705Y10175D01*
G01X53729Y10133D01*
G01X53751Y10090D01*
G01X53770Y10047D01*
G01X53788Y10002D01*
G01X53803Y9956D01*
G01X53817Y9910D01*
G01X53828Y9863D01*
G01X53837Y9816D01*
G01X53843Y9768D01*
G01X53848Y9720D01*
G01X53848Y9718D01*
G01X53899Y9160D01*
G01X53902Y9143D01*
G01X53908Y9126D01*
G01X53917Y9111D01*
G01X53928Y9097D01*
G01X56913Y6113D01*
G01X56933Y6091D01*
G01X56952Y6067D01*
G01X56969Y6042D01*
G01X56983Y6016D01*
G01X56996Y5988D01*
G01X57006Y5960D01*
G01X57014Y5931D01*
G01X57020Y5901D01*
G01X57024Y5872D01*
G01X57025Y5841D01*
G01X57025Y2032D01*
G01X57024Y2003D01*
G01X57021Y1975D01*
G01X57016Y1947D01*
G01X57008Y1919D01*
G01X56999Y1892D01*
G01X56987Y1866D01*
G01X56974Y1840D01*
G01X56959Y1816D01*
G01X56942Y1793D01*
G01X56924Y1772D01*
G01X56903Y1751D01*
G01X55544Y481D01*
G01X55509Y452D01*
G01X55497Y442D01*
G01X55487Y430D01*
G01X55479Y416D01*
G01X55473Y402D01*
G01X55469Y386D01*
G01X55468Y370D01*
G01X55469Y356D01*
G01X55472Y342D01*
G01X55477Y328D01*
G01X55484Y315D01*
G01X55493Y304D01*
G01X55503Y294D01*
G01X55515Y285D01*
G01X55527Y278D01*
G01X55541Y273D01*
G01X55555Y270D01*
G01X55570Y269D01*
G01X62367Y269D01*
G01X62381Y270D01*
G01X62395Y273D01*
G01X62409Y278D01*
G01X62422Y285D01*
G01X62433Y294D01*
G01X62443Y304D01*
G01X62452Y315D01*
G01X62459Y328D01*
G01X62464Y342D01*
G01X62467Y356D01*
G01X62468Y370D01*
G01X62468Y21539D01*
G01X62467Y21553D01*
G01X62464Y21567D01*
G01X62459Y21581D01*
G01X62452Y21594D01*
G01X62443Y21605D01*
G01X62433Y21615D01*
G01X62422Y21624D01*
G01X62409Y21631D01*
G01X62395Y21636D01*
G01X62381Y21639D01*
G01X62367Y21640D01*
G01X2622Y21640D01*
G01X2607Y21639D01*
G01X2593Y21636D01*
G01X2580Y21631D01*
G01X2567Y21624D01*
G01X2555Y21615D01*
G01X2545Y21605D01*
G01X2536Y21594D01*
G01X2529Y21581D01*
G01X2524Y21567D01*
G01X2521Y21553D01*
G01X2520Y21539D01*
G01X2522Y21521D01*
G01X2526Y21504D01*
G01X2546Y21464D01*
G01X2555Y21440D01*
G01X2562Y21414D01*
G01X2566Y21388D01*
G01X2567Y21361D01*
G01X2567Y20967D01*
G01X1917Y20967D01*
G01X1917Y21539D01*
G01X1916Y21553D01*
G01X1913Y21567D01*
G01X1908Y21581D01*
G01X1901Y21594D01*
G01X1892Y21605D01*
G01X1882Y21615D01*
G01X1871Y21624D01*
G01X1858Y21631D01*
G01X1844Y21636D01*
G01X1830Y21639D01*
G01X1816Y21640D01*
G01X1231Y21640D01*
G01X1217Y21639D01*
G01X1203Y21636D01*
G01X1189Y21631D01*
G01X1176Y21624D01*
G01X1165Y21615D01*
G01X1155Y21605D01*
G01X1146Y21594D01*
G01X1139Y21581D01*
G01X1134Y21567D01*
G01X1131Y21553D01*
G01X1130Y21539D01*
G01X1130Y20967D01*
G01X480Y20967D01*
G01X480Y21361D01*
G01X481Y21388D01*
G01X485Y21414D01*
G01X492Y21440D01*
G01X501Y21464D01*
G01X521Y21504D01*
G01X525Y21521D01*
G01X527Y21539D01*
G01X526Y21553D01*
G01X523Y21567D01*
G01X518Y21581D01*
G01X511Y21594D01*
G01X502Y21605D01*
G01X492Y21615D01*
G01X480Y21624D01*
G01X467Y21631D01*
G01X454Y21636D01*
G01X440Y21639D01*
G01X425Y21640D01*
G37*

%LPC*%
G36*
G01X32802Y16567D02*
G01X32766Y16568D01*
G01X32731Y16567D01*
G01X32697Y16564D01*
G01X32663Y16559D01*
G01X32630Y16551D01*
G01X32597Y16542D01*
G01X32565Y16531D01*
G01X32533Y16518D01*
G01X32502Y16503D01*
G01X32472Y16486D01*
G01X32444Y16468D01*
G01X32416Y16447D01*
G01X32390Y16425D01*
G01X32365Y16402D01*
G01X32342Y16377D01*
G01X32320Y16351D01*
G01X32299Y16323D01*
G01X32281Y16295D01*
G01X32264Y16265D01*
G01X32249Y16234D01*
G01X32236Y16202D01*
G01X32225Y16170D01*
G01X32216Y16137D01*
G01X32208Y16104D01*
G01X32203Y16070D01*
G01X32200Y16036D01*
G01X32199Y16001D01*
G01X32200Y15967D01*
G01X32203Y15933D01*
G01X32208Y15899D01*
G01X32216Y15865D01*
G01X32225Y15832D01*
G01X32236Y15799D01*
G01X32250Y15767D01*
G01X32265Y15736D01*
G01X32282Y15706D01*
G01X32301Y15678D01*
G01X32321Y15650D01*
G01X32344Y15624D01*
G01X32367Y15599D01*
G01X32393Y15575D01*
G01X32419Y15553D01*
G01X32447Y15533D01*
G01X32476Y15514D01*
G01X32506Y15498D01*
G01X32538Y15483D01*
G01X32570Y15470D01*
G01X32584Y15464D01*
G01X32596Y15455D01*
G01X32608Y15445D01*
G01X32618Y15433D01*
G01X32626Y15420D01*
G01X32631Y15405D01*
G01X32635Y15390D01*
G01X32636Y15375D01*
G01X32636Y14678D01*
G01X32635Y14663D01*
G01X32631Y14647D01*
G01X32625Y14632D01*
G01X32617Y14619D01*
G01X32606Y14607D01*
G01X30208Y12209D01*
G01X30188Y12187D01*
G01X30169Y12163D01*
G01X30152Y12138D01*
G01X30138Y12112D01*
G01X30125Y12084D01*
G01X30115Y12056D01*
G01X30107Y12027D01*
G01X30101Y11997D01*
G01X30097Y11968D01*
G01X30096Y11938D01*
G01X30096Y6092D01*
G01X30095Y6077D01*
G01X30091Y6062D01*
G01X30086Y6047D01*
G01X30034Y5940D01*
G01X30024Y5924D01*
G01X30003Y5894D01*
G01X29985Y5864D01*
G01X29968Y5831D01*
G01X29954Y5799D01*
G01X29941Y5765D01*
G01X29931Y5730D01*
G01X29923Y5695D01*
G01X29918Y5659D01*
G01X29914Y5624D01*
G01X29913Y5588D01*
G01X29914Y5553D01*
G01X29917Y5519D01*
G01X29922Y5485D01*
G01X29930Y5452D01*
G01X29939Y5419D01*
G01X29950Y5387D01*
G01X29963Y5355D01*
G01X29978Y5324D01*
G01X29995Y5294D01*
G01X30013Y5266D01*
G01X30034Y5238D01*
G01X30056Y5212D01*
G01X30079Y5187D01*
G01X30104Y5164D01*
G01X30130Y5142D01*
G01X30158Y5121D01*
G01X30186Y5103D01*
G01X30216Y5086D01*
G01X30247Y5071D01*
G01X30279Y5058D01*
G01X30311Y5047D01*
G01X30344Y5038D01*
G01X30377Y5030D01*
G01X30411Y5025D01*
G01X30445Y5022D01*
G01X30480Y5021D01*
G01X30514Y5022D01*
G01X30548Y5025D01*
G01X30582Y5030D01*
G01X30615Y5038D01*
G01X30648Y5047D01*
G01X30680Y5058D01*
G01X30712Y5071D01*
G01X30743Y5086D01*
G01X30773Y5103D01*
G01X30801Y5121D01*
G01X30829Y5142D01*
G01X30855Y5164D01*
G01X30880Y5187D01*
G01X30903Y5212D01*
G01X30925Y5238D01*
G01X30946Y5266D01*
G01X30964Y5294D01*
G01X30981Y5324D01*
G01X30996Y5355D01*
G01X31009Y5387D01*
G01X31020Y5419D01*
G01X31029Y5452D01*
G01X31037Y5485D01*
G01X31042Y5519D01*
G01X31045Y5553D01*
G01X31046Y5587D01*
G01X31045Y5624D01*
G01X31041Y5659D01*
G01X31036Y5695D01*
G01X31028Y5730D01*
G01X31018Y5765D01*
G01X31005Y5799D01*
G01X30991Y5831D01*
G01X30974Y5864D01*
G01X30956Y5894D01*
G01X30935Y5924D01*
G01X30925Y5940D01*
G01X30873Y6047D01*
G01X30868Y6062D01*
G01X30864Y6077D01*
G01X30863Y6092D01*
G01X30863Y11737D01*
G01X30864Y11752D01*
G01X30868Y11768D01*
G01X30874Y11783D01*
G01X30882Y11796D01*
G01X30893Y11808D01*
G01X33291Y14206D01*
G01X33311Y14228D01*
G01X33330Y14252D01*
G01X33347Y14277D01*
G01X33361Y14303D01*
G01X33374Y14331D01*
G01X33384Y14359D01*
G01X33392Y14388D01*
G01X33398Y14418D01*
G01X33402Y14447D01*
G01X33403Y14477D01*
G01X33403Y15516D01*
G01X33404Y15531D01*
G01X33407Y15545D01*
G01X33412Y15559D01*
G01X33419Y15571D01*
G01X33428Y15583D01*
G01X33438Y15593D01*
G01X33450Y15602D01*
G01X33462Y15609D01*
G01X33476Y15614D01*
G01X33490Y15617D01*
G01X33505Y15618D01*
G01X38407Y15618D01*
G01X38422Y15617D01*
G01X38438Y15613D01*
G01X38453Y15607D01*
G01X38466Y15599D01*
G01X38478Y15588D01*
G01X39464Y14602D01*
G01X39475Y14590D01*
G01X39483Y14577D01*
G01X39489Y14562D01*
G01X39493Y14546D01*
G01X39494Y14531D01*
G01X39494Y13712D01*
G01X39493Y13697D01*
G01X39489Y13682D01*
G01X39484Y13667D01*
G01X39432Y13560D01*
G01X39422Y13544D01*
G01X39402Y13516D01*
G01X39384Y13486D01*
G01X39368Y13456D01*
G01X39354Y13424D01*
G01X39342Y13392D01*
G01X39332Y13359D01*
G01X39324Y13326D01*
G01X39317Y13292D01*
G01X39313Y13274D01*
G01X39274Y13161D01*
G01X39268Y13147D01*
G01X39260Y13134D01*
G01X39250Y13122D01*
G01X39098Y12971D01*
G01X39078Y12949D01*
G01X39059Y12925D01*
G01X39042Y12900D01*
G01X39028Y12874D01*
G01X39015Y12846D01*
G01X39005Y12818D01*
G01X38997Y12789D01*
G01X38991Y12759D01*
G01X38987Y12730D01*
G01X38986Y12700D01*
G01X38986Y6854D01*
G01X38985Y6839D01*
G01X38981Y6824D01*
G01X38976Y6809D01*
G01X38924Y6702D01*
G01X38914Y6686D01*
G01X38893Y6656D01*
G01X38875Y6626D01*
G01X38858Y6593D01*
G01X38844Y6561D01*
G01X38831Y6527D01*
G01X38821Y6492D01*
G01X38813Y6457D01*
G01X38808Y6421D01*
G01X38804Y6386D01*
G01X38803Y6349D01*
G01X38804Y6315D01*
G01X38807Y6280D01*
G01X38813Y6245D01*
G01X38820Y6211D01*
G01X38830Y6177D01*
G01X38842Y6144D01*
G01X38855Y6112D01*
G01X38871Y6081D01*
G01X38888Y6050D01*
G01X38908Y6021D01*
G01X38929Y5993D01*
G01X38952Y5967D01*
G01X38976Y5942D01*
G01X39002Y5918D01*
G01X39030Y5896D01*
G01X39058Y5876D01*
G01X39088Y5858D01*
G01X39119Y5842D01*
G01X39151Y5827D01*
G01X39183Y5815D01*
G01X39217Y5804D01*
G01X39251Y5796D01*
G01X39285Y5789D01*
G01X39303Y5785D01*
G01X39416Y5746D01*
G01X39430Y5740D01*
G01X39443Y5732D01*
G01X39455Y5722D01*
G01X41536Y3641D01*
G01X41546Y3629D01*
G01X41554Y3616D01*
G01X41560Y3602D01*
G01X41599Y3489D01*
G01X41603Y3471D01*
G01X41610Y3437D01*
G01X41618Y3403D01*
G01X41629Y3369D01*
G01X41641Y3337D01*
G01X41656Y3305D01*
G01X41672Y3274D01*
G01X41690Y3244D01*
G01X41710Y3216D01*
G01X41732Y3188D01*
G01X41756Y3162D01*
G01X41781Y3138D01*
G01X41807Y3115D01*
G01X41835Y3094D01*
G01X41864Y3074D01*
G01X41895Y3057D01*
G01X41926Y3041D01*
G01X41958Y3028D01*
G01X41991Y3016D01*
G01X42025Y3006D01*
G01X42059Y2999D01*
G01X42094Y2993D01*
G01X42129Y2990D01*
G01X42163Y2989D01*
G01X42164Y2989D01*
G01X42198Y2990D01*
G01X42232Y2993D01*
G01X42265Y2998D01*
G01X42299Y3005D01*
G01X42332Y3015D01*
G01X42364Y3026D01*
G01X42396Y3039D01*
G01X42426Y3054D01*
G01X42456Y3070D01*
G01X42485Y3089D01*
G01X42512Y3109D01*
G01X42539Y3131D01*
G01X42563Y3154D01*
G01X42587Y3179D01*
G01X42609Y3205D01*
G01X42629Y3233D01*
G01X42648Y3262D01*
G01X42665Y3291D01*
G01X42680Y3322D01*
G01X42686Y3335D01*
G01X42695Y3346D01*
G01X42705Y3357D01*
G01X42717Y3365D01*
G01X42730Y3372D01*
G01X42743Y3378D01*
G01X42758Y3381D01*
G01X42772Y3382D01*
G01X42789Y3380D01*
G01X42805Y3376D01*
G01X42820Y3370D01*
G01X42834Y3361D01*
G01X42864Y3339D01*
G01X42896Y3319D01*
G01X42928Y3302D01*
G01X42962Y3286D01*
G01X42997Y3273D01*
G01X43033Y3262D01*
G01X43069Y3254D01*
G01X43105Y3248D01*
G01X43142Y3244D01*
G01X43180Y3243D01*
G01X43214Y3244D01*
G01X43248Y3247D01*
G01X43282Y3252D01*
G01X43315Y3260D01*
G01X43348Y3269D01*
G01X43380Y3280D01*
G01X43412Y3293D01*
G01X43443Y3308D01*
G01X43473Y3325D01*
G01X43501Y3343D01*
G01X43529Y3364D01*
G01X43555Y3386D01*
G01X43580Y3409D01*
G01X43603Y3434D01*
G01X43625Y3460D01*
G01X43646Y3488D01*
G01X43664Y3516D01*
G01X43681Y3546D01*
G01X43696Y3577D01*
G01X43709Y3609D01*
G01X43720Y3641D01*
G01X43729Y3674D01*
G01X43737Y3707D01*
G01X43742Y3741D01*
G01X43745Y3775D01*
G01X43746Y3810D01*
G01X43745Y3844D01*
G01X43742Y3879D01*
G01X43736Y3914D01*
G01X43729Y3948D01*
G01X43719Y3981D01*
G01X43708Y4014D01*
G01X43694Y4046D01*
G01X43678Y4078D01*
G01X43661Y4108D01*
G01X43642Y4137D01*
G01X43621Y4165D01*
G01X43598Y4191D01*
G01X43574Y4216D01*
G01X43548Y4240D01*
G01X43521Y4262D01*
G01X43492Y4282D01*
G01X43463Y4300D01*
G01X43432Y4317D01*
G01X43400Y4331D01*
G01X43368Y4344D01*
G01X43334Y4354D01*
G01X43300Y4363D01*
G01X43266Y4369D01*
G01X43248Y4374D01*
G01X43135Y4413D01*
G01X43121Y4419D01*
G01X43108Y4428D01*
G01X43097Y4438D01*
G01X42830Y4706D01*
G01X42820Y4718D01*
G01X42812Y4732D01*
G01X42806Y4747D01*
G01X42802Y4762D01*
G01X42801Y4778D01*
G01X42801Y5086D01*
G01X42800Y5116D01*
G01X42796Y5146D01*
G01X42790Y5176D01*
G01X42782Y5205D01*
G01X42772Y5233D01*
G01X42759Y5261D01*
G01X42744Y5287D01*
G01X42727Y5312D01*
G01X42709Y5336D01*
G01X42688Y5358D01*
G01X41307Y6733D01*
G01X41297Y6745D01*
G01X41288Y6759D01*
G01X41282Y6774D01*
G01X41278Y6789D01*
G01X41277Y6805D01*
G01X41277Y10417D01*
G01X41278Y10432D01*
G01X41282Y10447D01*
G01X41287Y10462D01*
G01X41339Y10569D01*
G01X41349Y10585D01*
G01X41370Y10615D01*
G01X41388Y10645D01*
G01X41405Y10678D01*
G01X41419Y10710D01*
G01X41432Y10744D01*
G01X41442Y10779D01*
G01X41450Y10814D01*
G01X41455Y10850D01*
G01X41459Y10885D01*
G01X41460Y10922D01*
G01X41459Y10956D01*
G01X41456Y10990D01*
G01X41451Y11024D01*
G01X41443Y11057D01*
G01X41434Y11090D01*
G01X41423Y11122D01*
G01X41410Y11154D01*
G01X41395Y11185D01*
G01X41378Y11215D01*
G01X41360Y11243D01*
G01X41339Y11271D01*
G01X41317Y11297D01*
G01X41294Y11322D01*
G01X41269Y11345D01*
G01X41243Y11367D01*
G01X41215Y11388D01*
G01X41187Y11406D01*
G01X41157Y11423D01*
G01X41126Y11438D01*
G01X41094Y11451D01*
G01X41062Y11462D01*
G01X41029Y11471D01*
G01X40996Y11479D01*
G01X40962Y11484D01*
G01X40928Y11487D01*
G01X40894Y11488D01*
G01X40859Y11487D01*
G01X40825Y11484D01*
G01X40791Y11479D01*
G01X40758Y11471D01*
G01X40725Y11462D01*
G01X40693Y11451D01*
G01X40661Y11438D01*
G01X40630Y11423D01*
G01X40600Y11406D01*
G01X40572Y11388D01*
G01X40544Y11367D01*
G01X40518Y11345D01*
G01X40493Y11322D01*
G01X40470Y11297D01*
G01X40448Y11271D01*
G01X40427Y11243D01*
G01X40409Y11215D01*
G01X40392Y11185D01*
G01X40377Y11154D01*
G01X40364Y11122D01*
G01X40353Y11090D01*
G01X40344Y11057D01*
G01X40336Y11024D01*
G01X40331Y10990D01*
G01X40328Y10956D01*
G01X40327Y10922D01*
G01X40328Y10885D01*
G01X40332Y10850D01*
G01X40337Y10814D01*
G01X40345Y10779D01*
G01X40355Y10744D01*
G01X40368Y10710D01*
G01X40382Y10678D01*
G01X40399Y10645D01*
G01X40417Y10615D01*
G01X40438Y10585D01*
G01X40448Y10569D01*
G01X40500Y10462D01*
G01X40505Y10447D01*
G01X40509Y10432D01*
G01X40510Y10417D01*
G01X40510Y6603D01*
G01X40511Y6573D01*
G01X40515Y6543D01*
G01X40521Y6514D01*
G01X40529Y6485D01*
G01X40539Y6456D01*
G01X40552Y6429D01*
G01X40567Y6403D01*
G01X40584Y6378D01*
G01X40602Y6354D01*
G01X40623Y6332D01*
G01X42004Y4957D01*
G01X42014Y4944D01*
G01X42023Y4931D01*
G01X42029Y4916D01*
G01X42033Y4901D01*
G01X42034Y4885D01*
G01X42034Y4578D01*
G01X42035Y4546D01*
G01X42039Y4514D01*
G01X42046Y4483D01*
G01X42049Y4458D01*
G01X42048Y4443D01*
G01X42045Y4429D01*
G01X42040Y4415D01*
G01X42033Y4403D01*
G01X42024Y4391D01*
G01X42014Y4381D01*
G01X42002Y4372D01*
G01X41990Y4365D01*
G01X41976Y4360D01*
G01X41962Y4357D01*
G01X41948Y4356D01*
G01X41932Y4357D01*
G01X41916Y4361D01*
G01X41901Y4367D01*
G01X41888Y4375D01*
G01X41876Y4386D01*
G01X39997Y6264D01*
G01X39987Y6276D01*
G01X39979Y6289D01*
G01X39973Y6303D01*
G01X39934Y6416D01*
G01X39930Y6434D01*
G01X39923Y6468D01*
G01X39915Y6501D01*
G01X39905Y6534D01*
G01X39893Y6566D01*
G01X39879Y6598D01*
G01X39863Y6628D01*
G01X39845Y6658D01*
G01X39825Y6686D01*
G01X39815Y6702D01*
G01X39763Y6809D01*
G01X39758Y6824D01*
G01X39754Y6839D01*
G01X39753Y6854D01*
G01X39753Y12499D01*
G01X39754Y12514D01*
G01X39758Y12530D01*
G01X39764Y12545D01*
G01X39772Y12558D01*
G01X39783Y12570D01*
G01X39792Y12580D01*
G01X39804Y12590D01*
G01X39817Y12598D01*
G01X39831Y12604D01*
G01X39944Y12643D01*
G01X39962Y12647D01*
G01X39996Y12654D01*
G01X40030Y12662D01*
G01X40064Y12672D01*
G01X40096Y12685D01*
G01X40128Y12700D01*
G01X40159Y12716D01*
G01X40189Y12734D01*
G01X40217Y12754D01*
G01X40245Y12776D01*
G01X40271Y12800D01*
G01X40295Y12825D01*
G01X40318Y12851D01*
G01X40339Y12879D01*
G01X40359Y12908D01*
G01X40376Y12939D01*
G01X40392Y12970D01*
G01X40405Y13002D01*
G01X40417Y13035D01*
G01X40427Y13069D01*
G01X40434Y13103D01*
G01X40440Y13138D01*
G01X40443Y13173D01*
G01X40444Y13207D01*
G01X40443Y13244D01*
G01X40439Y13279D01*
G01X40434Y13315D01*
G01X40426Y13350D01*
G01X40416Y13385D01*
G01X40403Y13419D01*
G01X40389Y13451D01*
G01X40372Y13484D01*
G01X40354Y13514D01*
G01X40333Y13544D01*
G01X40323Y13560D01*
G01X40271Y13667D01*
G01X40266Y13682D01*
G01X40262Y13697D01*
G01X40261Y13712D01*
G01X40261Y14731D01*
G01X40260Y14762D01*
G01X40256Y14791D01*
G01X40250Y14821D01*
G01X40242Y14850D01*
G01X40232Y14878D01*
G01X40219Y14906D01*
G01X40205Y14932D01*
G01X40188Y14957D01*
G01X40169Y14981D01*
G01X40149Y15003D01*
G01X38879Y16273D01*
G01X38857Y16293D01*
G01X38833Y16312D01*
G01X38808Y16329D01*
G01X38782Y16343D01*
G01X38754Y16356D01*
G01X38726Y16366D01*
G01X38697Y16374D01*
G01X38667Y16380D01*
G01X38638Y16384D01*
G01X38608Y16385D01*
G01X33270Y16385D01*
G01X33255Y16386D01*
G01X33240Y16390D01*
G01X33225Y16395D01*
G01X33118Y16447D01*
G01X33102Y16457D01*
G01X33072Y16478D01*
G01X33042Y16496D01*
G01X33009Y16513D01*
G01X32977Y16527D01*
G01X32943Y16540D01*
G01X32908Y16550D01*
G01X32873Y16558D01*
G01X32837Y16563D01*
G01X32802Y16567D01*
G37*
G36*
G01X1558Y16567D02*
G01X1524Y16568D01*
G01X1489Y16567D01*
G01X1455Y16564D01*
G01X1421Y16559D01*
G01X1388Y16551D01*
G01X1355Y16542D01*
G01X1323Y16531D01*
G01X1291Y16518D01*
G01X1260Y16503D01*
G01X1230Y16486D01*
G01X1202Y16468D01*
G01X1174Y16447D01*
G01X1148Y16425D01*
G01X1123Y16402D01*
G01X1100Y16377D01*
G01X1078Y16351D01*
G01X1057Y16323D01*
G01X1039Y16295D01*
G01X1022Y16265D01*
G01X1007Y16234D01*
G01X994Y16202D01*
G01X983Y16170D01*
G01X974Y16137D01*
G01X966Y16104D01*
G01X961Y16070D01*
G01X958Y16036D01*
G01X957Y16001D01*
G01X958Y15967D01*
G01X961Y15932D01*
G01X967Y15898D01*
G01X974Y15864D01*
G01X983Y15831D01*
G01X995Y15798D01*
G01X1008Y15766D01*
G01X1024Y15735D01*
G01X1041Y15705D01*
G01X1060Y15676D01*
G01X1081Y15648D01*
G01X1103Y15622D01*
G01X1127Y15597D01*
G01X1153Y15573D01*
G01X1179Y15552D01*
G01X1208Y15531D01*
G01X1237Y15513D01*
G01X1267Y15496D01*
G01X1299Y15482D01*
G01X1331Y15469D01*
G01X1364Y15458D01*
G01X1397Y15449D01*
G01X1431Y15443D01*
G01X1466Y15438D01*
G01X1474Y15437D01*
G01X1531Y15426D01*
G01X1547Y15422D01*
G01X1561Y15416D01*
G01X1574Y15407D01*
G01X1586Y15397D01*
G01X1596Y15385D01*
G01X1604Y15371D01*
G01X1609Y15357D01*
G01X1613Y15342D01*
G01X1614Y15326D01*
G01X1613Y15312D01*
G01X1610Y15297D01*
G01X1605Y15283D01*
G01X1598Y15270D01*
G01X1589Y15259D01*
G01X1578Y15249D01*
G01X1566Y15240D01*
G01X1553Y15233D01*
G01X1539Y15228D01*
G01X1496Y15215D01*
G01X1454Y15200D01*
G01X1413Y15183D01*
G01X1372Y15164D01*
G01X1333Y15143D01*
G01X1294Y15121D01*
G01X1257Y15096D01*
G01X1221Y15069D01*
G01X1186Y15041D01*
G01X1153Y15011D01*
G01X1121Y14979D01*
G01X1091Y14946D01*
G01X1062Y14911D01*
G01X1036Y14875D01*
G01X1011Y14838D01*
G01X988Y14800D01*
G01X967Y14760D01*
G01X948Y14720D01*
G01X931Y14678D01*
G01X1693Y14678D01*
G01X1693Y15262D01*
G01X1694Y15277D01*
G01X1697Y15291D01*
G01X1702Y15305D01*
G01X1709Y15317D01*
G01X1718Y15329D01*
G01X1728Y15339D01*
G01X1739Y15348D01*
G01X1752Y15355D01*
G01X1766Y15360D01*
G01X1780Y15363D01*
G01X1794Y15364D01*
G01X2659Y15364D01*
G01X2674Y15363D01*
G01X2688Y15360D01*
G01X2702Y15355D01*
G01X2714Y15348D01*
G01X2726Y15339D01*
G01X2736Y15329D01*
G01X2745Y15317D01*
G01X2752Y15305D01*
G01X2757Y15291D01*
G01X2760Y15277D01*
G01X2761Y15262D01*
G01X2761Y14678D01*
G01X3523Y14678D01*
G01X3506Y14721D01*
G01X3486Y14762D01*
G01X3464Y14802D01*
G01X3441Y14841D01*
G01X3415Y14879D01*
G01X3388Y14916D01*
G01X3358Y14951D01*
G01X3327Y14985D01*
G01X3295Y15017D01*
G01X3260Y15047D01*
G01X3225Y15076D01*
G01X3188Y15102D01*
G01X3149Y15127D01*
G01X3109Y15150D01*
G01X3069Y15171D01*
G01X3055Y15179D01*
G01X3042Y15189D01*
G01X3031Y15202D01*
G01X3023Y15215D01*
G01X3016Y15230D01*
G01X3012Y15246D01*
G01X3011Y15262D01*
G01X3012Y15277D01*
G01X3015Y15291D01*
G01X3020Y15305D01*
G01X3027Y15317D01*
G01X3036Y15329D01*
G01X3046Y15339D01*
G01X3058Y15348D01*
G01X3070Y15355D01*
G01X3084Y15360D01*
G01X3098Y15363D01*
G01X3113Y15364D01*
G01X13716Y15364D01*
G01X13747Y15365D01*
G01X13778Y15369D01*
G01X13808Y15375D01*
G01X13838Y15384D01*
G01X13868Y15395D01*
G01X13896Y15409D01*
G01X13910Y15415D01*
G01X13925Y15419D01*
G01X14019Y15437D01*
G01X14027Y15438D01*
G01X14062Y15443D01*
G01X14096Y15449D01*
G01X14129Y15458D01*
G01X14162Y15469D01*
G01X14194Y15482D01*
G01X14226Y15496D01*
G01X14256Y15513D01*
G01X14285Y15531D01*
G01X14314Y15552D01*
G01X14340Y15573D01*
G01X14366Y15597D01*
G01X14390Y15622D01*
G01X14412Y15648D01*
G01X14433Y15676D01*
G01X14452Y15705D01*
G01X14469Y15735D01*
G01X14485Y15766D01*
G01X14498Y15798D01*
G01X14510Y15831D01*
G01X14519Y15864D01*
G01X14526Y15898D01*
G01X14532Y15932D01*
G01X14535Y15967D01*
G01X14536Y16002D01*
G01X14535Y16036D01*
G01X14532Y16070D01*
G01X14527Y16104D01*
G01X14519Y16137D01*
G01X14510Y16170D01*
G01X14499Y16202D01*
G01X14486Y16234D01*
G01X14471Y16265D01*
G01X14454Y16295D01*
G01X14436Y16323D01*
G01X14415Y16351D01*
G01X14393Y16377D01*
G01X14370Y16402D01*
G01X14345Y16425D01*
G01X14319Y16447D01*
G01X14291Y16468D01*
G01X14263Y16486D01*
G01X14233Y16503D01*
G01X14202Y16518D01*
G01X14170Y16531D01*
G01X14138Y16542D01*
G01X14105Y16551D01*
G01X14072Y16559D01*
G01X14038Y16564D01*
G01X14004Y16567D01*
G01X13970Y16568D01*
G01X13935Y16567D01*
G01X13901Y16564D01*
G01X13867Y16559D01*
G01X13833Y16551D01*
G01X13800Y16542D01*
G01X13767Y16531D01*
G01X13735Y16517D01*
G01X13704Y16502D01*
G01X13674Y16485D01*
G01X13646Y16466D01*
G01X13618Y16446D01*
G01X13592Y16423D01*
G01X13567Y16400D01*
G01X13543Y16374D01*
G01X13521Y16348D01*
G01X13501Y16320D01*
G01X13482Y16291D01*
G01X13466Y16261D01*
G01X13451Y16229D01*
G01X13438Y16197D01*
G01X13432Y16183D01*
G01X13423Y16171D01*
G01X13413Y16159D01*
G01X13401Y16149D01*
G01X13388Y16141D01*
G01X13373Y16136D01*
G01X13358Y16132D01*
G01X13343Y16131D01*
G01X2150Y16131D01*
G01X2135Y16132D01*
G01X2120Y16136D01*
G01X2105Y16141D01*
G01X2092Y16149D01*
G01X2080Y16159D01*
G01X2070Y16171D01*
G01X2061Y16183D01*
G01X2055Y16197D01*
G01X2042Y16229D01*
G01X2027Y16261D01*
G01X2011Y16291D01*
G01X1992Y16320D01*
G01X1972Y16348D01*
G01X1950Y16374D01*
G01X1926Y16400D01*
G01X1901Y16423D01*
G01X1875Y16446D01*
G01X1847Y16466D01*
G01X1819Y16485D01*
G01X1789Y16502D01*
G01X1758Y16517D01*
G01X1726Y16531D01*
G01X1693Y16542D01*
G01X1660Y16551D01*
G01X1626Y16559D01*
G01X1592Y16564D01*
G01X1558Y16567D01*
G37*
G36*
G01X46516Y13773D02*
G01X46482Y13774D01*
G01X46447Y13773D01*
G01X46413Y13770D01*
G01X46379Y13765D01*
G01X46346Y13757D01*
G01X46313Y13748D01*
G01X46281Y13737D01*
G01X46249Y13724D01*
G01X46218Y13709D01*
G01X46188Y13692D01*
G01X46160Y13674D01*
G01X46132Y13653D01*
G01X46106Y13631D01*
G01X46081Y13608D01*
G01X46058Y13583D01*
G01X46036Y13557D01*
G01X46015Y13529D01*
G01X45997Y13501D01*
G01X45980Y13471D01*
G01X45965Y13440D01*
G01X45952Y13408D01*
G01X45941Y13376D01*
G01X45932Y13343D01*
G01X45924Y13310D01*
G01X45919Y13276D01*
G01X45916Y13242D01*
G01X45915Y13208D01*
G01X45916Y13171D01*
G01X45920Y13136D01*
G01X45925Y13100D01*
G01X45933Y13065D01*
G01X45943Y13030D01*
G01X45956Y12996D01*
G01X45970Y12964D01*
G01X45987Y12931D01*
G01X46005Y12901D01*
G01X46026Y12871D01*
G01X46036Y12855D01*
G01X46088Y12748D01*
G01X46093Y12733D01*
G01X46097Y12718D01*
G01X46098Y12703D01*
G01X46098Y10918D01*
G01X46097Y10903D01*
G01X46093Y10888D01*
G01X46088Y10873D01*
G01X46036Y10766D01*
G01X46026Y10750D01*
G01X46005Y10720D01*
G01X45987Y10690D01*
G01X45970Y10657D01*
G01X45956Y10625D01*
G01X45943Y10591D01*
G01X45933Y10556D01*
G01X45925Y10521D01*
G01X45920Y10485D01*
G01X45916Y10450D01*
G01X45915Y10414D01*
G01X45916Y10379D01*
G01X45919Y10345D01*
G01X45924Y10311D01*
G01X45932Y10278D01*
G01X45941Y10245D01*
G01X45952Y10213D01*
G01X45965Y10181D01*
G01X45980Y10150D01*
G01X45997Y10120D01*
G01X46015Y10092D01*
G01X46036Y10064D01*
G01X46058Y10038D01*
G01X46081Y10013D01*
G01X46106Y9990D01*
G01X46132Y9968D01*
G01X46160Y9947D01*
G01X46188Y9929D01*
G01X46218Y9912D01*
G01X46249Y9897D01*
G01X46281Y9884D01*
G01X46313Y9873D01*
G01X46346Y9864D01*
G01X46379Y9856D01*
G01X46413Y9851D01*
G01X46447Y9848D01*
G01X46482Y9847D01*
G01X46516Y9848D01*
G01X46550Y9851D01*
G01X46584Y9856D01*
G01X46617Y9864D01*
G01X46650Y9873D01*
G01X46682Y9884D01*
G01X46714Y9897D01*
G01X46745Y9912D01*
G01X46775Y9929D01*
G01X46803Y9947D01*
G01X46831Y9968D01*
G01X46857Y9990D01*
G01X46882Y10013D01*
G01X46905Y10038D01*
G01X46927Y10064D01*
G01X46948Y10092D01*
G01X46966Y10120D01*
G01X46983Y10150D01*
G01X46998Y10181D01*
G01X47011Y10213D01*
G01X47022Y10245D01*
G01X47031Y10278D01*
G01X47039Y10311D01*
G01X47044Y10345D01*
G01X47047Y10379D01*
G01X47048Y10413D01*
G01X47047Y10450D01*
G01X47043Y10485D01*
G01X47038Y10521D01*
G01X47030Y10556D01*
G01X47020Y10591D01*
G01X47007Y10625D01*
G01X46993Y10657D01*
G01X46976Y10690D01*
G01X46958Y10720D01*
G01X46937Y10750D01*
G01X46927Y10766D01*
G01X46875Y10873D01*
G01X46870Y10888D01*
G01X46866Y10903D01*
G01X46865Y10918D01*
G01X46865Y12703D01*
G01X46866Y12718D01*
G01X46870Y12733D01*
G01X46875Y12748D01*
G01X46927Y12855D01*
G01X46937Y12871D01*
G01X46958Y12901D01*
G01X46976Y12931D01*
G01X46993Y12964D01*
G01X47007Y12996D01*
G01X47020Y13030D01*
G01X47030Y13065D01*
G01X47038Y13100D01*
G01X47043Y13136D01*
G01X47047Y13171D01*
G01X47048Y13208D01*
G01X47047Y13242D01*
G01X47044Y13276D01*
G01X47039Y13310D01*
G01X47031Y13343D01*
G01X47022Y13376D01*
G01X47011Y13408D01*
G01X46998Y13440D01*
G01X46983Y13471D01*
G01X46966Y13501D01*
G01X46948Y13529D01*
G01X46927Y13557D01*
G01X46905Y13583D01*
G01X46882Y13608D01*
G01X46857Y13631D01*
G01X46831Y13653D01*
G01X46803Y13674D01*
G01X46775Y13692D01*
G01X46745Y13709D01*
G01X46714Y13724D01*
G01X46682Y13737D01*
G01X46650Y13748D01*
G01X46617Y13757D01*
G01X46584Y13765D01*
G01X46550Y13770D01*
G01X46516Y13773D01*
G37*
G36*
G01X60497Y3049D02*
G01X60452Y3050D01*
G01X60406Y3049D01*
G01X60360Y3046D01*
G01X60315Y3041D01*
G01X60270Y3034D01*
G01X60225Y3025D01*
G01X60181Y3013D01*
G01X60137Y3000D01*
G01X60094Y2985D01*
G01X60051Y2968D01*
G01X60010Y2949D01*
G01X59969Y2928D01*
G01X59929Y2906D01*
G01X59890Y2882D01*
G01X59853Y2856D01*
G01X59816Y2828D01*
G01X59781Y2799D01*
G01X59748Y2768D01*
G01X59715Y2735D01*
G01X59684Y2702D01*
G01X59655Y2667D01*
G01X59627Y2630D01*
G01X59601Y2593D01*
G01X59577Y2554D01*
G01X59555Y2514D01*
G01X59534Y2473D01*
G01X59515Y2432D01*
G01X59498Y2389D01*
G01X59483Y2346D01*
G01X59470Y2302D01*
G01X59458Y2258D01*
G01X59449Y2213D01*
G01X59442Y2168D01*
G01X59437Y2123D01*
G01X59434Y2077D01*
G01X59433Y2032D01*
G01X59434Y1986D01*
G01X59437Y1940D01*
G01X59442Y1895D01*
G01X59449Y1850D01*
G01X59458Y1805D01*
G01X59470Y1761D01*
G01X59483Y1717D01*
G01X59498Y1674D01*
G01X59515Y1631D01*
G01X59534Y1590D01*
G01X59555Y1549D01*
G01X59577Y1509D01*
G01X59601Y1470D01*
G01X59627Y1433D01*
G01X59655Y1396D01*
G01X59684Y1361D01*
G01X59715Y1328D01*
G01X59748Y1295D01*
G01X59781Y1264D01*
G01X59816Y1235D01*
G01X59853Y1207D01*
G01X59890Y1181D01*
G01X59929Y1157D01*
G01X59969Y1135D01*
G01X60010Y1114D01*
G01X60051Y1095D01*
G01X60094Y1078D01*
G01X60137Y1063D01*
G01X60181Y1050D01*
G01X60225Y1038D01*
G01X60270Y1029D01*
G01X60315Y1022D01*
G01X60360Y1017D01*
G01X60406Y1014D01*
G01X60452Y1013D01*
G01X60497Y1014D01*
G01X60543Y1017D01*
G01X60588Y1022D01*
G01X60633Y1029D01*
G01X60678Y1038D01*
G01X60722Y1050D01*
G01X60766Y1063D01*
G01X60809Y1078D01*
G01X60852Y1095D01*
G01X60893Y1114D01*
G01X60934Y1135D01*
G01X60974Y1157D01*
G01X61013Y1181D01*
G01X61050Y1207D01*
G01X61087Y1235D01*
G01X61122Y1264D01*
G01X61155Y1295D01*
G01X61188Y1328D01*
G01X61219Y1361D01*
G01X61248Y1396D01*
G01X61276Y1433D01*
G01X61302Y1470D01*
G01X61326Y1509D01*
G01X61348Y1549D01*
G01X61369Y1590D01*
G01X61388Y1631D01*
G01X61405Y1674D01*
G01X61420Y1717D01*
G01X61433Y1761D01*
G01X61445Y1805D01*
G01X61454Y1850D01*
G01X61461Y1895D01*
G01X61466Y1940D01*
G01X61469Y1986D01*
G01X61470Y2032D01*
G01X61469Y2077D01*
G01X61466Y2123D01*
G01X61461Y2168D01*
G01X61454Y2213D01*
G01X61445Y2258D01*
G01X61433Y2302D01*
G01X61420Y2346D01*
G01X61405Y2389D01*
G01X61388Y2432D01*
G01X61369Y2473D01*
G01X61348Y2514D01*
G01X61326Y2554D01*
G01X61302Y2593D01*
G01X61276Y2630D01*
G01X61248Y2667D01*
G01X61219Y2702D01*
G01X61188Y2735D01*
G01X61155Y2768D01*
G01X61122Y2799D01*
G01X61087Y2828D01*
G01X61050Y2856D01*
G01X61013Y2882D01*
G01X60974Y2906D01*
G01X60934Y2928D01*
G01X60893Y2949D01*
G01X60852Y2968D01*
G01X60809Y2985D01*
G01X60766Y3000D01*
G01X60722Y3013D01*
G01X60678Y3025D01*
G01X60633Y3034D01*
G01X60588Y3041D01*
G01X60543Y3046D01*
G01X60497Y3049D01*
G37*
G36*
G01X52877Y5589D02*
G01X52832Y5590D01*
G01X52786Y5589D01*
G01X52740Y5586D01*
G01X52695Y5581D01*
G01X52650Y5574D01*
G01X52605Y5565D01*
G01X52561Y5553D01*
G01X52517Y5540D01*
G01X52474Y5525D01*
G01X52431Y5508D01*
G01X52390Y5489D01*
G01X52349Y5468D01*
G01X52309Y5446D01*
G01X52270Y5422D01*
G01X52233Y5396D01*
G01X52196Y5368D01*
G01X52161Y5339D01*
G01X52128Y5308D01*
G01X52095Y5275D01*
G01X52064Y5242D01*
G01X52035Y5207D01*
G01X52007Y5170D01*
G01X51981Y5133D01*
G01X51957Y5094D01*
G01X51935Y5054D01*
G01X51914Y5013D01*
G01X51895Y4972D01*
G01X51878Y4929D01*
G01X51863Y4886D01*
G01X51850Y4842D01*
G01X51838Y4798D01*
G01X51829Y4753D01*
G01X51822Y4708D01*
G01X51817Y4663D01*
G01X51814Y4617D01*
G01X51813Y4572D01*
G01X51814Y4526D01*
G01X51817Y4480D01*
G01X51822Y4435D01*
G01X51829Y4390D01*
G01X51838Y4345D01*
G01X51850Y4301D01*
G01X51863Y4257D01*
G01X51878Y4214D01*
G01X51895Y4171D01*
G01X51914Y4130D01*
G01X51935Y4089D01*
G01X51957Y4049D01*
G01X51981Y4010D01*
G01X52007Y3973D01*
G01X52035Y3936D01*
G01X52064Y3901D01*
G01X52095Y3868D01*
G01X52128Y3835D01*
G01X52161Y3804D01*
G01X52196Y3775D01*
G01X52233Y3747D01*
G01X52270Y3721D01*
G01X52309Y3697D01*
G01X52349Y3675D01*
G01X52390Y3654D01*
G01X52431Y3635D01*
G01X52474Y3618D01*
G01X52517Y3603D01*
G01X52561Y3590D01*
G01X52605Y3578D01*
G01X52650Y3569D01*
G01X52695Y3562D01*
G01X52740Y3557D01*
G01X52786Y3554D01*
G01X52832Y3553D01*
G01X52877Y3554D01*
G01X52923Y3557D01*
G01X52968Y3562D01*
G01X53013Y3569D01*
G01X53058Y3578D01*
G01X53102Y3590D01*
G01X53146Y3603D01*
G01X53189Y3618D01*
G01X53232Y3635D01*
G01X53273Y3654D01*
G01X53314Y3675D01*
G01X53354Y3697D01*
G01X53393Y3721D01*
G01X53430Y3747D01*
G01X53467Y3775D01*
G01X53502Y3804D01*
G01X53535Y3835D01*
G01X53568Y3868D01*
G01X53599Y3901D01*
G01X53628Y3936D01*
G01X53656Y3973D01*
G01X53682Y4010D01*
G01X53706Y4049D01*
G01X53728Y4089D01*
G01X53749Y4130D01*
G01X53768Y4171D01*
G01X53785Y4214D01*
G01X53800Y4257D01*
G01X53813Y4301D01*
G01X53825Y4345D01*
G01X53834Y4390D01*
G01X53841Y4435D01*
G01X53846Y4480D01*
G01X53849Y4526D01*
G01X53850Y4572D01*
G01X53849Y4617D01*
G01X53846Y4663D01*
G01X53841Y4708D01*
G01X53834Y4753D01*
G01X53825Y4798D01*
G01X53813Y4842D01*
G01X53800Y4886D01*
G01X53785Y4929D01*
G01X53768Y4972D01*
G01X53749Y5013D01*
G01X53728Y5054D01*
G01X53706Y5094D01*
G01X53682Y5133D01*
G01X53656Y5170D01*
G01X53628Y5207D01*
G01X53599Y5242D01*
G01X53568Y5275D01*
G01X53535Y5308D01*
G01X53502Y5339D01*
G01X53467Y5368D01*
G01X53430Y5396D01*
G01X53393Y5422D01*
G01X53354Y5446D01*
G01X53314Y5468D01*
G01X53273Y5489D01*
G01X53232Y5508D01*
G01X53189Y5525D01*
G01X53146Y5540D01*
G01X53102Y5553D01*
G01X53058Y5565D01*
G01X53013Y5574D01*
G01X52968Y5581D01*
G01X52923Y5586D01*
G01X52877Y5589D01*
G37*
G36*
G01X52877Y8129D02*
G01X52832Y8130D01*
G01X52786Y8129D01*
G01X52740Y8126D01*
G01X52695Y8121D01*
G01X52650Y8114D01*
G01X52605Y8105D01*
G01X52561Y8093D01*
G01X52517Y8080D01*
G01X52474Y8065D01*
G01X52431Y8048D01*
G01X52390Y8029D01*
G01X52349Y8008D01*
G01X52309Y7986D01*
G01X52270Y7962D01*
G01X52233Y7936D01*
G01X52196Y7908D01*
G01X52161Y7879D01*
G01X52128Y7848D01*
G01X52095Y7815D01*
G01X52064Y7782D01*
G01X52035Y7747D01*
G01X52007Y7710D01*
G01X51981Y7673D01*
G01X51957Y7634D01*
G01X51935Y7594D01*
G01X51914Y7553D01*
G01X51895Y7512D01*
G01X51878Y7469D01*
G01X51863Y7426D01*
G01X51850Y7382D01*
G01X51838Y7338D01*
G01X51829Y7293D01*
G01X51822Y7248D01*
G01X51817Y7203D01*
G01X51814Y7157D01*
G01X51813Y7112D01*
G01X51814Y7066D01*
G01X51817Y7020D01*
G01X51822Y6975D01*
G01X51829Y6930D01*
G01X51838Y6885D01*
G01X51850Y6841D01*
G01X51863Y6797D01*
G01X51878Y6754D01*
G01X51895Y6711D01*
G01X51914Y6670D01*
G01X51935Y6629D01*
G01X51957Y6589D01*
G01X51981Y6550D01*
G01X52007Y6513D01*
G01X52035Y6476D01*
G01X52064Y6441D01*
G01X52095Y6408D01*
G01X52128Y6375D01*
G01X52161Y6344D01*
G01X52196Y6315D01*
G01X52233Y6287D01*
G01X52270Y6261D01*
G01X52309Y6237D01*
G01X52349Y6215D01*
G01X52390Y6194D01*
G01X52431Y6175D01*
G01X52474Y6158D01*
G01X52517Y6143D01*
G01X52561Y6130D01*
G01X52605Y6118D01*
G01X52650Y6109D01*
G01X52695Y6102D01*
G01X52740Y6097D01*
G01X52786Y6094D01*
G01X52832Y6093D01*
G01X52877Y6094D01*
G01X52923Y6097D01*
G01X52968Y6102D01*
G01X53013Y6109D01*
G01X53058Y6118D01*
G01X53102Y6130D01*
G01X53146Y6143D01*
G01X53189Y6158D01*
G01X53232Y6175D01*
G01X53273Y6194D01*
G01X53314Y6215D01*
G01X53354Y6237D01*
G01X53393Y6261D01*
G01X53430Y6287D01*
G01X53467Y6315D01*
G01X53502Y6344D01*
G01X53535Y6375D01*
G01X53568Y6408D01*
G01X53599Y6441D01*
G01X53628Y6476D01*
G01X53656Y6513D01*
G01X53682Y6550D01*
G01X53706Y6589D01*
G01X53728Y6629D01*
G01X53749Y6670D01*
G01X53768Y6711D01*
G01X53785Y6754D01*
G01X53800Y6797D01*
G01X53813Y6841D01*
G01X53825Y6885D01*
G01X53834Y6930D01*
G01X53841Y6975D01*
G01X53846Y7020D01*
G01X53849Y7066D01*
G01X53850Y7112D01*
G01X53849Y7157D01*
G01X53846Y7203D01*
G01X53841Y7248D01*
G01X53834Y7293D01*
G01X53825Y7338D01*
G01X53813Y7382D01*
G01X53800Y7426D01*
G01X53785Y7469D01*
G01X53768Y7512D01*
G01X53749Y7553D01*
G01X53728Y7594D01*
G01X53706Y7634D01*
G01X53682Y7673D01*
G01X53656Y7710D01*
G01X53628Y7747D01*
G01X53599Y7782D01*
G01X53568Y7815D01*
G01X53535Y7848D01*
G01X53502Y7879D01*
G01X53467Y7908D01*
G01X53430Y7936D01*
G01X53393Y7962D01*
G01X53354Y7986D01*
G01X53314Y8008D01*
G01X53273Y8029D01*
G01X53232Y8048D01*
G01X53189Y8065D01*
G01X53146Y8080D01*
G01X53102Y8093D01*
G01X53058Y8105D01*
G01X53013Y8114D01*
G01X52968Y8121D01*
G01X52923Y8126D01*
G01X52877Y8129D01*
G37*
G36*
G01X52877Y20829D02*
G01X52832Y20830D01*
G01X52786Y20829D01*
G01X52740Y20826D01*
G01X52695Y20821D01*
G01X52650Y20814D01*
G01X52605Y20805D01*
G01X52561Y20793D01*
G01X52517Y20780D01*
G01X52474Y20765D01*
G01X52431Y20748D01*
G01X52390Y20729D01*
G01X52349Y20708D01*
G01X52309Y20686D01*
G01X52270Y20662D01*
G01X52233Y20636D01*
G01X52196Y20608D01*
G01X52161Y20579D01*
G01X52128Y20548D01*
G01X52095Y20515D01*
G01X52064Y20482D01*
G01X52035Y20447D01*
G01X52007Y20410D01*
G01X51981Y20373D01*
G01X51957Y20334D01*
G01X51935Y20294D01*
G01X51914Y20253D01*
G01X51895Y20212D01*
G01X51878Y20169D01*
G01X51863Y20126D01*
G01X51850Y20082D01*
G01X51838Y20038D01*
G01X51829Y19993D01*
G01X51822Y19948D01*
G01X51817Y19903D01*
G01X51814Y19857D01*
G01X51813Y19812D01*
G01X51814Y19766D01*
G01X51817Y19720D01*
G01X51822Y19675D01*
G01X51829Y19630D01*
G01X51838Y19585D01*
G01X51850Y19541D01*
G01X51863Y19497D01*
G01X51878Y19454D01*
G01X51895Y19411D01*
G01X51914Y19370D01*
G01X51935Y19329D01*
G01X51957Y19289D01*
G01X51981Y19250D01*
G01X52007Y19213D01*
G01X52035Y19176D01*
G01X52064Y19141D01*
G01X52095Y19108D01*
G01X52128Y19075D01*
G01X52161Y19044D01*
G01X52196Y19015D01*
G01X52233Y18987D01*
G01X52270Y18961D01*
G01X52309Y18937D01*
G01X52349Y18915D01*
G01X52390Y18894D01*
G01X52431Y18875D01*
G01X52474Y18858D01*
G01X52517Y18843D01*
G01X52561Y18830D01*
G01X52605Y18818D01*
G01X52650Y18809D01*
G01X52695Y18802D01*
G01X52740Y18797D01*
G01X52786Y18794D01*
G01X52832Y18793D01*
G01X52877Y18794D01*
G01X52923Y18797D01*
G01X52968Y18802D01*
G01X53013Y18809D01*
G01X53058Y18818D01*
G01X53102Y18830D01*
G01X53146Y18843D01*
G01X53189Y18858D01*
G01X53232Y18875D01*
G01X53273Y18894D01*
G01X53314Y18915D01*
G01X53354Y18937D01*
G01X53393Y18961D01*
G01X53430Y18987D01*
G01X53467Y19015D01*
G01X53502Y19044D01*
G01X53535Y19075D01*
G01X53568Y19108D01*
G01X53599Y19141D01*
G01X53628Y19176D01*
G01X53656Y19213D01*
G01X53682Y19250D01*
G01X53706Y19289D01*
G01X53728Y19329D01*
G01X53749Y19370D01*
G01X53768Y19411D01*
G01X53785Y19454D01*
G01X53800Y19497D01*
G01X53813Y19541D01*
G01X53825Y19585D01*
G01X53834Y19630D01*
G01X53841Y19675D01*
G01X53846Y19720D01*
G01X53849Y19766D01*
G01X53850Y19812D01*
G01X53849Y19857D01*
G01X53846Y19903D01*
G01X53841Y19948D01*
G01X53834Y19993D01*
G01X53825Y20038D01*
G01X53813Y20082D01*
G01X53800Y20126D01*
G01X53785Y20169D01*
G01X53768Y20212D01*
G01X53749Y20253D01*
G01X53728Y20294D01*
G01X53706Y20334D01*
G01X53682Y20373D01*
G01X53656Y20410D01*
G01X53628Y20447D01*
G01X53599Y20482D01*
G01X53568Y20515D01*
G01X53535Y20548D01*
G01X53502Y20579D01*
G01X53467Y20608D01*
G01X53430Y20636D01*
G01X53393Y20662D01*
G01X53354Y20686D01*
G01X53314Y20708D01*
G01X53273Y20729D01*
G01X53232Y20748D01*
G01X53189Y20765D01*
G01X53146Y20780D01*
G01X53102Y20793D01*
G01X53058Y20805D01*
G01X53013Y20814D01*
G01X52968Y20821D01*
G01X52923Y20826D01*
G01X52877Y20829D01*
G37*
G36*
G01X60497Y20829D02*
G01X60452Y20830D01*
G01X60406Y20829D01*
G01X60360Y20826D01*
G01X60315Y20821D01*
G01X60270Y20814D01*
G01X60225Y20805D01*
G01X60181Y20793D01*
G01X60137Y20780D01*
G01X60094Y20765D01*
G01X60051Y20748D01*
G01X60010Y20729D01*
G01X59969Y20708D01*
G01X59929Y20686D01*
G01X59890Y20662D01*
G01X59853Y20636D01*
G01X59816Y20608D01*
G01X59781Y20579D01*
G01X59748Y20548D01*
G01X59715Y20515D01*
G01X59684Y20482D01*
G01X59655Y20447D01*
G01X59627Y20410D01*
G01X59601Y20373D01*
G01X59577Y20334D01*
G01X59555Y20294D01*
G01X59534Y20253D01*
G01X59515Y20212D01*
G01X59498Y20169D01*
G01X59483Y20126D01*
G01X59470Y20082D01*
G01X59458Y20038D01*
G01X59449Y19993D01*
G01X59442Y19948D01*
G01X59437Y19903D01*
G01X59434Y19857D01*
G01X59433Y19812D01*
G01X59434Y19766D01*
G01X59437Y19720D01*
G01X59442Y19675D01*
G01X59449Y19630D01*
G01X59458Y19585D01*
G01X59470Y19541D01*
G01X59483Y19497D01*
G01X59498Y19454D01*
G01X59515Y19411D01*
G01X59534Y19370D01*
G01X59555Y19329D01*
G01X59577Y19289D01*
G01X59601Y19250D01*
G01X59627Y19213D01*
G01X59655Y19176D01*
G01X59684Y19141D01*
G01X59715Y19108D01*
G01X59748Y19075D01*
G01X59781Y19044D01*
G01X59816Y19015D01*
G01X59853Y18987D01*
G01X59890Y18961D01*
G01X59929Y18937D01*
G01X59969Y18915D01*
G01X60010Y18894D01*
G01X60051Y18875D01*
G01X60094Y18858D01*
G01X60137Y18843D01*
G01X60181Y18830D01*
G01X60225Y18818D01*
G01X60270Y18809D01*
G01X60315Y18802D01*
G01X60360Y18797D01*
G01X60406Y18794D01*
G01X60452Y18793D01*
G01X60497Y18794D01*
G01X60543Y18797D01*
G01X60588Y18802D01*
G01X60633Y18809D01*
G01X60678Y18818D01*
G01X60722Y18830D01*
G01X60766Y18843D01*
G01X60809Y18858D01*
G01X60852Y18875D01*
G01X60893Y18894D01*
G01X60934Y18915D01*
G01X60974Y18937D01*
G01X61013Y18961D01*
G01X61050Y18987D01*
G01X61087Y19015D01*
G01X61122Y19044D01*
G01X61155Y19075D01*
G01X61188Y19108D01*
G01X61219Y19141D01*
G01X61248Y19176D01*
G01X61276Y19213D01*
G01X61302Y19250D01*
G01X61326Y19289D01*
G01X61348Y19329D01*
G01X61369Y19370D01*
G01X61388Y19411D01*
G01X61405Y19454D01*
G01X61420Y19497D01*
G01X61433Y19541D01*
G01X61445Y19585D01*
G01X61454Y19630D01*
G01X61461Y19675D01*
G01X61466Y19720D01*
G01X61469Y19766D01*
G01X61470Y19812D01*
G01X61469Y19857D01*
G01X61466Y19903D01*
G01X61461Y19948D01*
G01X61454Y19993D01*
G01X61445Y20038D01*
G01X61433Y20082D01*
G01X61420Y20126D01*
G01X61405Y20169D01*
G01X61388Y20212D01*
G01X61369Y20253D01*
G01X61348Y20294D01*
G01X61326Y20334D01*
G01X61302Y20373D01*
G01X61276Y20410D01*
G01X61248Y20447D01*
G01X61219Y20482D01*
G01X61188Y20515D01*
G01X61155Y20548D01*
G01X61122Y20579D01*
G01X61087Y20608D01*
G01X61050Y20636D01*
G01X61013Y20662D01*
G01X60974Y20686D01*
G01X60934Y20708D01*
G01X60893Y20729D01*
G01X60852Y20748D01*
G01X60809Y20765D01*
G01X60766Y20780D01*
G01X60722Y20793D01*
G01X60678Y20805D01*
G01X60633Y20814D01*
G01X60588Y20821D01*
G01X60543Y20826D01*
G01X60497Y20829D01*
G37*
G36*
G01X60497Y13209D02*
G01X60452Y13210D01*
G01X60406Y13209D01*
G01X60360Y13206D01*
G01X60315Y13201D01*
G01X60270Y13194D01*
G01X60225Y13185D01*
G01X60181Y13173D01*
G01X60137Y13160D01*
G01X60094Y13145D01*
G01X60051Y13128D01*
G01X60010Y13109D01*
G01X59969Y13088D01*
G01X59929Y13066D01*
G01X59890Y13042D01*
G01X59853Y13016D01*
G01X59816Y12988D01*
G01X59781Y12959D01*
G01X59748Y12928D01*
G01X59715Y12895D01*
G01X59684Y12862D01*
G01X59655Y12827D01*
G01X59627Y12790D01*
G01X59601Y12753D01*
G01X59577Y12714D01*
G01X59555Y12674D01*
G01X59534Y12633D01*
G01X59515Y12592D01*
G01X59498Y12549D01*
G01X59483Y12506D01*
G01X59470Y12462D01*
G01X59458Y12418D01*
G01X59449Y12373D01*
G01X59442Y12328D01*
G01X59437Y12283D01*
G01X59434Y12237D01*
G01X59433Y12192D01*
G01X59434Y12146D01*
G01X59437Y12100D01*
G01X59442Y12055D01*
G01X59449Y12010D01*
G01X59458Y11965D01*
G01X59470Y11921D01*
G01X59483Y11877D01*
G01X59498Y11834D01*
G01X59515Y11791D01*
G01X59534Y11750D01*
G01X59555Y11709D01*
G01X59577Y11669D01*
G01X59601Y11630D01*
G01X59627Y11593D01*
G01X59655Y11556D01*
G01X59684Y11521D01*
G01X59715Y11488D01*
G01X59748Y11455D01*
G01X59781Y11424D01*
G01X59816Y11395D01*
G01X59853Y11367D01*
G01X59890Y11341D01*
G01X59929Y11317D01*
G01X59969Y11295D01*
G01X60010Y11274D01*
G01X60051Y11255D01*
G01X60094Y11238D01*
G01X60137Y11223D01*
G01X60181Y11210D01*
G01X60225Y11198D01*
G01X60270Y11189D01*
G01X60315Y11182D01*
G01X60360Y11177D01*
G01X60406Y11174D01*
G01X60452Y11173D01*
G01X60497Y11174D01*
G01X60543Y11177D01*
G01X60588Y11182D01*
G01X60633Y11189D01*
G01X60678Y11198D01*
G01X60722Y11210D01*
G01X60766Y11223D01*
G01X60809Y11238D01*
G01X60852Y11255D01*
G01X60893Y11274D01*
G01X60934Y11295D01*
G01X60974Y11317D01*
G01X61013Y11341D01*
G01X61050Y11367D01*
G01X61087Y11395D01*
G01X61122Y11424D01*
G01X61155Y11455D01*
G01X61188Y11488D01*
G01X61219Y11521D01*
G01X61248Y11556D01*
G01X61276Y11593D01*
G01X61302Y11630D01*
G01X61326Y11669D01*
G01X61348Y11709D01*
G01X61369Y11750D01*
G01X61388Y11791D01*
G01X61405Y11834D01*
G01X61420Y11877D01*
G01X61433Y11921D01*
G01X61445Y11965D01*
G01X61454Y12010D01*
G01X61461Y12055D01*
G01X61466Y12100D01*
G01X61469Y12146D01*
G01X61470Y12192D01*
G01X61469Y12237D01*
G01X61466Y12283D01*
G01X61461Y12328D01*
G01X61454Y12373D01*
G01X61445Y12418D01*
G01X61433Y12462D01*
G01X61420Y12506D01*
G01X61405Y12549D01*
G01X61388Y12592D01*
G01X61369Y12633D01*
G01X61348Y12674D01*
G01X61326Y12714D01*
G01X61302Y12753D01*
G01X61276Y12790D01*
G01X61248Y12827D01*
G01X61219Y12862D01*
G01X61188Y12895D01*
G01X61155Y12928D01*
G01X61122Y12959D01*
G01X61087Y12988D01*
G01X61050Y13016D01*
G01X61013Y13042D01*
G01X60974Y13066D01*
G01X60934Y13088D01*
G01X60893Y13109D01*
G01X60852Y13128D01*
G01X60809Y13145D01*
G01X60766Y13160D01*
G01X60722Y13173D01*
G01X60678Y13185D01*
G01X60633Y13194D01*
G01X60588Y13201D01*
G01X60543Y13206D01*
G01X60497Y13209D01*
G37*
G36*
G01X60497Y15749D02*
G01X60452Y15750D01*
G01X60406Y15749D01*
G01X60360Y15746D01*
G01X60315Y15741D01*
G01X60270Y15734D01*
G01X60225Y15725D01*
G01X60181Y15713D01*
G01X60137Y15700D01*
G01X60094Y15685D01*
G01X60051Y15668D01*
G01X60010Y15649D01*
G01X59969Y15628D01*
G01X59929Y15606D01*
G01X59890Y15582D01*
G01X59853Y15556D01*
G01X59816Y15528D01*
G01X59781Y15499D01*
G01X59748Y15468D01*
G01X59715Y15435D01*
G01X59684Y15402D01*
G01X59655Y15367D01*
G01X59627Y15330D01*
G01X59601Y15293D01*
G01X59577Y15254D01*
G01X59555Y15214D01*
G01X59534Y15173D01*
G01X59515Y15132D01*
G01X59498Y15089D01*
G01X59483Y15046D01*
G01X59470Y15002D01*
G01X59458Y14958D01*
G01X59449Y14913D01*
G01X59442Y14868D01*
G01X59437Y14823D01*
G01X59434Y14777D01*
G01X59433Y14732D01*
G01X59434Y14686D01*
G01X59437Y14640D01*
G01X59442Y14595D01*
G01X59449Y14550D01*
G01X59458Y14505D01*
G01X59470Y14461D01*
G01X59483Y14417D01*
G01X59498Y14374D01*
G01X59515Y14331D01*
G01X59534Y14290D01*
G01X59555Y14249D01*
G01X59577Y14209D01*
G01X59601Y14170D01*
G01X59627Y14133D01*
G01X59655Y14096D01*
G01X59684Y14061D01*
G01X59715Y14028D01*
G01X59748Y13995D01*
G01X59781Y13964D01*
G01X59816Y13935D01*
G01X59853Y13907D01*
G01X59890Y13881D01*
G01X59929Y13857D01*
G01X59969Y13835D01*
G01X60010Y13814D01*
G01X60051Y13795D01*
G01X60094Y13778D01*
G01X60137Y13763D01*
G01X60181Y13750D01*
G01X60225Y13738D01*
G01X60270Y13729D01*
G01X60315Y13722D01*
G01X60360Y13717D01*
G01X60406Y13714D01*
G01X60452Y13713D01*
G01X60497Y13714D01*
G01X60543Y13717D01*
G01X60588Y13722D01*
G01X60633Y13729D01*
G01X60678Y13738D01*
G01X60722Y13750D01*
G01X60766Y13763D01*
G01X60809Y13778D01*
G01X60852Y13795D01*
G01X60893Y13814D01*
G01X60934Y13835D01*
G01X60974Y13857D01*
G01X61013Y13881D01*
G01X61050Y13907D01*
G01X61087Y13935D01*
G01X61122Y13964D01*
G01X61155Y13995D01*
G01X61188Y14028D01*
G01X61219Y14061D01*
G01X61248Y14096D01*
G01X61276Y14133D01*
G01X61302Y14170D01*
G01X61326Y14209D01*
G01X61348Y14249D01*
G01X61369Y14290D01*
G01X61388Y14331D01*
G01X61405Y14374D01*
G01X61420Y14417D01*
G01X61433Y14461D01*
G01X61445Y14505D01*
G01X61454Y14550D01*
G01X61461Y14595D01*
G01X61466Y14640D01*
G01X61469Y14686D01*
G01X61470Y14732D01*
G01X61469Y14777D01*
G01X61466Y14823D01*
G01X61461Y14868D01*
G01X61454Y14913D01*
G01X61445Y14958D01*
G01X61433Y15002D01*
G01X61420Y15046D01*
G01X61405Y15089D01*
G01X61388Y15132D01*
G01X61369Y15173D01*
G01X61348Y15214D01*
G01X61326Y15254D01*
G01X61302Y15293D01*
G01X61276Y15330D01*
G01X61248Y15367D01*
G01X61219Y15402D01*
G01X61188Y15435D01*
G01X61155Y15468D01*
G01X61122Y15499D01*
G01X61087Y15528D01*
G01X61050Y15556D01*
G01X61013Y15582D01*
G01X60974Y15606D01*
G01X60934Y15628D01*
G01X60893Y15649D01*
G01X60852Y15668D01*
G01X60809Y15685D01*
G01X60766Y15700D01*
G01X60722Y15713D01*
G01X60678Y15725D01*
G01X60633Y15734D01*
G01X60588Y15741D01*
G01X60543Y15746D01*
G01X60497Y15749D01*
G37*
G36*
G01X60497Y18289D02*
G01X60452Y18290D01*
G01X60406Y18289D01*
G01X60360Y18286D01*
G01X60315Y18281D01*
G01X60270Y18274D01*
G01X60225Y18265D01*
G01X60181Y18253D01*
G01X60137Y18240D01*
G01X60094Y18225D01*
G01X60051Y18208D01*
G01X60010Y18189D01*
G01X59969Y18168D01*
G01X59929Y18146D01*
G01X59890Y18122D01*
G01X59853Y18096D01*
G01X59816Y18068D01*
G01X59781Y18039D01*
G01X59748Y18008D01*
G01X59715Y17975D01*
G01X59684Y17942D01*
G01X59655Y17907D01*
G01X59627Y17870D01*
G01X59601Y17833D01*
G01X59577Y17794D01*
G01X59555Y17754D01*
G01X59534Y17713D01*
G01X59515Y17672D01*
G01X59498Y17629D01*
G01X59483Y17586D01*
G01X59470Y17542D01*
G01X59458Y17498D01*
G01X59449Y17453D01*
G01X59442Y17408D01*
G01X59437Y17363D01*
G01X59434Y17317D01*
G01X59433Y17272D01*
G01X59434Y17226D01*
G01X59437Y17180D01*
G01X59442Y17135D01*
G01X59449Y17090D01*
G01X59458Y17045D01*
G01X59470Y17001D01*
G01X59483Y16957D01*
G01X59498Y16914D01*
G01X59515Y16871D01*
G01X59534Y16830D01*
G01X59555Y16789D01*
G01X59577Y16749D01*
G01X59601Y16710D01*
G01X59627Y16673D01*
G01X59655Y16636D01*
G01X59684Y16601D01*
G01X59715Y16568D01*
G01X59748Y16535D01*
G01X59781Y16504D01*
G01X59816Y16475D01*
G01X59853Y16447D01*
G01X59890Y16421D01*
G01X59929Y16397D01*
G01X59969Y16375D01*
G01X60010Y16354D01*
G01X60051Y16335D01*
G01X60094Y16318D01*
G01X60137Y16303D01*
G01X60181Y16290D01*
G01X60225Y16278D01*
G01X60270Y16269D01*
G01X60315Y16262D01*
G01X60360Y16257D01*
G01X60406Y16254D01*
G01X60452Y16253D01*
G01X60497Y16254D01*
G01X60543Y16257D01*
G01X60588Y16262D01*
G01X60633Y16269D01*
G01X60678Y16278D01*
G01X60722Y16290D01*
G01X60766Y16303D01*
G01X60809Y16318D01*
G01X60852Y16335D01*
G01X60893Y16354D01*
G01X60934Y16375D01*
G01X60974Y16397D01*
G01X61013Y16421D01*
G01X61050Y16447D01*
G01X61087Y16475D01*
G01X61122Y16504D01*
G01X61155Y16535D01*
G01X61188Y16568D01*
G01X61219Y16601D01*
G01X61248Y16636D01*
G01X61276Y16673D01*
G01X61302Y16710D01*
G01X61326Y16749D01*
G01X61348Y16789D01*
G01X61369Y16830D01*
G01X61388Y16871D01*
G01X61405Y16914D01*
G01X61420Y16957D01*
G01X61433Y17001D01*
G01X61445Y17045D01*
G01X61454Y17090D01*
G01X61461Y17135D01*
G01X61466Y17180D01*
G01X61469Y17226D01*
G01X61470Y17272D01*
G01X61469Y17317D01*
G01X61466Y17363D01*
G01X61461Y17408D01*
G01X61454Y17453D01*
G01X61445Y17498D01*
G01X61433Y17542D01*
G01X61420Y17586D01*
G01X61405Y17629D01*
G01X61388Y17672D01*
G01X61369Y17713D01*
G01X61348Y17754D01*
G01X61326Y17794D01*
G01X61302Y17833D01*
G01X61276Y17870D01*
G01X61248Y17907D01*
G01X61219Y17942D01*
G01X61188Y17975D01*
G01X61155Y18008D01*
G01X61122Y18039D01*
G01X61087Y18068D01*
G01X61050Y18096D01*
G01X61013Y18122D01*
G01X60974Y18146D01*
G01X60934Y18168D01*
G01X60893Y18189D01*
G01X60852Y18208D01*
G01X60809Y18225D01*
G01X60766Y18240D01*
G01X60722Y18253D01*
G01X60678Y18265D01*
G01X60633Y18274D01*
G01X60588Y18281D01*
G01X60543Y18286D01*
G01X60497Y18289D01*
G37*
G36*
G01X52877Y18289D02*
G01X52832Y18290D01*
G01X52786Y18289D01*
G01X52740Y18286D01*
G01X52695Y18281D01*
G01X52650Y18274D01*
G01X52605Y18265D01*
G01X52561Y18253D01*
G01X52517Y18240D01*
G01X52474Y18225D01*
G01X52431Y18208D01*
G01X52390Y18189D01*
G01X52349Y18168D01*
G01X52309Y18146D01*
G01X52270Y18122D01*
G01X52233Y18096D01*
G01X52196Y18068D01*
G01X52161Y18039D01*
G01X52128Y18008D01*
G01X52095Y17975D01*
G01X52064Y17942D01*
G01X52035Y17907D01*
G01X52007Y17870D01*
G01X51981Y17833D01*
G01X51957Y17794D01*
G01X51935Y17754D01*
G01X51914Y17713D01*
G01X51895Y17672D01*
G01X51878Y17629D01*
G01X51863Y17586D01*
G01X51850Y17542D01*
G01X51838Y17498D01*
G01X51829Y17453D01*
G01X51822Y17408D01*
G01X51817Y17363D01*
G01X51814Y17317D01*
G01X51813Y17272D01*
G01X51814Y17226D01*
G01X51817Y17180D01*
G01X51822Y17135D01*
G01X51829Y17090D01*
G01X51838Y17045D01*
G01X51850Y17001D01*
G01X51863Y16957D01*
G01X51878Y16914D01*
G01X51895Y16871D01*
G01X51914Y16830D01*
G01X51935Y16789D01*
G01X51957Y16749D01*
G01X51981Y16710D01*
G01X52007Y16673D01*
G01X52035Y16636D01*
G01X52064Y16601D01*
G01X52095Y16568D01*
G01X52128Y16535D01*
G01X52161Y16504D01*
G01X52196Y16475D01*
G01X52233Y16447D01*
G01X52270Y16421D01*
G01X52309Y16397D01*
G01X52349Y16375D01*
G01X52390Y16354D01*
G01X52431Y16335D01*
G01X52474Y16318D01*
G01X52517Y16303D01*
G01X52561Y16290D01*
G01X52605Y16278D01*
G01X52650Y16269D01*
G01X52695Y16262D01*
G01X52740Y16257D01*
G01X52786Y16254D01*
G01X52832Y16253D01*
G01X52877Y16254D01*
G01X52923Y16257D01*
G01X52968Y16262D01*
G01X53013Y16269D01*
G01X53058Y16278D01*
G01X53102Y16290D01*
G01X53146Y16303D01*
G01X53189Y16318D01*
G01X53232Y16335D01*
G01X53273Y16354D01*
G01X53314Y16375D01*
G01X53354Y16397D01*
G01X53393Y16421D01*
G01X53430Y16447D01*
G01X53467Y16475D01*
G01X53502Y16504D01*
G01X53535Y16535D01*
G01X53568Y16568D01*
G01X53599Y16601D01*
G01X53628Y16636D01*
G01X53656Y16673D01*
G01X53682Y16710D01*
G01X53706Y16749D01*
G01X53728Y16789D01*
G01X53749Y16830D01*
G01X53768Y16871D01*
G01X53785Y16914D01*
G01X53800Y16957D01*
G01X53813Y17001D01*
G01X53825Y17045D01*
G01X53834Y17090D01*
G01X53841Y17135D01*
G01X53846Y17180D01*
G01X53849Y17226D01*
G01X53850Y17272D01*
G01X53849Y17317D01*
G01X53846Y17363D01*
G01X53841Y17408D01*
G01X53834Y17453D01*
G01X53825Y17498D01*
G01X53813Y17542D01*
G01X53800Y17586D01*
G01X53785Y17629D01*
G01X53768Y17672D01*
G01X53749Y17713D01*
G01X53728Y17754D01*
G01X53706Y17794D01*
G01X53682Y17833D01*
G01X53656Y17870D01*
G01X53628Y17907D01*
G01X53599Y17942D01*
G01X53568Y17975D01*
G01X53535Y18008D01*
G01X53502Y18039D01*
G01X53467Y18068D01*
G01X53430Y18096D01*
G01X53393Y18122D01*
G01X53354Y18146D01*
G01X53314Y18168D01*
G01X53273Y18189D01*
G01X53232Y18208D01*
G01X53189Y18225D01*
G01X53146Y18240D01*
G01X53102Y18253D01*
G01X53058Y18265D01*
G01X53013Y18274D01*
G01X52968Y18281D01*
G01X52923Y18286D01*
G01X52877Y18289D01*
G37*
G36*
G01X32154Y20372D02*
G01X32108Y20374D01*
G01X32061Y20372D01*
G01X32015Y20369D01*
G01X31969Y20364D01*
G01X31923Y20356D01*
G01X31877Y20347D01*
G01X31832Y20335D01*
G01X31788Y20321D01*
G01X31744Y20306D01*
G01X31701Y20288D01*
G01X31659Y20268D01*
G01X31618Y20246D01*
G01X31578Y20223D01*
G01X31539Y20197D01*
G01X31501Y20170D01*
G01X31465Y20141D01*
G01X31430Y20111D01*
G01X31396Y20079D01*
G01X31364Y20045D01*
G01X31333Y20010D01*
G01X31304Y19974D01*
G01X31277Y19936D01*
G01X31252Y19897D01*
G01X31228Y19857D01*
G01X31207Y19816D01*
G01X31187Y19774D01*
G01X31169Y19731D01*
G01X31153Y19687D01*
G01X31140Y19642D01*
G01X31128Y19597D01*
G01X31118Y19552D01*
G01X31111Y19506D01*
G01X31105Y19460D01*
G01X31102Y19413D01*
G01X31101Y19367D01*
G01X31102Y19321D01*
G01X31105Y19274D01*
G01X31111Y19228D01*
G01X31118Y19182D01*
G01X31128Y19137D01*
G01X31140Y19092D01*
G01X31153Y19047D01*
G01X31169Y19003D01*
G01X31187Y18960D01*
G01X31207Y18918D01*
G01X31228Y18877D01*
G01X31252Y18837D01*
G01X31277Y18798D01*
G01X31304Y18760D01*
G01X31333Y18724D01*
G01X31364Y18689D01*
G01X31396Y18655D01*
G01X31430Y18623D01*
G01X31465Y18593D01*
G01X31501Y18564D01*
G01X31539Y18537D01*
G01X31578Y18511D01*
G01X31618Y18488D01*
G01X31659Y18466D01*
G01X31701Y18446D01*
G01X31744Y18428D01*
G01X31788Y18413D01*
G01X31832Y18399D01*
G01X31877Y18387D01*
G01X31923Y18378D01*
G01X31969Y18370D01*
G01X32015Y18365D01*
G01X32061Y18362D01*
G01X32108Y18360D01*
G01X32154Y18362D01*
G01X32201Y18365D01*
G01X32247Y18370D01*
G01X32293Y18378D01*
G01X32338Y18387D01*
G01X32383Y18399D01*
G01X32428Y18413D01*
G01X32471Y18428D01*
G01X32514Y18446D01*
G01X32556Y18466D01*
G01X32597Y18488D01*
G01X32638Y18511D01*
G01X32676Y18537D01*
G01X32714Y18564D01*
G01X32751Y18593D01*
G01X32786Y18623D01*
G01X32819Y18655D01*
G01X32851Y18689D01*
G01X32882Y18724D01*
G01X32911Y18760D01*
G01X32938Y18798D01*
G01X32963Y18837D01*
G01X32987Y18877D01*
G01X33009Y18918D01*
G01X33028Y18960D01*
G01X33046Y19003D01*
G01X33062Y19047D01*
G01X33076Y19092D01*
G01X33087Y19137D01*
G01X33097Y19182D01*
G01X33105Y19228D01*
G01X33110Y19274D01*
G01X33113Y19321D01*
G01X33114Y19367D01*
G01X33113Y19413D01*
G01X33110Y19460D01*
G01X33105Y19506D01*
G01X33097Y19552D01*
G01X33087Y19597D01*
G01X33076Y19642D01*
G01X33062Y19687D01*
G01X33046Y19731D01*
G01X33028Y19774D01*
G01X33009Y19816D01*
G01X32987Y19857D01*
G01X32963Y19897D01*
G01X32938Y19936D01*
G01X32911Y19974D01*
G01X32882Y20010D01*
G01X32851Y20045D01*
G01X32819Y20079D01*
G01X32786Y20111D01*
G01X32751Y20141D01*
G01X32714Y20170D01*
G01X32676Y20197D01*
G01X32638Y20223D01*
G01X32597Y20246D01*
G01X32556Y20268D01*
G01X32514Y20288D01*
G01X32471Y20306D01*
G01X32428Y20321D01*
G01X32383Y20335D01*
G01X32338Y20347D01*
G01X32293Y20356D01*
G01X32247Y20364D01*
G01X32201Y20369D01*
G01X32154Y20372D01*
G37*
G36*
G01X37031Y20372D02*
G01X36984Y20374D01*
G01X36938Y20372D01*
G01X36892Y20369D01*
G01X36845Y20364D01*
G01X36799Y20356D01*
G01X36754Y20347D01*
G01X36709Y20335D01*
G01X36665Y20321D01*
G01X36621Y20306D01*
G01X36578Y20288D01*
G01X36536Y20268D01*
G01X36495Y20246D01*
G01X36455Y20223D01*
G01X36416Y20197D01*
G01X36378Y20170D01*
G01X36341Y20141D01*
G01X36306Y20111D01*
G01X36273Y20079D01*
G01X36241Y20045D01*
G01X36210Y20010D01*
G01X36181Y19974D01*
G01X36154Y19936D01*
G01X36129Y19897D01*
G01X36105Y19857D01*
G01X36083Y19816D01*
G01X36064Y19774D01*
G01X36046Y19731D01*
G01X36030Y19687D01*
G01X36016Y19642D01*
G01X36005Y19597D01*
G01X35995Y19552D01*
G01X35988Y19506D01*
G01X35982Y19460D01*
G01X35979Y19413D01*
G01X35978Y19367D01*
G01X35979Y19321D01*
G01X35982Y19274D01*
G01X35988Y19228D01*
G01X35995Y19182D01*
G01X36005Y19137D01*
G01X36016Y19092D01*
G01X36030Y19047D01*
G01X36046Y19003D01*
G01X36064Y18960D01*
G01X36083Y18918D01*
G01X36105Y18877D01*
G01X36129Y18837D01*
G01X36154Y18798D01*
G01X36181Y18760D01*
G01X36210Y18724D01*
G01X36241Y18689D01*
G01X36273Y18655D01*
G01X36306Y18623D01*
G01X36341Y18593D01*
G01X36378Y18564D01*
G01X36416Y18537D01*
G01X36455Y18511D01*
G01X36495Y18488D01*
G01X36536Y18466D01*
G01X36578Y18446D01*
G01X36621Y18428D01*
G01X36665Y18413D01*
G01X36709Y18399D01*
G01X36754Y18387D01*
G01X36799Y18378D01*
G01X36845Y18370D01*
G01X36892Y18365D01*
G01X36938Y18362D01*
G01X36984Y18360D01*
G01X37031Y18362D01*
G01X37077Y18365D01*
G01X37123Y18370D01*
G01X37169Y18378D01*
G01X37215Y18387D01*
G01X37260Y18399D01*
G01X37304Y18413D01*
G01X37348Y18428D01*
G01X37391Y18446D01*
G01X37433Y18466D01*
G01X37474Y18488D01*
G01X37514Y18511D01*
G01X37553Y18537D01*
G01X37591Y18564D01*
G01X37627Y18593D01*
G01X37663Y18623D01*
G01X37696Y18655D01*
G01X37728Y18689D01*
G01X37759Y18724D01*
G01X37788Y18760D01*
G01X37815Y18798D01*
G01X37840Y18837D01*
G01X37864Y18877D01*
G01X37885Y18918D01*
G01X37905Y18960D01*
G01X37923Y19003D01*
G01X37939Y19047D01*
G01X37953Y19092D01*
G01X37964Y19137D01*
G01X37974Y19182D01*
G01X37981Y19228D01*
G01X37987Y19274D01*
G01X37990Y19321D01*
G01X37991Y19367D01*
G01X37990Y19413D01*
G01X37987Y19460D01*
G01X37981Y19506D01*
G01X37974Y19552D01*
G01X37964Y19597D01*
G01X37953Y19642D01*
G01X37939Y19687D01*
G01X37923Y19731D01*
G01X37905Y19774D01*
G01X37885Y19816D01*
G01X37864Y19857D01*
G01X37840Y19897D01*
G01X37815Y19936D01*
G01X37788Y19974D01*
G01X37759Y20010D01*
G01X37728Y20045D01*
G01X37696Y20079D01*
G01X37663Y20111D01*
G01X37627Y20141D01*
G01X37591Y20170D01*
G01X37553Y20197D01*
G01X37514Y20223D01*
G01X37474Y20246D01*
G01X37433Y20268D01*
G01X37391Y20288D01*
G01X37348Y20306D01*
G01X37304Y20321D01*
G01X37260Y20335D01*
G01X37215Y20347D01*
G01X37169Y20356D01*
G01X37123Y20364D01*
G01X37077Y20369D01*
G01X37031Y20372D01*
G37*
G36*
G01X2804Y8012D02*
G01X2761Y8017D01*
G01X2761Y7439D01*
G01X3523Y7439D01*
G01X3506Y7480D01*
G01X3488Y7519D01*
G01X3467Y7558D01*
G01X3445Y7596D01*
G01X3421Y7632D01*
G01X3395Y7668D01*
G01X3367Y7702D01*
G01X3338Y7734D01*
G01X3307Y7766D01*
G01X3275Y7795D01*
G01X3242Y7823D01*
G01X3207Y7850D01*
G01X3171Y7875D01*
G01X3133Y7898D01*
G01X3095Y7919D01*
G01X3056Y7938D01*
G01X3015Y7955D01*
G01X2974Y7971D01*
G01X2933Y7984D01*
G01X2890Y7995D01*
G01X2848Y8005D01*
G01X2804Y8012D01*
G37*
G36*
G01X3523Y6789D02*
G01X2761Y6789D01*
G01X2761Y6212D01*
G01X2804Y6217D01*
G01X2848Y6224D01*
G01X2890Y6233D01*
G01X2933Y6245D01*
G01X2974Y6258D01*
G01X3015Y6273D01*
G01X3056Y6291D01*
G01X3095Y6310D01*
G01X3133Y6331D01*
G01X3171Y6354D01*
G01X3207Y6379D01*
G01X3242Y6405D01*
G01X3275Y6433D01*
G01X3307Y6463D01*
G01X3338Y6494D01*
G01X3367Y6527D01*
G01X3395Y6561D01*
G01X3421Y6596D01*
G01X3445Y6633D01*
G01X3467Y6670D01*
G01X3488Y6709D01*
G01X3506Y6749D01*
G01X3523Y6789D01*
G37*
G36*
G01X3523Y14028D02*
G01X2761Y14028D01*
G01X2761Y13451D01*
G01X2804Y13456D01*
G01X2848Y13463D01*
G01X2890Y13472D01*
G01X2933Y13484D01*
G01X2974Y13497D01*
G01X3015Y13512D01*
G01X3056Y13530D01*
G01X3095Y13549D01*
G01X3133Y13570D01*
G01X3171Y13593D01*
G01X3207Y13618D01*
G01X3242Y13644D01*
G01X3275Y13672D01*
G01X3307Y13702D01*
G01X3338Y13733D01*
G01X3367Y13766D01*
G01X3395Y13800D01*
G01X3421Y13835D01*
G01X3445Y13872D01*
G01X3467Y13909D01*
G01X3488Y13948D01*
G01X3506Y13988D01*
G01X3523Y14028D01*
G37*
G36*
G01X1693Y6789D02*
G01X931Y6789D01*
G01X947Y6749D01*
G01X966Y6709D01*
G01X986Y6670D01*
G01X1009Y6633D01*
G01X1033Y6596D01*
G01X1059Y6561D01*
G01X1086Y6527D01*
G01X1116Y6494D01*
G01X1146Y6463D01*
G01X1178Y6433D01*
G01X1212Y6405D01*
G01X1247Y6379D01*
G01X1283Y6354D01*
G01X1320Y6331D01*
G01X1359Y6310D01*
G01X1398Y6291D01*
G01X1438Y6273D01*
G01X1479Y6258D01*
G01X1521Y6245D01*
G01X1563Y6233D01*
G01X1606Y6224D01*
G01X1649Y6217D01*
G01X1693Y6212D01*
G01X1693Y6789D01*
G37*
G36*
G01X1693Y14028D02*
G01X931Y14028D01*
G01X947Y13988D01*
G01X966Y13948D01*
G01X986Y13909D01*
G01X1009Y13872D01*
G01X1033Y13835D01*
G01X1059Y13800D01*
G01X1086Y13766D01*
G01X1116Y13733D01*
G01X1146Y13702D01*
G01X1178Y13672D01*
G01X1212Y13644D01*
G01X1247Y13618D01*
G01X1283Y13593D01*
G01X1320Y13570D01*
G01X1359Y13549D01*
G01X1398Y13530D01*
G01X1438Y13512D01*
G01X1479Y13497D01*
G01X1521Y13484D01*
G01X1563Y13472D01*
G01X1606Y13463D01*
G01X1649Y13456D01*
G01X1693Y13451D01*
G01X1693Y14028D01*
G37*
G36*
G01X1693Y7439D02*
G01X1693Y8017D01*
G01X1649Y8012D01*
G01X1606Y8005D01*
G01X1563Y7995D01*
G01X1521Y7984D01*
G01X1479Y7971D01*
G01X1438Y7955D01*
G01X1398Y7938D01*
G01X1359Y7919D01*
G01X1320Y7897D01*
G01X1283Y7875D01*
G01X1247Y7850D01*
G01X1212Y7823D01*
G01X1178Y7795D01*
G01X1146Y7766D01*
G01X1086Y7702D01*
G01X1059Y7668D01*
G01X1033Y7632D01*
G01X1009Y7596D01*
G01X986Y7558D01*
G01X966Y7519D01*
G01X947Y7480D01*
G01X931Y7439D01*
G01X1693Y7439D01*
G37*
G36*
G01X1130Y20180D02*
G01X480Y20180D01*
G01X480Y19786D01*
G01X481Y19762D01*
G01X484Y19739D01*
G01X489Y19716D01*
G01X497Y19693D01*
G01X506Y19672D01*
G01X518Y19651D01*
G01X531Y19632D01*
G01X547Y19613D01*
G01X563Y19597D01*
G01X582Y19581D01*
G01X601Y19568D01*
G01X622Y19556D01*
G01X643Y19547D01*
G01X666Y19539D01*
G01X689Y19534D01*
G01X712Y19531D01*
G01X736Y19530D01*
G01X1130Y19530D01*
G01X1130Y20180D01*
G37*
G36*
G01X2567Y20180D02*
G01X1917Y20180D01*
G01X1917Y19530D01*
G01X2311Y19530D01*
G01X2335Y19531D01*
G01X2358Y19534D01*
G01X2381Y19539D01*
G01X2404Y19547D01*
G01X2425Y19556D01*
G01X2446Y19568D01*
G01X2465Y19581D01*
G01X2484Y19597D01*
G01X2500Y19613D01*
G01X2516Y19632D01*
G01X2529Y19651D01*
G01X2541Y19672D01*
G01X2550Y19693D01*
G01X2558Y19716D01*
G01X2563Y19739D01*
G01X2566Y19762D01*
G01X2567Y19786D01*
G01X2567Y20180D01*
G37*
G36*
G01X39330Y3288D02*
G01X39286Y3307D01*
G01X39286Y2711D01*
G01X39883Y2711D01*
G01X39864Y2754D01*
G01X39842Y2798D01*
G01X39819Y2840D01*
G01X39794Y2881D01*
G01X39767Y2921D01*
G01X39739Y2960D01*
G01X39709Y2997D01*
G01X39677Y3033D01*
G01X39644Y3068D01*
G01X39609Y3101D01*
G01X39573Y3133D01*
G01X39536Y3163D01*
G01X39497Y3191D01*
G01X39457Y3218D01*
G01X39416Y3243D01*
G01X39374Y3266D01*
G01X39330Y3288D01*
G37*
G36*
G01X38437Y2711D02*
G01X38437Y3307D01*
G01X38393Y3288D01*
G01X38349Y3266D01*
G01X38307Y3243D01*
G01X38266Y3218D01*
G01X38226Y3191D01*
G01X38187Y3163D01*
G01X38150Y3133D01*
G01X38114Y3101D01*
G01X38079Y3068D01*
G01X38046Y3033D01*
G01X38014Y2997D01*
G01X37984Y2960D01*
G01X37956Y2921D01*
G01X37929Y2881D01*
G01X37904Y2840D01*
G01X37881Y2798D01*
G01X37859Y2754D01*
G01X37840Y2711D01*
G01X38437Y2711D01*
G37*
G36*
G01X60071Y10033D02*
G01X60071Y10596D01*
G01X60029Y10578D01*
G01X59988Y10558D01*
G01X59948Y10537D01*
G01X59909Y10513D01*
G01X59871Y10488D01*
G01X59834Y10461D01*
G01X59798Y10433D01*
G01X59764Y10403D01*
G01X59731Y10372D01*
G01X59700Y10339D01*
G01X59670Y10305D01*
G01X59642Y10269D01*
G01X59615Y10232D01*
G01X59590Y10194D01*
G01X59566Y10155D01*
G01X59545Y10115D01*
G01X59525Y10074D01*
G01X59507Y10033D01*
G01X60071Y10033D01*
G37*
G36*
G01X60071Y9271D02*
G01X59507Y9271D01*
G01X59507Y9270D01*
G01X59525Y9229D01*
G01X59545Y9188D01*
G01X59566Y9148D01*
G01X59590Y9109D01*
G01X59615Y9071D01*
G01X59642Y9034D01*
G01X59670Y8998D01*
G01X59700Y8964D01*
G01X59731Y8931D01*
G01X59764Y8900D01*
G01X59798Y8870D01*
G01X59834Y8842D01*
G01X59871Y8815D01*
G01X59909Y8790D01*
G01X59948Y8766D01*
G01X59988Y8745D01*
G01X60029Y8725D01*
G01X60071Y8707D01*
G01X60071Y9271D01*
G37*
G36*
G01X60874Y10578D02*
G01X60833Y10596D01*
G01X60833Y10033D01*
G01X61396Y10033D01*
G01X61378Y10074D01*
G01X61358Y10115D01*
G01X61337Y10155D01*
G01X61313Y10194D01*
G01X61288Y10232D01*
G01X61261Y10269D01*
G01X61233Y10305D01*
G01X61203Y10339D01*
G01X61172Y10372D01*
G01X61139Y10403D01*
G01X61105Y10433D01*
G01X61069Y10461D01*
G01X61032Y10488D01*
G01X60994Y10513D01*
G01X60955Y10537D01*
G01X60915Y10558D01*
G01X60874Y10578D01*
G37*
G36*
G01X61396Y9270D02*
G01X60833Y9271D01*
G01X60833Y8707D01*
G01X60874Y8725D01*
G01X60915Y8745D01*
G01X60955Y8766D01*
G01X60994Y8790D01*
G01X61032Y8815D01*
G01X61069Y8842D01*
G01X61105Y8870D01*
G01X61139Y8900D01*
G01X61172Y8931D01*
G01X61203Y8964D01*
G01X61233Y8998D01*
G01X61261Y9034D01*
G01X61288Y9071D01*
G01X61313Y9109D01*
G01X61337Y9148D01*
G01X61358Y9188D01*
G01X61378Y9229D01*
G01X61396Y9270D01*
G37*
G36*
G01X4627Y8603D02*
G01X4627Y9105D01*
G01X4587Y9089D01*
G01X4548Y9071D01*
G01X4510Y9051D01*
G01X4473Y9029D01*
G01X4437Y9005D01*
G01X4402Y8980D01*
G01X4369Y8953D01*
G01X4337Y8924D01*
G01X4306Y8893D01*
G01X4277Y8861D01*
G01X4250Y8828D01*
G01X4224Y8793D01*
G01X4201Y8757D01*
G01X4179Y8720D01*
G01X4159Y8682D01*
G01X4141Y8643D01*
G01X4125Y8603D01*
G01X4627Y8603D01*
G37*
G36*
G01X5267Y9089D02*
G01X5227Y9105D01*
G01X5227Y8603D01*
G01X5729Y8603D01*
G01X5713Y8643D01*
G01X5695Y8682D01*
G01X5675Y8720D01*
G01X5653Y8757D01*
G01X5629Y8793D01*
G01X5604Y8828D01*
G01X5576Y8861D01*
G01X5548Y8893D01*
G01X5517Y8924D01*
G01X5485Y8953D01*
G01X5452Y8980D01*
G01X5417Y9005D01*
G01X5381Y9029D01*
G01X5344Y9051D01*
G01X5306Y9071D01*
G01X5267Y9089D01*
G37*
G36*
G01X5729Y8003D02*
G01X5227Y8003D01*
G01X5227Y7501D01*
G01X5267Y7517D01*
G01X5306Y7535D01*
G01X5344Y7555D01*
G01X5381Y7577D01*
G01X5417Y7601D01*
G01X5452Y7626D01*
G01X5485Y7653D01*
G01X5517Y7682D01*
G01X5548Y7713D01*
G01X5576Y7745D01*
G01X5604Y7778D01*
G01X5629Y7813D01*
G01X5653Y7849D01*
G01X5675Y7886D01*
G01X5695Y7924D01*
G01X5713Y7963D01*
G01X5729Y8003D01*
G37*
G36*
G01X5267Y13930D02*
G01X5227Y13947D01*
G01X5227Y13444D01*
G01X5729Y13444D01*
G01X5713Y13484D01*
G01X5695Y13523D01*
G01X5675Y13561D01*
G01X5653Y13599D01*
G01X5629Y13634D01*
G01X5604Y13669D01*
G01X5576Y13703D01*
G01X5548Y13734D01*
G01X5517Y13765D01*
G01X5485Y13794D01*
G01X5452Y13821D01*
G01X5417Y13847D01*
G01X5381Y13870D01*
G01X5344Y13892D01*
G01X5306Y13912D01*
G01X5267Y13930D01*
G37*
G36*
G01X4627Y13444D02*
G01X4627Y13947D01*
G01X4587Y13930D01*
G01X4548Y13912D01*
G01X4510Y13892D01*
G01X4473Y13870D01*
G01X4437Y13847D01*
G01X4402Y13821D01*
G01X4369Y13794D01*
G01X4337Y13765D01*
G01X4306Y13734D01*
G01X4277Y13703D01*
G01X4250Y13669D01*
G01X4224Y13634D01*
G01X4201Y13599D01*
G01X4179Y13561D01*
G01X4159Y13523D01*
G01X4141Y13484D01*
G01X4125Y13444D01*
G01X4627Y13444D01*
G37*
G36*
G01X4627Y8003D02*
G01X4125Y8003D01*
G01X4141Y7963D01*
G01X4159Y7924D01*
G01X4179Y7886D01*
G01X4201Y7849D01*
G01X4224Y7813D01*
G01X4250Y7778D01*
G01X4277Y7745D01*
G01X4306Y7713D01*
G01X4337Y7682D01*
G01X4369Y7653D01*
G01X4402Y7626D01*
G01X4437Y7601D01*
G01X4473Y7577D01*
G01X4510Y7555D01*
G01X4548Y7535D01*
G01X4587Y7517D01*
G01X4627Y7501D01*
G01X4627Y8003D01*
G37*
G36*
G01X4627Y12844D02*
G01X4125Y12844D01*
G01X4141Y12804D01*
G01X4159Y12765D01*
G01X4179Y12727D01*
G01X4201Y12690D01*
G01X4224Y12654D01*
G01X4250Y12619D01*
G01X4277Y12586D01*
G01X4306Y12554D01*
G01X4337Y12524D01*
G01X4369Y12495D01*
G01X4402Y12467D01*
G01X4437Y12442D01*
G01X4473Y12418D01*
G01X4510Y12396D01*
G01X4548Y12376D01*
G01X4587Y12358D01*
G01X4627Y12342D01*
G01X4627Y12844D01*
G37*
G36*
G01X5729Y12844D02*
G01X5227Y12844D01*
G01X5227Y12342D01*
G01X5267Y12358D01*
G01X5306Y12376D01*
G01X5344Y12396D01*
G01X5381Y12418D01*
G01X5417Y12442D01*
G01X5452Y12467D01*
G01X5485Y12495D01*
G01X5517Y12524D01*
G01X5548Y12554D01*
G01X5576Y12586D01*
G01X5604Y12619D01*
G01X5629Y12654D01*
G01X5653Y12690D01*
G01X5675Y12727D01*
G01X5695Y12765D01*
G01X5713Y12804D01*
G01X5729Y12844D01*
G37*

%LPD*%
G54D10*
G01X6098Y1521D02*
G01X9395Y1521D01*
G01X10668Y2794D01*
G01X25908Y6350D02*
G01X11684Y6350D01*
G01X10922Y5588D01*
G01X10922Y3048D01*
G01X10668Y2794D01*
G01X39370Y6350D02*
G01X39370Y6349D01*
G01X42163Y3556D01*
G01X6350Y4064D02*
G01X6350Y13716D01*
G01X6857Y14224D01*
G01X14731Y14224D01*
G01X15493Y14986D01*
G01X9651Y7366D02*
G01X8127Y8890D01*
G01X8127Y12446D01*
G01X8381Y12700D01*
G01X27685Y12700D01*
G01X27940Y12446D01*
G01X24130Y14986D02*
G01X30226Y14986D01*
G01X30480Y14732D01*
G01X1524Y16002D02*
G01X1778Y15748D01*
G01X13716Y15748D01*
G01X13970Y16002D01*
G01X17526Y16256D02*
G01X16763Y16256D01*
G01X15493Y14986D01*
G01X30480Y5588D02*
G01X30480Y11938D01*
G01X33020Y14478D01*
G01X33020Y15748D01*
G01X32766Y16002D01*
G01X35052Y3810D02*
G01X28448Y3810D01*
G01X27178Y5080D01*
G01X27178Y6858D01*
G01X24384Y9652D01*
G01X10922Y9652D01*
G01X10668Y9398D01*
G01X10668Y10668D02*
G01X11176Y10160D01*
G01X24638Y10160D01*
G01X27686Y7112D01*
G01X27686Y5334D01*
G01X28802Y4217D01*
G01X34443Y4217D01*
G01X34798Y4572D01*
G01X6096Y2794D02*
G01X6858Y2794D01*
G01X7620Y3556D01*
G01X7620Y12700D01*
G01X8128Y13208D01*
G01X20320Y13208D01*
G01X24384Y17272D01*
G01X40132Y17272D01*
G01X42418Y14986D01*
G01X42418Y8382D01*
G01X48768Y2032D01*
G01X52832Y2032D01*
G01X50546Y7366D02*
G01X50546Y9906D01*
G01X51562Y10922D01*
G01X54102Y10922D01*
G01X60452Y4572D01*
G01X50546Y13462D02*
G01X53848Y13462D01*
G01X60452Y7112D01*
G01X46482Y10414D02*
G01X46482Y12954D01*
G01X43180Y3810D02*
G01X42417Y4578D01*
G01X42417Y5086D01*
G01X40894Y6604D01*
G01X40894Y10922D01*
G01X32766Y16002D02*
G01X38608Y16002D01*
G01X39878Y14732D01*
G01X39878Y13208D01*
G01X39370Y6350D02*
G01X39370Y12700D01*
G01X39878Y13208D01*
G01X15748Y3810D02*
G01X18796Y762D01*
G01X55283Y762D01*
G01X56642Y2032D01*
G01X56642Y5842D01*
G01X52832Y9652D01*
G01X23368Y11430D02*
G01X28296Y11430D01*
G01X30855Y13989D01*

%LPD*%
G36*
G01X53655Y9008D02*
G01X53592Y9699D01*
G01X52784Y8891D01*
G01X53475Y8828D01*
G01X53655Y9008D01*
G37*

%LPD*%
G36*
G01X52327Y1460D02*
G01X52327Y2603D01*
G01X51794Y2159D01*
G01X51794Y1905D01*
G01X52327Y1460D01*
G37*

%LPD*%
G36*
G01X60484Y7873D02*
G01X59792Y7922D01*
G01X59616Y7739D01*
G01X59692Y7049D01*
G01X60484Y7873D01*
G37*

%LPD*%
G36*
G01X60499Y5332D02*
G01X59808Y5395D01*
G01X59628Y5215D01*
G01X59691Y4524D01*
G01X60499Y5332D01*
G37*

%LPD*%
G36*
G01X34847Y3577D02*
G01X34847Y4042D01*
G01X34630Y3937D01*
G01X34630Y3683D01*
G01X34847Y3577D01*
G37*

%LPD*%
G36*
G01X11011Y9562D02*
G01X10832Y9741D01*
G01X10648Y9707D01*
G01X10977Y9378D01*
G01X11011Y9562D01*
G37*

%LPD*%
G36*
G01X34817Y4262D02*
G01X34488Y4591D01*
G01X34409Y4363D01*
G01X34589Y4183D01*
G01X34817Y4262D01*
G37*

%LPD*%
G36*
G01X11056Y10459D02*
G01X10977Y10687D01*
G01X10648Y10358D01*
G01X10876Y10279D01*
G01X11056Y10459D01*
G37*

%LPD*%
G36*
G01X30875Y13679D02*
G01X30546Y14008D01*
G01X30467Y13780D01*
G01X30647Y13600D01*
G01X30875Y13679D01*
G37*

%LPD*%
G36*
G01X6477Y4485D02*
G01X6223Y4485D01*
G01X6117Y4268D01*
G01X6582Y4268D01*
G01X6477Y4485D01*
G37*

%LPD*%
G36*
G01X16136Y3601D02*
G01X16057Y3829D01*
G01X15728Y3500D01*
G01X15956Y3421D01*
G01X16136Y3601D01*
G37*

%LPD*%
G36*
G01X6517Y2921D02*
G01X6300Y3026D01*
G01X6300Y2561D01*
G01X6517Y2667D01*
G01X6517Y2921D01*
G37*

%LPD*%
G36*
G01X39758Y6141D02*
G01X39679Y6369D01*
G01X39350Y6040D01*
G01X39578Y5961D01*
G01X39758Y6141D01*
G37*

%LPD*%
G36*
G01X39497Y6771D02*
G01X39243Y6771D01*
G01X39137Y6554D01*
G01X39602Y6554D01*
G01X39497Y6771D01*
G37*

%LPD*%
G36*
G01X40005Y13629D02*
G01X39751Y13629D01*
G01X39645Y13412D01*
G01X40110Y13412D01*
G01X40005Y13629D01*
G37*

%LPD*%
G36*
G01X39897Y12898D02*
G01X39568Y13227D01*
G01X39489Y12999D01*
G01X39669Y12819D01*
G01X39897Y12898D01*
G37*

%LPD*%
G36*
G01X30607Y6009D02*
G01X30353Y6009D01*
G01X30247Y5792D01*
G01X30712Y5792D01*
G01X30607Y6009D01*
G37*

%LPD*%
G36*
G01X6520Y1648D02*
G01X6303Y1754D01*
G01X6302Y1289D01*
G01X6519Y1394D01*
G01X6520Y1648D01*
G37*

%LPD*%
G36*
G01X25703Y6117D02*
G01X25703Y6582D01*
G01X25486Y6477D01*
G01X25486Y6223D01*
G01X25703Y6117D01*
G37*

%LPD*%
G36*
G01X27959Y12755D02*
G01X27775Y12789D01*
G01X27596Y12610D01*
G01X27630Y12426D01*
G01X27959Y12755D01*
G37*

%LPD*%
G36*
G01X33109Y15837D02*
G01X33075Y16021D01*
G01X32746Y15692D01*
G01X32930Y15658D01*
G01X33109Y15837D01*
G37*

%LPD*%
G36*
G01X33187Y16129D02*
G01X32970Y16234D01*
G01X32970Y15769D01*
G01X33187Y15875D01*
G01X33187Y16129D01*
G37*

%LPD*%
G36*
G01X41126Y10717D02*
G01X40661Y10717D01*
G01X40767Y10500D01*
G01X41021Y10500D01*
G01X41126Y10717D01*
G37*

%LPD*%
G36*
G01X43200Y4119D02*
G01X42973Y4199D01*
G01X42792Y4020D01*
G01X42870Y3791D01*
G01X43200Y4119D01*
G37*

%LPD*%
G36*
G01X42183Y3865D02*
G01X41955Y3944D01*
G01X41775Y3764D01*
G01X41854Y3536D01*
G01X42183Y3865D01*
G37*

%LPD*%
G36*
G01X30499Y15041D02*
G01X30315Y15075D01*
G01X30136Y14896D01*
G01X30170Y14712D01*
G01X30499Y15041D01*
G37*

%LPD*%
G36*
G01X9671Y7675D02*
G01X9443Y7754D01*
G01X9263Y7574D01*
G01X9342Y7346D01*
G01X9671Y7675D01*
G37*

%LPD*%
G36*
G01X24551Y15113D02*
G01X24334Y15218D01*
G01X24334Y14753D01*
G01X24551Y14859D01*
G01X24551Y15113D01*
G37*

%LPD*%
G36*
G01X1867Y15837D02*
G01X1833Y16021D01*
G01X1504Y15692D01*
G01X1688Y15658D01*
G01X1867Y15837D01*
G37*

%LPD*%
G36*
G01X13989Y15692D02*
G01X13660Y16021D01*
G01X13626Y15837D01*
G01X13805Y15658D01*
G01X13989Y15692D01*
G37*

%LPD*%
G36*
G01X17321Y16023D02*
G01X17321Y16488D01*
G01X17104Y16383D01*
G01X17104Y16129D01*
G01X17321Y16023D01*
G37*

%LPD*%
G36*
G01X23789Y11557D02*
G01X23572Y11662D01*
G01X23572Y11197D01*
G01X23789Y11303D01*
G01X23789Y11557D01*
G37*

%LPD*%
G36*
G01X50673Y7787D02*
G01X50419Y7787D01*
G01X50313Y7570D01*
G01X50778Y7570D01*
G01X50673Y7787D01*
G37*

%LPD*%
G36*
G01X50967Y13589D02*
G01X50750Y13694D01*
G01X50750Y13229D01*
G01X50967Y13335D01*
G01X50967Y13589D01*
G37*

%LPD*%
G36*
G01X46609Y10835D02*
G01X46355Y10835D01*
G01X46249Y10618D01*
G01X46714Y10618D01*
G01X46609Y10835D01*
G37*

%LPD*%
G36*
G01X46714Y13003D02*
G01X46249Y13003D01*
G01X46355Y12786D01*
G01X46609Y12786D01*
G01X46714Y13003D01*
G37*

%LPD*%
G36*
G01X46616Y4363D02*
G01X46537Y4591D01*
G01X46208Y4262D01*
G01X46436Y4183D01*
G01X46616Y4363D01*
G37*

%LPD*%
G36*
G01X46247Y4881D02*
G01X46019Y4960D01*
G01X45839Y4780D01*
G01X45918Y4552D01*
G01X46247Y4881D01*
G37*
G54D30*
G01X52832Y19812D03*
G01X52832Y17272D03*
G01X52832Y14732D03*
G01X52832Y12192D03*
G01X52832Y9652D03*
G01X52832Y7112D03*
G01X52832Y4572D03*
G01X52832Y2032D03*
G36*
G01X30391Y3136D02*
G01X32092Y3136D01*
G01X32092Y1435D01*
G01X30391Y1435D01*
G01X30391Y3136D01*
G37*
G54D32*
G01X33782Y2286D03*
G01X36322Y2286D03*
G01X38862Y2286D03*
G54D33*
G01X4927Y13144D03*
G01X4927Y8303D03*
G54D34*
G01X1524Y20574D03*
G54D35*
G01X36984Y19367D03*
G01X32108Y19367D03*
G54D30*
G01X60452Y19812D03*
G01X60452Y17272D03*
G01X60452Y14732D03*
G01X60452Y12192D03*
G01X60452Y9652D03*
G01X60452Y7112D03*
G01X60452Y4572D03*
G01X60452Y2032D03*
G54D15*
G01X35052Y3810D03*
G01X10668Y9398D03*
G01X34798Y4572D03*
G01X10668Y10668D03*
G01X36576Y7620D03*
G01X30855Y13989D03*
G01X6350Y4064D03*
G01X15748Y3810D03*
G01X6096Y2794D03*
G01X37592Y15240D03*
G01X39370Y6350D03*
G01X39878Y13208D03*
G01X30480Y5588D03*
G01X37846Y6604D03*
G01X6098Y1522D03*
G01X25908Y6350D03*
G01X27940Y12446D03*
G01X32766Y16002D03*
G01X508Y15748D03*
G01X508Y6096D03*
G01X10414Y762D03*
G01X10922Y1524D03*
G01X11430Y508D03*
G01X11430Y2286D03*
G01X9906Y4064D03*
G01X9652Y5334D03*
G01X10160Y6350D03*
G01X10922Y7112D03*
G01X10414Y7874D03*
G01X11938Y7620D03*
G01X11938Y3556D03*
G01X11684Y4572D03*
G01X12192Y5334D03*
G01X6350Y508D03*
G01X508Y508D03*
G01X2794Y3556D03*
G01X3810Y2794D03*
G01X25654Y5334D03*
G01X23114Y3048D03*
G01X25146Y3048D03*
G01X27246Y3799D03*
G01X28108Y2934D03*
G01X28514Y2122D03*
G01X28448Y7620D03*
G01X28702Y8890D03*
G01X40132Y3048D03*
G01X47498Y1778D03*
G01X37846Y13462D03*
G01X50257Y19189D03*
G01X39878Y21336D03*
G01X39878Y18288D03*
G01X37084Y18034D03*
G01X38354Y18542D03*
G01X32004Y18034D03*
G01X29210Y18542D03*
G01X28956Y21336D03*
G01X30734Y21336D03*
G01X34544Y18542D03*
G01X33528Y19812D03*
G01X35560Y19812D03*
G01X35306Y21336D03*
G01X42672Y21336D03*
G01X46736Y21336D03*
G01X23368Y19812D03*
G01X20320Y21336D03*
G01X20320Y20066D03*
G01X17526Y21336D03*
G01X17526Y19050D03*
G01X9144Y17018D03*
G01X7874Y19304D03*
G01X5842Y18796D03*
G01X5334Y19304D03*
G01X6604Y19304D03*
G01X7112Y18796D03*
G01X14224Y21336D03*
G01X7112Y16510D03*
G01X20576Y17524D03*
G01X20604Y16437D03*
G01X8890Y17780D03*
G01X6096Y16510D03*
G01X10922Y21336D03*
G01X12446Y21336D03*
G01X11684Y20574D03*
G01X11176Y19812D03*
G01X10922Y19050D03*
G01X9144Y21336D03*
G01X4318Y21336D03*
G01X4318Y20320D03*
G01X17780Y17526D03*
G01X14230Y17406D03*
G01X4064Y508D03*
G01X2286Y508D03*
G01X508Y2286D03*
G01X508Y4064D03*
G01X2540Y5842D03*
G01X9028Y2563D03*
G01X9946Y3226D03*
G01X46771Y19190D03*
G01X44679Y19190D03*
G01X48501Y19190D03*
G01X41402Y18034D03*
G01X24638Y21336D03*
G01X37846Y4826D03*
G01X36830Y4064D03*
G01X35037Y1442D03*
G01X37592Y1524D03*
G01X40291Y1545D03*
G01X32004Y12192D03*
G01X32004Y11430D03*
G01X32004Y10668D03*
G01X32004Y9906D03*
G01X32004Y7620D03*
G01X32004Y8382D03*
G01X32004Y9144D03*
G01X32766Y7620D03*
G01X33528Y7620D03*
G01X34290Y7620D03*
G01X35052Y7620D03*
G01X35814Y7620D03*
G01X36576Y8382D03*
G01X36576Y9144D03*
G01X36576Y9906D03*
G01X36576Y10668D03*
G01X36576Y11430D03*
G01X36576Y12192D03*
G01X35814Y12192D03*
G01X35052Y12192D03*
G01X34290Y12192D03*
G01X33528Y12192D03*
G01X32766Y12192D03*
G01X33020Y11176D03*
G01X33020Y8636D03*
G01X33020Y9906D03*
G01X34290Y11176D03*
G01X35560Y11176D03*
G01X35560Y8636D03*
G01X34290Y8636D03*
G01X35560Y9906D03*
G01X33782Y10414D03*
G01X34798Y10414D03*
G01X34798Y9398D03*
G01X33782Y9398D03*
G01X508Y17780D03*
G01X3048Y21336D03*
G01X3048Y19812D03*
G01X5082Y16508D03*
G01X4826Y18796D03*
G01X28194Y8382D03*
G01X24130Y3048D03*
G01X26162Y3048D03*
G01X28956Y3048D03*
G01X8382Y508D03*
G01X5842Y14732D03*
G01X5334Y7112D03*
G01X4064Y7112D03*
G01X4064Y14224D03*
G01X3556Y12954D03*
G01X3810Y11938D03*
G01X3556Y9398D03*
G01X3810Y10668D03*
G01X3302Y8382D03*
G01X2032Y10922D03*
G01X2540Y12446D03*
G01X2540Y9144D03*
G01X3048Y11430D03*
G01X2794Y10160D03*
G01X762Y10922D03*
G01X508Y13970D03*
G01X508Y7620D03*
G01X4826Y14986D03*
G01X29464Y2286D03*
G01X40894Y10922D03*
G01X43180Y3810D03*
G01X42164Y3556D03*
G01X45974Y1778D03*
G01X27178Y3048D03*
G01X30958Y16641D03*
G01X30480Y14732D03*
G01X31112Y15365D03*
G01X9652Y7366D03*
G01X43434Y2540D03*
G01X44196Y3048D03*
G01X25908Y4572D03*
G01X50341Y15722D03*
G01X24130Y14986D03*
G01X20828Y15240D03*
G01X18288Y18542D03*
G01X23114Y5588D03*
G01X23114Y4572D03*
G01X1524Y16002D03*
G01X13970Y16002D03*
G01X17526Y16256D03*
G01X11938Y8636D03*
G01X11176Y8636D03*
G01X11684Y10922D03*
G01X11176Y11430D03*
G01X15748Y11430D03*
G01X16510Y10922D03*
G01X17272Y11430D03*
G01X18288Y11684D03*
G01X19558Y11684D03*
G01X18796Y11176D03*
G01X17780Y10922D03*
G01X18034Y8890D03*
G01X19558Y8890D03*
G01X18796Y8636D03*
G01X18288Y8128D03*
G01X19304Y8128D03*
G01X23368Y11430D03*
G01X17526Y13970D03*
G01X15748Y13970D03*
G01X16510Y14478D03*
G01X22595Y11846D03*
G01X21065Y8276D03*
G01X20555Y7307D03*
G01X23114Y7366D03*
G01X23156Y8480D03*
G01X22136Y8174D03*
G01X21590Y7366D03*
G01X7112Y14986D03*
G01X24384Y13970D03*
G01X39116Y13716D03*
G01X33020Y21336D03*
G01X37846Y21336D03*
G01X7141Y13376D03*
G01X28715Y13223D03*
G01X26420Y9500D03*
G01X29531Y6490D03*
G01X28664Y6694D03*
G01X50546Y7366D03*
G01X50546Y13462D03*
G01X46482Y10414D03*
G01X46482Y13208D03*
G01X43180Y10668D03*
G01X44450Y10414D03*
G01X45466Y10668D03*
G01X48514Y6350D03*
G01X48514Y8382D03*
G01X50800Y6350D03*
G01X50292Y5588D03*
G01X51308Y4826D03*
G01X51308Y14224D03*
G01X51816Y18542D03*
G01X50800Y18034D03*
G01X51308Y17018D03*
G01X50292Y21336D03*
G01X51816Y21336D03*
G01X59436Y21336D03*
G01X61468Y21336D03*
G01X61468Y762D03*
G01X61468Y3302D03*
G01X61468Y5842D03*
G01X61468Y8382D03*
G01X61468Y10922D03*
G01X61468Y13462D03*
G01X61468Y16002D03*
G01X61468Y18542D03*
G01X59436Y3302D03*
G01X54102Y21336D03*
G01X53848Y16002D03*
G01X55880Y21336D03*
G01X57658Y21336D03*
G01X44196Y2032D03*
G01X46482Y3048D03*
G01X45466Y3048D03*
G01X44679Y16895D03*
G01X48505Y16895D03*
G01X46771Y16895D03*
G01X50239Y16895D03*
G01X46228Y4572D03*
G01X43149Y5369D03*
G01X43149Y6490D03*
G01X46209Y6797D03*
G01X45546Y7459D03*
G01X44424Y7459D03*
G01X45189Y6745D03*
G01X46107Y14039D03*
G01X43506Y12152D03*
G01X40089Y12356D03*
G01X50546Y11176D03*
G01X50392Y14702D03*
G01X51816Y16002D03*
G01X51308Y15240D03*
G01X59436Y16002D03*
G01X55118Y20320D03*
G01X28154Y1492D03*
G01X29174Y1492D03*
G01X43434Y1524D03*
G01X48199Y1492D03*
G01X59436Y10922D03*
G01X53848Y5842D03*
G01X53848Y3302D03*
G01X53848Y18542D03*
G01X59436Y18542D03*
G01X27236Y10520D03*
G01X22707Y10870D03*
G01X54610Y14224D03*
G01X58674Y14224D03*
G01X56896Y20320D03*
G01X58674Y20320D03*
G01X55118Y17526D03*
G01X56896Y17526D03*
G01X58420Y17526D03*
G01X55880Y14224D03*
G01X57404Y14224D03*
G01X55372Y15494D03*
G01X58166Y15240D03*
G01X57658Y16256D03*
G01X56642Y15240D03*
G01X55880Y16510D03*
G01X59436Y13462D03*
G54D36*
G01X2677Y7114D02*
G01X1777Y7114D01*
G01X2677Y14353D02*
G01X1777Y14353D01*
M00*
M02*
